<svg width="21" height="21" viewBox="0 0 21 21" fill="none" xmlns="http://www.w3.org/2000/svg">
<path d="M17.0217 21C16.1413 21 15.3587 20.6171 14.9022 19.9397L13.8913 18.4965C13.2065 17.4951 12.6848 16.4348 12.2609 15.5217C11.9674 14.9032 11.2826 14.4909 10.5326 14.4909C9.78261 14.4909 9.09783 14.9032 8.80435 15.5217C8.38044 16.4348 7.8587 17.5245 7.17391 18.4965L6.16304 19.9397C5.70652 20.6171 4.92391 21 4.04348 21C2.67391 21 1.53261 19.9986 1.53261 18.7321V9.30715C0.554348 8.2763 0 6.98037 0 5.62553C0 2.53296 2.80435 0 6.22826 0C7.82609 0 9.32609 0.559608 10.5 1.53156C11.6413 0.559608 13.1739 0 14.7717 0C18.1957 0 21 2.53296 21 5.62553C21 6.95091 20.4783 8.24685 19.5326 9.24825V18.7321C19.5326 19.9691 18.3913 21 17.0217 21ZM10.5326 13.2833C11.8043 13.2833 12.9457 13.9607 13.4674 15.0505C13.8913 15.9341 14.3804 16.9355 15 17.8485L16.0109 19.2917C16.2391 19.6157 16.5978 19.7924 17.0217 19.7924C17.6739 19.7924 18.2283 19.3212 18.2283 18.7027V9.01262C18.2283 8.86536 18.2935 8.71809 18.3913 8.60028C19.2391 7.7756 19.6957 6.71529 19.6957 5.59607C19.6957 3.15147 17.4783 1.14867 14.7717 1.14867C13.337 1.14867 11.9674 1.73773 11.0217 2.73913C10.7609 3.00421 10.2717 3.00421 10.0109 2.73913C9.06522 1.73773 7.69565 1.14867 6.26087 1.14867C3.55435 1.14867 1.33696 3.15147 1.33696 5.59607C1.33696 6.74474 1.82609 7.8345 2.70652 8.65919C2.83696 8.777 2.86957 8.92426 2.86957 9.07153V18.7321C2.86957 19.3212 3.3913 19.8219 4.07609 19.8219C4.5 19.8219 4.8587 19.6452 5.08696 19.3212L6.09783 17.878C6.71739 16.9649 7.23913 15.9341 7.63044 15.0799C8.08696 13.9607 9.26087 13.2833 10.5326 13.2833ZM8.86957 11.1921H6.45652C6.09783 11.1921 5.80435 10.9271 5.80435 10.6031V9.54278H4.63044C4.27174 9.54278 3.97826 9.2777 3.97826 8.95372V6.77419C3.97826 6.45021 4.27174 6.18513 4.63044 6.18513H5.80435V5.18373C5.80435 4.85975 6.09783 4.59467 6.45652 4.59467H8.86957C9.22826 4.59467 9.52174 4.85975 9.52174 5.18373V6.24404H10.6957C11.0543 6.24404 11.3478 6.50912 11.3478 6.8331V9.01262C11.3478 9.33661 11.0543 9.60168 10.6957 9.60168H9.52174V10.662C9.52174 10.9271 9.22826 11.1921 8.86957 11.1921ZM7.1087 10.014H8.21739V8.95372C8.21739 8.62973 8.51087 8.36466 8.86957 8.36466H10.0435V7.36326H8.86957C8.51087 7.36326 8.21739 7.09818 8.21739 6.77419V5.77279H7.1087V6.8331C7.1087 7.15708 6.81522 7.42216 6.45652 7.42216H5.28261V8.42356H6.45652C6.81522 8.42356 7.1087 8.68864 7.1087 9.01262V10.014Z" fill="#FEFEFE"/>
</svg>
