<svg width="24" height="22" viewBox="0 0 24 22" fill="none" xmlns="http://www.w3.org/2000/svg">
<path d="M19.1912 21.5C18.1985 21.5 17.3162 21.1171 16.8015 20.4397L15.6618 18.9965C14.8897 17.9951 14.3015 16.9348 13.8235 16.0217C13.4926 15.4032 12.7206 14.9909 11.875 14.9909C11.0294 14.9909 10.2574 15.4032 9.92647 16.0217C9.44853 16.9348 8.86029 18.0245 8.08824 18.9965L6.94853 20.4397C6.43382 21.1171 5.55147 21.5 4.55882 21.5C3.01471 21.5 1.72794 20.4986 1.72794 19.2321V9.80715C0.625 8.7763 0 7.48037 0 6.12553C0 3.03296 3.16177 0.5 7.02206 0.5C8.82353 0.5 10.5147 1.05961 11.8382 2.03156C13.125 1.05961 14.8529 0.5 16.6544 0.5C20.5147 0.5 23.6765 3.03296 23.6765 6.12553C23.6765 7.45091 23.0882 8.74685 22.0221 9.74825V19.2321C22.0221 20.4691 20.7353 21.5 19.1912 21.5ZM11.875 13.7833C13.3088 13.7833 14.5956 14.4607 15.1838 15.5505C15.6618 16.4341 16.2132 17.4355 16.9118 18.3485L18.0515 19.7917C18.3088 20.1157 18.7132 20.2924 19.1912 20.2924C19.9265 20.2924 20.5515 19.8212 20.5515 19.2027V9.51262C20.5515 9.36536 20.625 9.21809 20.7353 9.10028C21.6912 8.2756 22.2059 7.21529 22.2059 6.09607C22.2059 3.65147 19.7059 1.64867 16.6544 1.64867C15.0368 1.64867 13.4926 2.23773 12.4265 3.23913C12.1324 3.50421 11.5809 3.50421 11.2868 3.23913C10.2206 2.23773 8.67647 1.64867 7.05882 1.64867C4.00735 1.64867 1.50735 3.65147 1.50735 6.09607C1.50735 7.24474 2.05882 8.3345 3.05147 9.15919C3.19853 9.277 3.23529 9.42426 3.23529 9.57153V19.2321C3.23529 19.8212 3.82353 20.3219 4.59559 20.3219C5.07353 20.3219 5.47794 20.1452 5.7353 19.8212L6.875 18.378C7.57353 17.4649 8.16177 16.4341 8.60294 15.5799C9.11765 14.4607 10.4412 13.7833 11.875 13.7833ZM10 11.6921H7.27941C6.875 11.6921 6.54412 11.4271 6.54412 11.1031V10.0428H5.22059C4.81618 10.0428 4.48529 9.7777 4.48529 9.45372V7.27419C4.48529 6.95021 4.81618 6.68513 5.22059 6.68513H6.54412V5.68373C6.54412 5.35975 6.875 5.09467 7.27941 5.09467H10C10.4044 5.09467 10.7353 5.35975 10.7353 5.68373V6.74404H12.0588C12.4632 6.74404 12.7941 7.00912 12.7941 7.3331V9.51262C12.7941 9.83661 12.4632 10.1017 12.0588 10.1017H10.7353V11.162C10.7353 11.4271 10.4044 11.6921 10 11.6921ZM8.01471 10.514H9.26471V9.45372C9.26471 9.12973 9.59559 8.86466 10 8.86466H11.3235V7.86326H10C9.59559 7.86326 9.26471 7.59818 9.26471 7.27419V6.27279H8.01471V7.3331C8.01471 7.65708 7.68382 7.92216 7.27941 7.92216H5.95588V8.92356H7.27941C7.68382 8.92356 8.01471 9.18864 8.01471 9.51262V10.514Z" fill="#8575D2"/>
</svg>
