<svg width="26" height="12" viewBox="0 0 26 12" fill="none" xmlns="http://www.w3.org/2000/svg">
<path d="M18.8659 3.23063C18.8659 1.71863 17.8019 0.640625 16.3039 0.640625C14.8199 0.640625 13.7559 1.71863 13.7559 3.23063C13.7559 4.72863 14.8199 5.80663 16.3039 5.80663C17.8019 5.80663 18.8659 4.72863 18.8659 3.23063ZM24.1999 0.850625H22.8559L15.1699 10.9586H16.5139L24.1999 0.850625ZM17.7879 3.23063C17.7879 4.12663 17.1719 4.75663 16.3039 4.75663C15.4359 4.75663 14.8339 4.12663 14.8339 3.23063C14.8339 2.32063 15.4359 1.69063 16.3039 1.69063C17.1859 1.69063 17.7879 2.32063 17.7879 3.23063ZM25.6419 8.56463C25.6419 7.05263 24.5639 5.98863 23.0799 5.98863C21.5959 5.98863 20.5179 7.05263 20.5179 8.56463C20.5179 10.0626 21.5959 11.1406 23.0799 11.1406C24.5639 11.1406 25.6419 10.0626 25.6419 8.56463ZM24.5499 8.56463C24.5499 9.46063 23.9479 10.0906 23.0799 10.0906C22.2119 10.0906 21.6099 9.46063 21.6099 8.56463C21.6099 7.65463 22.2119 7.02463 23.0799 7.02463C23.9619 7.02463 24.5499 7.65463 24.5499 8.56463Z" fill="#10B981"/>
<path d="M12.5912 10.9463V9.67225H7.91519L10.0152 7.85225C11.8072 6.29825 12.5212 5.27625 12.5212 3.83425C12.5212 1.88825 11.2192 0.65625 9.18919 0.65625C7.13119 0.65625 5.75919 2.07025 5.71719 4.24025H7.08919C7.11719 2.79825 7.92919 1.88825 9.17519 1.88825C10.3932 1.88825 11.1212 2.64425 11.1212 3.91825C11.1212 4.99625 10.6592 5.68225 9.02119 7.09625L5.75919 9.91025V10.9603L12.5912 10.9463Z" fill="#10B981"/>
<path d="M2.63358 2.06794V10.9579H3.94958V0.835938H0.505585V2.06794H2.63358Z" fill="#10B981"/>
</svg>
