<svg width="27" height="12" viewBox="0 0 27 12" fill="none" xmlns="http://www.w3.org/2000/svg">
<path d="M19.9621 3.23453C19.9621 1.72253 18.8981 0.644531 17.4001 0.644531C15.9161 0.644531 14.8521 1.72253 14.8521 3.23453C14.8521 4.73253 15.9161 5.81053 17.4001 5.81053C18.8981 5.81053 19.9621 4.73253 19.9621 3.23453ZM25.2961 0.854531H23.9521L16.2661 10.9625H17.6101L25.2961 0.854531ZM18.8841 3.23453C18.8841 4.13053 18.2681 4.76053 17.4001 4.76053C16.5321 4.76053 15.9301 4.13053 15.9301 3.23453C15.9301 2.32453 16.5321 1.69453 17.4001 1.69453C18.2821 1.69453 18.8841 2.32453 18.8841 3.23453ZM26.7381 8.56853C26.7381 7.05653 25.6601 5.99253 24.1761 5.99253C22.6921 5.99253 21.6141 7.05653 21.6141 8.56853C21.6141 10.0665 22.6921 11.1445 24.1761 11.1445C25.6601 11.1445 26.7381 10.0665 26.7381 8.56853ZM25.6461 8.56853C25.6461 9.46453 25.0441 10.0945 24.1761 10.0945C23.3081 10.0945 22.7061 9.46453 22.7061 8.56853C22.7061 7.65853 23.3081 7.02853 24.1761 7.02853C25.0581 7.02853 25.6461 7.65853 25.6461 8.56853Z" fill="#10B981"/>
<path d="M6.172 8.15016C6.172 9.94216 7.642 11.1322 9.896 11.1322C12.136 11.1322 13.62 9.94216 13.62 8.16416C13.62 6.91816 12.892 5.91016 11.758 5.54616C12.71 5.16816 13.242 4.37016 13.242 3.33416C13.242 1.73816 11.898 0.660156 9.91 0.660156C7.894 0.660156 6.536 1.73816 6.536 3.32016C6.536 4.34216 7.054 5.14016 8.006 5.54616C6.886 5.95216 6.172 6.93216 6.172 8.15016ZM7.796 3.40416C7.796 2.46616 8.622 1.85016 9.882 1.85016C11.156 1.85016 11.954 2.46616 11.954 3.43216C11.954 4.41216 11.156 5.04216 9.882 5.04216C8.622 5.04216 7.796 4.39816 7.796 3.40416ZM7.516 8.05216C7.516 6.93216 8.44 6.21816 9.882 6.21816C11.338 6.21816 12.262 6.93216 12.262 8.05216C12.262 9.18616 11.324 9.91416 9.896 9.91416C8.454 9.91416 7.516 9.18616 7.516 8.05216Z" fill="#10B981"/>
<path d="M3.08711 2.07184V10.9618H4.40311V0.839844H0.959106V2.07184H3.08711Z" fill="#10B981"/>
</svg>
