<svg width="30" height="12" viewBox="0 0 30 12" fill="none" xmlns="http://www.w3.org/2000/svg">
<path d="M22.272 3.23453C22.272 1.72253 21.208 0.644531 19.71 0.644531C18.226 0.644531 17.162 1.72253 17.162 3.23453C17.162 4.73253 18.226 5.81053 19.71 5.81053C21.208 5.81053 22.272 4.73253 22.272 3.23453ZM27.606 0.854531H26.262L18.576 10.9625H19.92L27.606 0.854531ZM21.194 3.23453C21.194 4.13053 20.578 4.76053 19.71 4.76053C18.842 4.76053 18.24 4.13053 18.24 3.23453C18.24 2.32453 18.842 1.69453 19.71 1.69453C20.592 1.69453 21.194 2.32453 21.194 3.23453ZM29.048 8.56853C29.048 7.05653 27.97 5.99253 26.486 5.99253C25.002 5.99253 23.924 7.05653 23.924 8.56853C23.924 10.0665 25.002 11.1445 26.486 11.1445C27.97 11.1445 29.048 10.0665 29.048 8.56853ZM27.956 8.56853C27.956 9.46453 27.354 10.0945 26.486 10.0945C25.618 10.0945 25.016 9.46453 25.016 8.56853C25.016 7.65853 25.618 7.02853 26.486 7.02853C27.368 7.02853 27.956 7.65853 27.956 8.56853Z" fill="#10B981"/>
<path d="M12.3905 11.1298C14.5745 11.1298 16.0725 9.65984 16.0725 7.55984C16.0725 5.61384 14.7425 4.17184 12.6845 4.17184C11.9285 4.17184 11.2565 4.38184 10.7245 4.78784L11.3965 2.09984H15.4705V0.839844H10.4025L9.17049 6.03384L10.3325 6.32784C10.7945 5.75384 11.5785 5.34784 12.4325 5.34784C13.8465 5.34784 14.6725 6.31384 14.6725 7.61584C14.6725 8.98784 13.7905 9.89784 12.4185 9.89784C11.1305 9.89784 10.3325 9.09984 10.3325 7.79784H8.97449C8.97449 9.81384 10.3185 11.1298 12.3905 11.1298Z" fill="#10B981"/>
<path d="M7.82151 10.9502V9.67616H3.14551L5.24551 7.85616C7.03751 6.30216 7.75151 5.28016 7.75151 3.83816C7.75151 1.89216 6.44951 0.660156 4.41951 0.660156C2.36151 0.660156 0.98951 2.07416 0.94751 4.24416H2.31951C2.34751 2.80216 3.15951 1.89216 4.40551 1.89216C5.62351 1.89216 6.35151 2.64816 6.35151 3.92216C6.35151 5.00016 5.88951 5.68616 4.25151 7.10016L0.98951 9.91416V10.9642L7.82151 10.9502Z" fill="#10B981"/>
</svg>
