<svg width="21" height="12" viewBox="0 0 21 12" fill="none" xmlns="http://www.w3.org/2000/svg">
<path d="M13.8418 3.23063C13.8418 1.71863 12.7778 0.640625 11.2798 0.640625C9.79581 0.640625 8.73181 1.71863 8.73181 3.23063C8.73181 4.72863 9.79581 5.80663 11.2798 5.80663C12.7778 5.80663 13.8418 4.72863 13.8418 3.23063ZM19.1758 0.850625H17.8318L10.1458 10.9586H11.4898L19.1758 0.850625ZM12.7638 3.23063C12.7638 4.12663 12.1478 4.75663 11.2798 4.75663C10.4118 4.75663 9.80981 4.12663 9.80981 3.23063C9.80981 2.32063 10.4118 1.69063 11.2798 1.69063C12.1618 1.69063 12.7638 2.32063 12.7638 3.23063ZM20.6178 8.56463C20.6178 7.05263 19.5398 5.98863 18.0558 5.98863C16.5718 5.98863 15.4938 7.05263 15.4938 8.56463C15.4938 10.0626 16.5718 11.1406 18.0558 11.1406C19.5398 11.1406 20.6178 10.0626 20.6178 8.56463ZM19.5258 8.56463C19.5258 9.46063 18.9238 10.0906 18.0558 10.0906C17.1878 10.0906 16.5858 9.46063 16.5858 8.56463C16.5858 7.65463 17.1878 7.02463 18.0558 7.02463C18.9378 7.02463 19.5258 7.65463 19.5258 8.56463Z" fill="#F0950C"/>
<path d="M0.982361 0.835938V2.09594H6.66636L2.78836 10.9579H4.21636L8.05236 2.09594V0.835938H0.982361Z" fill="#F0950C"/>
</svg>
