<svg width="11" height="11" viewBox="0 0 11 11" fill="none" xmlns="http://www.w3.org/2000/svg">
<path d="M10.0215 6.21992C10.0215 6.33038 9.93194 6.41992 9.82148 6.41992H2.41315L5.7634 9.77017C5.8415 9.84827 5.8415 9.97491 5.7634 10.053L5.16291 10.6535C5.0848 10.7316 4.95817 10.7316 4.88006 10.6535L0.162906 5.93634C0.0848008 5.85824 0.0848009 5.73161 0.162906 5.6535L4.88006 0.936343C4.95817 0.858239 5.0848 0.858239 5.16291 0.936343L5.7634 1.53683C5.8415 1.61494 5.8415 1.74157 5.7634 1.81968L2.41315 5.16992H9.82148C9.93194 5.16992 10.0215 5.25947 10.0215 5.36992V6.21992Z" fill="#4945FF"/>
</svg>
