<svg width="22" height="22" viewBox="0 0 22 22" fill="none" xmlns="http://www.w3.org/2000/svg">
<path fill-rule="evenodd" clip-rule="evenodd" d="M17.227 6.65506C17.4667 7.01378 17.4667 7.51314 17.4667 8.51187V17.5785H17.8222C18.1168 17.5785 18.3555 17.8173 18.3555 18.1119C18.3555 18.4064 18.1168 18.6452 17.8222 18.6452H3.59998C3.30543 18.6452 3.06665 18.4064 3.06665 18.1119C3.06665 17.8173 3.30543 17.5785 3.59998 17.5785H3.95554V8.51187C3.95554 7.51314 3.95554 7.01378 4.19523 6.65506C4.29899 6.49977 4.43232 6.36643 4.58762 6.26267C4.90138 6.05302 5.32274 6.02675 6.09174 6.02345C6.08882 6.23067 6.08884 6.44719 6.08887 6.67045L6.08887 6.73409V7.62298H5.37776C5.08321 7.62298 4.84443 7.86176 4.84443 8.15631C4.84443 8.45087 5.08321 8.68965 5.37776 8.68965H6.08887V9.75632H5.37776C5.08321 9.75632 4.84443 9.9951 4.84443 10.2896C4.84443 10.5842 5.08321 10.823 5.37776 10.823H6.08887V11.8896H5.37776C5.08321 11.8896 4.84443 12.1284 4.84443 12.423C4.84443 12.7175 5.08321 12.9563 5.37776 12.9563H6.08887V17.5785H7.15554V6.73409C7.15554 5.39321 7.15554 4.72277 7.5721 4.30621C7.98866 3.88965 8.6591 3.88965 9.99998 3.88965H11.4222C12.7631 3.88965 13.4335 3.88965 13.8501 4.30621C14.2667 4.72277 14.2667 5.39321 14.2667 6.73409V17.5785H15.3333V12.9563H16.0444C16.339 12.9563 16.5778 12.7175 16.5778 12.423C16.5778 12.1284 16.339 11.8896 16.0444 11.8896H15.3333V10.823H16.0444C16.339 10.823 16.5778 10.5842 16.5778 10.2896C16.5778 9.9951 16.339 9.75632 16.0444 9.75632H15.3333V8.68965H16.0444C16.339 8.68965 16.5778 8.45087 16.5778 8.15631C16.5778 7.86176 16.339 7.62298 16.0444 7.62298H15.3333V6.73409L15.3333 6.67046C15.3333 6.4472 15.3334 6.23067 15.3305 6.02345C16.0995 6.02675 16.5208 6.05302 16.8346 6.26267C16.9899 6.36643 17.1232 6.49977 17.227 6.65506ZM11.2444 15.9785C11.2444 15.684 11.0056 15.4452 10.7111 15.4452C10.4165 15.4452 10.1778 15.684 10.1778 15.9785V17.5785H11.2444V15.9785ZM8.75554 13.1341C8.75554 12.8395 8.99432 12.6008 9.28887 12.6008H12.1333C12.4279 12.6008 12.6667 12.8395 12.6667 13.1341C12.6667 13.4286 12.4279 13.6674 12.1333 13.6674H9.28887C8.99432 13.6674 8.75554 13.4286 8.75554 13.1341ZM9.28887 10.4674C8.99432 10.4674 8.75554 10.7062 8.75554 11.0008C8.75554 11.2953 8.99432 11.5341 9.28887 11.5341H12.1333C12.4279 11.5341 12.6667 11.2953 12.6667 11.0008C12.6667 10.7062 12.4279 10.4674 12.1333 10.4674H9.28887ZM8.93332 7.4452C8.93332 6.36518 9.80885 5.48965 10.8889 5.48965C11.9689 5.48965 12.8444 6.36518 12.8444 7.4452C12.8444 8.52523 11.9689 9.40076 10.8889 9.40076C9.80885 9.40076 8.93332 8.52523 8.93332 7.4452ZM9.99998 7.4452C9.99998 6.95428 10.398 6.55632 10.8889 6.55632C11.3798 6.55632 11.7778 6.95428 11.7778 7.4452C11.7778 7.93612 11.3798 8.33409 10.8889 8.33409C10.398 8.33409 9.99998 7.93612 9.99998 7.4452Z" fill="#413B89"/>
</svg>
