<svg width="30" height="28" viewBox="0 0 30 28" fill="none" xmlns="http://www.w3.org/2000/svg">
<path d="M11.803 7.92333C11.8022 7.36893 9.81766 5.49048 10.166 5.15857C11.0282 4.33708 13.1507 6.37174 13.5886 6.78917C13.8627 7.05015 14.1335 7.95617 14.3327 7.63984C14.8728 6.78188 11.9065 4.65052 12.3982 4.44958C13.7783 3.88612 16.3205 6.09329 17.0114 6.93083C17.0157 6.93617 17.8083 8.3187 17.8297 8.27789C18.4512 7.09335 12.8929 2.65133 17.0856 3.74082C20.4548 4.61625 22.9976 9.2161 21.4045 11.9481" stroke="#1A0118" stroke-opacity="0.4" stroke-width="2.4" stroke-linecap="round" stroke-linejoin="round"/>
<path d="M8.42323 10.748C6.40419 11.6844 8.49853 12.1869 8.99863 12.4963C9.45005 13.5101 8.99863 18.7601 15.3001 18.7601C20.4944 18.7601 21.3313 16.2596 21.3313 12.219C21.3313 11.9176 22.1141 12.3948 22.303 12.1495C22.7979 11.5069 22.3393 11.1609 21.7798 10.9013" stroke="#1A0118" stroke-opacity="0.4" stroke-width="2.4" stroke-linecap="round" stroke-linejoin="round"/>
<path d="M16.9499 16.2402C15.8001 16.8622 14.7021 16.9243 13.6499 16.2402" stroke="#1A0118" stroke-opacity="0.4" stroke-width="2.4" stroke-linecap="round" stroke-linejoin="round"/>
<path d="M13.9318 13.2307C14.0021 12.8005 13.8563 12.3898 13.7251 11.9707" stroke="#1A0118" stroke-opacity="0.4" stroke-width="2.4" stroke-linecap="round" stroke-linejoin="round"/>
<path d="M16.4279 13.2294C16.4102 12.8486 16.4772 12.4803 16.575 12.1094" stroke="#1A0118" stroke-opacity="0.4" stroke-width="2.4" stroke-linecap="round" stroke-linejoin="round"/>
<path d="M12.6096 12.7198C13.0928 12.5796 13.3615 12.3257 13.6803 11.9707" stroke="#1A0118" stroke-opacity="0.4" stroke-width="2.4" stroke-linecap="round" stroke-linejoin="round"/>
<path d="M16.6919 11.9707C17.2433 12.2748 17.7534 12.6013 18.231 12.9695" stroke="#1A0118" stroke-opacity="0.4" stroke-width="2.4" stroke-linecap="round" stroke-linejoin="round"/>
<path d="M6.48682 24.1963C6.88972 23.4628 9.63718 19.9588 12.5238 19.9588C13.1032 19.9588 12.8171 21.9868 15.4071 21.9868C16.9543 21.9868 17.6704 19.7773 18.2986 19.7773C20.182 19.7773 22.7233 21.9868 23.8879 24.1963" stroke="#1A0118" stroke-opacity="0.4" stroke-width="2.4" stroke-linecap="round" stroke-linejoin="round"/>
</svg>
