<svg width="14" height="14" viewBox="0 0 14 14" fill="none" xmlns="http://www.w3.org/2000/svg">
<path fill-rule="evenodd" clip-rule="evenodd" d="M4.76464 1.42577C4.87283 1.26349 5.05496 1.16602 5.25 1.16602H8.75C8.94504 1.16602 9.12717 1.26349 9.23536 1.42577L10.2289 2.91602H12.25C12.7141 2.91602 13.1592 3.10039 13.4874 3.42858C13.8156 3.75677 14 4.20189 14 4.66602V11.0827C14 11.5468 13.8156 11.9919 13.4874 12.3201C13.1592 12.6483 12.7141 12.8327 12.25 12.8327H1.75C1.28587 12.8327 0.840752 12.6483 0.512563 12.3201C0.184375 11.9919 0 11.5468 0 11.0827V4.66602C0 4.20189 0.184374 3.75677 0.512563 3.42858C0.840752 3.10039 1.28587 2.91602 1.75 2.91602H3.77114L4.76464 1.42577ZM5.56219 2.33268L4.5687 3.82292C4.46051 3.98521 4.27837 4.08268 4.08333 4.08268H1.75C1.59529 4.08268 1.44692 4.14414 1.33752 4.25354C1.22812 4.36293 1.16667 4.51131 1.16667 4.66602V11.0827C1.16667 11.2374 1.22812 11.3858 1.33752 11.4952C1.44692 11.6046 1.59529 11.666 1.75 11.666H12.25C12.4047 11.666 12.5531 11.6046 12.6625 11.4952C12.7719 11.3858 12.8333 11.2374 12.8333 11.0827V4.66602C12.8333 4.51131 12.7719 4.36293 12.6625 4.25354C12.5531 4.14414 12.4047 4.08268 12.25 4.08268H9.91667C9.72163 4.08268 9.53949 3.98521 9.4313 3.82292L8.43781 2.33268H5.56219Z" fill="white"/>
<path fill-rule="evenodd" clip-rule="evenodd" d="M6.99998 5.83268C6.03348 5.83268 5.24998 6.61618 5.24998 7.58268C5.24998 8.54918 6.03348 9.33268 6.99998 9.33268C7.96648 9.33268 8.74998 8.54918 8.74998 7.58268C8.74998 6.61618 7.96648 5.83268 6.99998 5.83268ZM4.08331 7.58268C4.08331 5.97185 5.38915 4.66602 6.99998 4.66602C8.61081 4.66602 9.91665 5.97185 9.91665 7.58268C9.91665 9.19351 8.61081 10.4993 6.99998 10.4993C5.38915 10.4993 4.08331 9.19351 4.08331 7.58268Z" fill="white"/>
</svg>
