<svg width="34" height="35" viewBox="0 0 34 35" fill="none" xmlns="http://www.w3.org/2000/svg">
<g clip-path="url(#clip0_203_8159)">
<path d="M30.25 8.54199H26.4167V12.1253H30.25V8.54199ZM30.25 19.292H26.4167V22.8753H30.25V19.292ZM11.0833 10.3337C10.3252 10.3337 9.58403 10.5438 8.95364 10.9376C8.32325 11.3313 7.83193 11.8909 7.54179 12.5457C7.25165 13.2005 7.17574 13.921 7.32365 14.6161C7.47156 15.3112 7.83665 15.9497 8.37275 16.4508C8.90885 16.9519 9.59189 17.2932 10.3355 17.4315C11.0791 17.5697 11.8498 17.4988 12.5503 17.2276C13.2507 16.9563 13.8494 16.4971 14.2706 15.9078C14.6918 15.3185 14.9167 14.6257 14.9167 13.917C14.9167 12.9666 14.5128 12.0552 13.7939 11.3832C13.075 10.7112 12.1 10.3337 11.0833 10.3337ZM16.8333 22.8753C16.8333 21.4498 16.2275 20.0826 15.1492 19.0746C14.0709 18.0666 12.6083 17.5003 11.0833 17.5003C9.55833 17.5003 8.0958 18.0666 7.01746 19.0746C5.93913 20.0826 5.33333 21.4498 5.33333 22.8753V24.667H16.8333V22.8753Z" stroke="#2CA9BC" stroke-width="5" stroke-linecap="round" stroke-linejoin="round"/>
</g>
<defs>
<clipPath id="clip0_203_8159">
<rect width="34" height="35" fill="white"/>
</clipPath>
</defs>
</svg>
