<svg width="60" height="60" viewBox="0 0 60 60" fill="none" xmlns="http://www.w3.org/2000/svg">
<g clip-path="url(#clip0_229_3225)">
<path d="M59 38H31V25C31 21.1 27.9 18 24 18H14C10.1 18 7 21.1 7 25V38H1C0.4 38 0 38.4 0 39V43V59C0 59.6 0.4 60 1 60H59C59.6 60 60 59.6 60 59V43V39C60 38.4 59.6 38 59 38ZM9 25C9 22.2 11.2 20 14 20H18V27H20V20H24C26.8 20 29 22.2 29 25V38H26V26H24V38H14V26H12V38H9V25ZM2 40H58V42H2V40ZM58 58H2V44H58V58Z" fill="#512E4E"/>
<path d="M20 30H18V32H20V30Z" fill="#512E4E"/>
<path d="M20 34H18V36H20V34Z" fill="#512E4E"/>
<path d="M18 16H20C22.8 16 25 13.8 25 11V8C25 5.2 22.8 3 20 3H18C15.2 3 13 5.2 13 8V11C13 13.8 15.2 16 18 16ZM20 14H18C16.3 14 15 12.7 15 11V9H23V11C23 12.7 21.7 14 20 14ZM18 5H20C21.3 5 22.4 5.8 22.8 7H15.1C15.6 5.8 16.7 5 18 5Z" fill="#512E4E"/>
<path d="M35 30H57C57.6 30 58 29.6 58 29V23V1C58 0.4 57.6 0 57 0H35C34.4 0 34 0.4 34 1V23V29C34 29.6 34.4 30 35 30ZM56 28H36V24H56V28ZM36 2H56V22H36V2Z" fill="#512E4E"/>
<path d="M47 5H45V7H42V9H45V11H42V13H45V15H42V17H45V19H47V17H50V15H47V13H50V11H47V9H50V7H47V5Z" fill="#512E4E"/>
<path d="M40 18H38V20H40V18Z" fill="#512E4E"/>
<path d="M40 4H38V6H40V4Z" fill="#512E4E"/>
<path d="M54 4H52V6H54V4Z" fill="#512E4E"/>
<path d="M54 19H52V21H54V19Z" fill="#512E4E"/>
<path d="M37 33H35V35H37V33Z" fill="#512E4E"/>
<path d="M41 33H39V35H41V33Z" fill="#512E4E"/>
<path d="M45 33H43V35H45V33Z" fill="#512E4E"/>
<path d="M49 33H47V35H49V33Z" fill="#512E4E"/>
<path d="M53 33H51V35H53V33Z" fill="#512E4E"/>
<path d="M57 33H55V35H57V33Z" fill="#512E4E"/>
<path d="M6 46H4V48H6V46Z" fill="#512E4E"/>
<path d="M56 46H54V48H56V46Z" fill="#512E4E"/>
</g>
<defs>
<clipPath id="clip0_229_3225">
<rect width="60" height="60" fill="white"/>
</clipPath>
</defs>
</svg>
