<svg width="14" height="16" viewBox="0 0 14 16" fill="none" xmlns="http://www.w3.org/2000/svg">
<g clip-path="url(#clip0_234_5696)">
<path d="M12.2766 10.0703C12.04 10.0703 11.823 10.3129 11.823 10.6284V12.7878C11.823 13.0062 11.6849 13.176 11.5074 13.176H2.00025C1.82274 13.176 1.68466 13.0062 1.68466 12.7878V10.6284C1.68466 10.3372 1.48742 10.0703 1.231 10.0703C0.974587 10.0703 0.777344 10.3129 0.777344 10.6284V12.7878C0.777344 13.6128 1.3099 14.2679 1.98053 14.2679H11.5074C12.178 14.2679 12.7106 13.6128 12.7106 12.7878V10.6284C12.7303 10.3129 12.5133 10.0703 12.2766 10.0703Z" fill="#64748B"/>
<path d="M6.43833 10.6517C6.51723 10.7487 6.63557 10.7973 6.75392 10.7973C6.87226 10.7973 6.97089 10.7487 7.06951 10.6517L9.89009 7.27905C10.0676 7.06068 10.0676 6.72099 9.90982 6.50262C9.7323 6.28425 9.45616 6.28425 9.27864 6.47836L7.20758 8.97749V1.81978C7.20758 1.52862 7.01034 1.26172 6.75392 1.26172C6.51723 1.26172 6.30026 1.50435 6.30026 1.81978V8.97749L4.2292 6.50262C4.05168 6.28425 3.77554 6.30851 3.59802 6.50262C3.4205 6.72099 3.44022 7.06068 3.59802 7.27905L6.43833 10.6517Z" fill="#64748B"/>
</g>
<defs>
<clipPath id="clip0_234_5696">
<rect width="12.6236" height="15.5286" fill="white" transform="translate(0.442139)"/>
</clipPath>
</defs>
</svg>
