<svg width="78" height="90" viewBox="0 0 78 90" fill="none" xmlns="http://www.w3.org/2000/svg">
<rect width="78" height="90" rx="20" fill="#F1D199" fill-opacity="0.31"/>
<rect width="22.7976" height="22.3138" transform="matrix(-0.811117 -0.584884 0.673175 -0.739483 33.8807 69.1934)" fill="#FFB200"/>
<path d="M32.3076 41.2069C32.3076 41.2069 33.797 42.5667 34.1703 42.2605C34.5436 41.9542 34.1418 39.6761 34.1418 39.6761C34.1418 39.6761 34.8188 39.5348 34.771 38.5951C34.7233 37.6554 34.7396 35.7419 34.7396 35.7419" fill="#CCF8FE"/>
<path fill-rule="evenodd" clip-rule="evenodd" d="M32.7962 51.533L38.5287 46.0561C38.5287 46.0561 47.3673 44.4481 49.1183 43.1698C50.8692 41.8915 56.1674 35.4385 56.1674 35.4385L63.5648 29.3651L58.1559 20.059L52.145 24.657C52.145 24.657 41.1986 23.7491 39.1379 24.4266C37.6384 24.9196 32.1938 30.5961 28.4704 34.222C27.0016 35.6535 26.331 37.5952 26.6439 39.5109L28.3302 49.85C28.3613 50.0399 28.5185 50.1939 28.7278 50.2393C28.9371 50.2848 29.1569 50.2128 29.2836 50.0572L30.2103 48.9168L30.1842 39.7535L40.9644 34.0177L40.9256 39.5008C40.9256 39.5008 29.4273 45.4377 31.09 51.1558C31.1833 51.4708 31.4617 51.7152 31.8167 51.7936C32.1717 51.8721 32.547 51.7722 32.7962 51.533Z" fill="#512E4E"/>
<path d="M37.6936 29.877C37.6936 29.877 28.444 35.6159 27.365 36.748C26.5579 37.5944 26.5699 38.6855 26.5699 38.6855" stroke="black" stroke-width="0.55"/>
<path d="M36.9713 27.0312C36.9713 27.0312 30.427 32.757 28.0676 34.9634C26.9854 35.975 26.827 36.877 26.827 36.877" stroke="black" stroke-width="0.55"/>
<path fill-rule="evenodd" clip-rule="evenodd" d="M34.443 25.0078L33.4225 51.2637L31.2194 54.6352L29.7993 51.0115L30.8151 24.9045C30.8309 24.4754 31.0379 24.0691 31.3902 23.7754C31.7426 23.4816 32.2115 23.3245 32.6932 23.3388C33.1746 23.3523 33.6297 23.536 33.958 23.8491C34.2863 24.1622 34.4608 24.5792 34.443 25.0078Z" fill="black"/>
<path d="M33.7361 44.7414L33.4961 50.9209L32.8574 51.5316C32.6077 51.7704 32.2324 51.8699 31.8775 51.7913C31.5226 51.7128 31.2442 51.4686 31.1505 51.1538C30.5036 48.9289 31.8502 46.6726 33.7361 44.7414Z" fill="white"/>
<path fill-rule="evenodd" clip-rule="evenodd" d="M33.4569 24.8875C33.4522 24.4658 33.0646 24.1282 32.591 24.1334C32.1174 24.1386 31.7373 24.4847 31.742 24.9064C31.7466 25.3281 32.1343 25.6657 32.6078 25.6605C33.0814 25.6553 33.4615 25.3092 33.4569 24.8875Z" fill="white"/>
<path opacity="0.2" fill-rule="evenodd" clip-rule="evenodd" d="M28.2956 49.6526C28.2956 49.6526 29.8164 48.2613 27.9357 47.4456L28.2956 49.6526Z" fill="black"/>
<path opacity="0.2" fill-rule="evenodd" clip-rule="evenodd" d="M33.3054 51.045C33.3054 51.045 32.1691 51.2797 32.3273 49.849C32.4856 48.4183 33.7649 48.2054 34.204 48.7176C34.4684 49.0404 34.5976 49.4356 34.5693 49.8348" fill="black"/>
<path d="M35.5022 62.3865C35.5022 62.3865 25.1064 61.2926 24.823 59.5169C24.5397 57.7411 33.9612 57.469 34.0468 56.6939C34.1325 55.9188 31.2194 54.6347 31.2194 54.6347" stroke="black" stroke-width="3.0096"/>
</svg>
