<svg width="78" height="90" viewBox="0 0 78 90" fill="none" xmlns="http://www.w3.org/2000/svg">
<rect width="78" height="90" rx="20" fill="#99B7F1" fill-opacity="0.31"/>
<path fill-rule="evenodd" clip-rule="evenodd" d="M36.1163 11H41.8837C47.3213 11 50.04 11 51.7293 12.6092C53.4186 14.2183 53.4186 16.8082 53.4186 21.988V63.8795H66.3953H67.8372C69.0316 63.8795 70 64.802 70 65.9398C70 67.0776 69.0316 68 67.8372 68H10.1628C8.96832 68 8 67.0776 8 65.9398C8 64.802 8.96832 63.8795 10.1628 63.8795H20.2558H24.5814V21.988C24.5814 16.8082 24.5814 14.2183 26.2707 12.6092C27.9599 11 30.6787 11 36.1163 11ZM39 17.1807C40.1944 17.1807 41.1628 18.1031 41.1628 19.241V22.6747H44.7674C45.9619 22.6747 46.9302 23.5971 46.9302 24.7349C46.9302 25.8728 45.9619 26.7952 44.7674 26.7952H41.1628V30.2289C41.1628 31.3667 40.1944 32.2892 39 32.2892C37.8056 32.2892 36.8372 31.3667 36.8372 30.2289V26.7952H33.2326C32.0381 26.7952 31.0698 25.8728 31.0698 24.7349C31.0698 23.5971 32.0381 22.6747 33.2326 22.6747H36.8372V19.241C36.8372 18.1031 37.8056 17.1807 39 17.1807ZM31.0698 38.4699C31.0698 37.3321 32.0381 36.4096 33.2326 36.4096H44.7674C45.9619 36.4096 46.9302 37.3321 46.9302 38.4699C46.9302 39.6077 45.9619 40.5301 44.7674 40.5301H33.2326C32.0381 40.5301 31.0698 39.6077 31.0698 38.4699ZM31.0698 46.7108C31.0698 45.573 32.0381 44.6506 33.2326 44.6506H44.7674C45.9619 44.6506 46.9302 45.573 46.9302 46.7108C46.9302 47.8486 45.9619 48.7711 44.7674 48.7711H33.2326C32.0381 48.7711 31.0698 47.8486 31.0698 46.7108ZM39 55.6386C40.1944 55.6386 41.1628 56.561 41.1628 57.6988V63.8795H36.8372V57.6988C36.8372 56.561 37.8056 55.6386 39 55.6386Z" fill="#512E4E"/>
<path opacity="0.5" d="M65.4232 21.452C66.3954 22.8446 66.3953 24.7833 66.3953 28.6605V63.859H67.8372C69.0316 63.859 70 64.786 70 65.9295C70 67.0732 69.0316 68 67.8372 68H10.1628C8.96832 68 8 67.0732 8 65.9295C8 64.786 8.96832 63.859 10.1628 63.859H11.6047V28.6605C11.6047 24.7833 11.6047 22.8446 12.5766 21.452C12.9974 20.8492 13.5381 20.3315 14.1679 19.9287C15.4402 19.1148 21.4832 19.0128 24.6016 19C24.5898 19.8044 24.5899 20.645 24.59 21.5118L24.59 21.7589V25.2097H17.3721C16.1776 25.2097 15.2093 26.1367 15.2093 27.2802C15.2093 28.4237 16.1776 29.3507 17.3721 29.3507H24.59V33.4916H17.3721C16.1776 33.4916 15.2093 34.4186 15.2093 35.5621C15.2093 36.7058 16.1776 37.6326 17.3721 37.6326H24.59V41.7736H17.3721C16.1776 41.7736 15.2093 42.7006 15.2093 43.8441C15.2093 44.9879 16.1776 45.9146 17.3721 45.9146H24.59V63.859H53.427V45.9146H60.6279C61.8223 45.9146 62.7907 44.9879 62.7907 43.8441C62.7907 42.7006 61.8223 41.7736 60.6279 41.7736H53.427V37.6326H60.6279C61.8223 37.6326 62.7907 36.7058 62.7907 35.5621C62.7907 34.4186 61.8223 33.4916 60.6279 33.4916H53.427V29.3507H60.6279C61.8223 29.3507 62.7907 28.4237 62.7907 27.2802C62.7907 26.1367 61.8223 25.2097 60.6279 25.2097H53.427V21.7589V21.5118C53.4273 20.6451 53.4273 19.8044 53.4154 19C56.5339 19.0128 62.5597 19.1148 63.832 19.9287C64.4618 20.3315 65.0025 20.8492 65.4232 21.452Z" fill="#512E4E"/>
</svg>
