<svg width="78" height="90" viewBox="0 0 78 90" fill="none" xmlns="http://www.w3.org/2000/svg">
<rect width="78" height="90" rx="20" fill="#E599F1" fill-opacity="0.31"/>
<path d="M42.1272 23H34.8728C34.2904 22.9998 33.7223 22.8254 33.2457 22.5006C32.7691 22.1759 32.4071 21.7165 32.2091 21.185L30.1688 15.685C30.0141 15.2698 29.9647 14.8246 30.0248 14.3869C30.0849 13.9493 30.2526 13.5322 30.5139 13.1707C30.7751 12.8093 31.1222 12.5142 31.5258 12.3104C31.9294 12.1067 32.3776 12.0002 32.8325 12H44.1675C44.6224 12.0002 45.0706 12.1067 45.4742 12.3104C45.8778 12.5142 46.2249 12.8093 46.4861 13.1707C46.7474 13.5322 46.9151 13.9493 46.9752 14.3869C47.0353 14.8246 46.9859 15.2698 46.8312 15.685L44.7909 21.185C44.5929 21.7165 44.2309 22.1759 43.7543 22.5006C43.2777 22.8254 42.7096 22.9998 42.1272 23Z" fill="#8575D2"/>
<path d="M59.5656 43.4704L53.0406 21.9719C52.6962 20.8278 51.9877 19.8236 51.0201 19.1082C50.0526 18.3928 48.8774 18.0042 47.6687 18H29.3313C28.1226 18.0042 26.9474 18.3928 25.9799 19.1082C25.0123 19.8236 24.3038 20.8278 23.9594 21.9719L17.4344 43.4704C16.4827 46.5683 15.9993 49.788 16 53.0253C15.9976 55.9925 16.9575 58.8824 18.739 61.2717C20.5206 63.6609 23.0302 65.4239 25.9 66.3022C29.9919 67.4797 34.2382 68.0507 38.5 67.9965C42.7618 68.0507 47.0081 67.4797 51.1 66.3022C53.9698 65.4239 56.4794 63.6609 58.261 61.2717C60.0425 58.8824 61.0024 55.9925 61 53.0253C61.0007 49.788 60.5173 46.5683 59.5656 43.4704Z" fill="#512E4E"/>
<path d="M40.0631 40.2H37.19C36.809 40.2 36.4436 40.0525 36.1742 39.79C35.9048 39.5274 35.7534 39.1713 35.7534 38.8C35.7534 38.4287 35.9048 38.0726 36.1742 37.81C36.4436 37.5475 36.809 37.4 37.19 37.4H44.3728C45.1348 37.4 45.8656 37.105 46.4044 36.5799C46.9432 36.0548 47.2459 35.3426 47.2459 34.6C47.2459 33.8574 46.9432 33.1452 46.4044 32.6201C45.8656 32.095 45.1348 31.8 44.3728 31.8H41.4997C41.4997 31.0574 41.197 30.3452 40.6581 29.8201C40.1193 29.295 39.3886 29 38.6266 29C37.8646 29 37.1338 29.295 36.595 29.8201C36.0562 30.3452 35.7534 31.0574 35.7534 31.8V31.94C34.0078 32.2854 32.4562 33.2507 31.3997 34.6483C30.3432 36.046 29.8574 37.7764 30.0364 39.5035C30.2154 41.2306 31.0465 42.8313 32.3685 43.9949C33.6904 45.1584 35.4087 45.8017 37.19 45.8H40.0631C40.4441 45.8 40.8095 45.9475 41.0789 46.21C41.3483 46.4726 41.4997 46.8287 41.4997 47.2C41.4997 47.5713 41.3483 47.9274 41.0789 48.19C40.8095 48.4525 40.4441 48.6 40.0631 48.6H32.8803C32.1183 48.6 31.3876 48.895 30.8487 49.4201C30.3099 49.9452 30.0072 50.6574 30.0072 51.4C30.0072 52.1426 30.3099 52.8548 30.8487 53.3799C31.3876 53.905 32.1183 54.2 32.8803 54.2H35.7534C35.7534 54.9426 36.0562 55.6548 36.595 56.1799C37.1338 56.705 37.8646 57 38.6266 57C39.3886 57 40.1193 56.705 40.6581 56.1799C41.197 55.6548 41.4997 54.9426 41.4997 54.2C43.4047 54.0143 45.1559 53.0988 46.3683 51.6548C47.5806 50.2107 48.1547 48.3565 47.9642 46.5C47.7737 44.6435 46.8342 42.9368 45.3525 41.7553C43.8707 40.5738 41.9681 40.0143 40.0631 40.2Z" fill="#8575D2"/>
</svg>
