<svg width="12" height="143" viewBox="0 0 12 143" fill="none" xmlns="http://www.w3.org/2000/svg">
<path d="M2.00989 139.56C2.00989 141.163 3.32605 142.227 5.34417 142.227C7.34975 142.227 8.67845 141.163 8.67845 139.572C8.67845 138.458 8.02663 137.556 7.01131 137.23C7.86368 136.892 8.34 136.178 8.34 135.251C8.34 133.824 7.13666 132.859 5.3567 132.859C3.55168 132.859 2.33579 133.824 2.33579 135.239C2.33579 136.153 2.79959 136.867 3.65196 137.23C2.64917 137.593 2.00989 138.47 2.00989 139.56ZM3.46393 135.314C3.46393 134.475 4.20349 133.924 5.33163 133.924C6.47231 133.924 7.18679 134.475 7.18679 135.339C7.18679 136.216 6.47231 136.779 5.33163 136.779C4.20349 136.779 3.46393 136.203 3.46393 135.314ZM3.21324 139.472C3.21324 138.47 4.04054 137.831 5.33163 137.831C6.63526 137.831 7.46256 138.47 7.46256 139.472C7.46256 140.486 6.62273 141.138 5.34417 141.138C4.05307 141.138 3.21324 140.486 3.21324 139.472Z" fill="#64748B"/>
<path d="M0.413574 3.41807C0.413574 1.93591 1.61616 0.734375 3.09962 0.734375H8.47171C9.95518 0.734375 11.1578 1.9359 11.1578 3.41807V117.028H0.413574V3.41807Z" fill="#817698"/>
</svg>
