<svg width="69" height="20" viewBox="0 0 69 20" fill="none" xmlns="http://www.w3.org/2000/svg">
<path d="M57.0501 0.46875H53.8412V18.7787H57.0501V14.8712L60.0836 10.9888L64.6212 18.7787H68.3315L62.1894 8.28366L68.2563 0.46875H64.4708L57.0501 10.0871V0.46875Z" fill="#1C2434"/>
<path d="M48.1224 13.3948C50.1781 10.6145 50.9051 9.01144 50.9051 6.80724C50.9051 3.05007 47.9469 0.144531 43.9858 0.144531C40.075 0.144531 37.1669 2.87474 37.1669 6.78219C37.1669 10.4893 39.724 13.1443 43.5095 13.1443C43.9608 13.1443 44.4371 13.0692 44.8884 12.9439L40.5012 18.7801H44.1613L48.1224 13.3948ZM47.621 6.78219C47.621 8.9864 46.1669 10.5143 43.9858 10.5143C41.88 10.5143 40.4009 8.9864 40.4009 6.78219C40.4009 4.55294 41.88 2.99998 43.9858 2.99998C46.1418 2.99998 47.621 4.55294 47.621 6.78219Z" fill="#1C2434"/>
<path d="M33.1914 19.0803C34.2945 19.0803 35.2221 18.1785 35.2221 17.1015C35.2221 15.9994 34.2945 15.0977 33.1914 15.0977C32.0883 15.0977 31.1608 15.9994 31.1608 17.1015C31.1608 18.1785 32.0883 19.0803 33.1914 19.0803Z" fill="#1C2434"/>
<path d="M22.3114 19.0792C26.3978 19.0792 29.1806 16.3741 29.1806 12.4165C29.1806 8.80966 26.7488 6.32993 23.0886 6.32993C21.8351 6.32993 20.7321 6.65555 19.8546 7.23165L20.8323 3.42439H28.0775V0.46875H18.5259L16.2696 10.062L19.1025 10.6632C19.7543 9.71138 21.0329 9.01004 22.4368 9.01004C24.6429 9.01004 25.9215 10.4628 25.9215 12.5919C25.9215 14.8211 24.5427 16.2238 22.3867 16.2238C20.356 16.2238 19.1276 14.9965 19.1276 12.9175H15.9437C15.9437 16.6246 18.4758 19.0792 22.3114 19.0792Z" fill="#1C2434"/>
<path d="M7.27934 19.0792C11.3657 19.0792 14.1485 16.3741 14.1485 12.4165C14.1485 8.80966 11.7167 6.32993 8.05651 6.32993C6.80302 6.32993 5.69995 6.65555 4.8225 7.23165L5.80023 3.42439H13.0454V0.46875H3.49381L1.23753 10.062L4.07041 10.6632C4.72223 9.71138 6.00078 9.01004 7.40469 9.01004C9.61083 9.01004 10.8894 10.4628 10.8894 12.5919C10.8894 14.8211 9.51055 16.2238 7.35455 16.2238C5.3239 16.2238 4.09548 14.9965 4.09548 12.9175H0.911621C0.911621 16.6246 3.44367 19.0792 7.27934 19.0792Z" fill="#1C2434"/>
</svg>
