<svg width="55" height="20" viewBox="0 0 55 20" fill="none" xmlns="http://www.w3.org/2000/svg">
<path d="M41.4938 4.92636C41.4938 2.12101 39.4882 0.117188 36.7055 0.117188C33.9228 0.117188 31.9172 2.12101 31.9172 4.92636C31.9172 7.75676 33.9228 9.73553 36.7055 9.73553C39.4882 9.73553 41.4938 7.75676 41.4938 4.92636ZM51.5468 0.492905H48.4883L34.5746 18.7778H37.6331L51.5468 0.492905ZM39.0621 4.92636C39.0621 6.37913 38.1094 7.38104 36.7055 7.38104C35.3267 7.38104 34.374 6.37913 34.374 4.92636C34.374 3.47359 35.3016 2.47168 36.7055 2.47168C38.1094 2.47168 39.0621 3.47359 39.0621 4.92636ZM54.2293 14.2942C54.2293 11.4889 52.2488 9.48506 49.466 9.48506C46.6582 9.48506 44.6777 11.4889 44.6777 14.2942C44.6777 17.0996 46.6582 19.1034 49.466 19.1034C52.2488 19.1034 54.2293 17.0996 54.2293 14.2942ZM51.7975 14.2942C51.7975 15.747 50.8449 16.7489 49.466 16.7489C48.0621 16.7489 47.1095 15.747 47.1095 14.2942C47.1095 12.8415 48.0621 11.8395 49.466 11.8395C50.8449 11.8395 51.7975 12.8415 51.7975 14.2942Z" fill="#1C2434"/>
<path d="M30.1251 15.297V12.4917H27.8939V0.46875H23.8577L15.5596 12.4917V15.297H24.8605V18.7787H27.8939V15.297H30.1251ZM18.9691 12.4917L24.8605 3.92534V12.4917H18.9691Z" fill="#1C2434"/>
<path d="M7.22112 19.0792C11.3075 19.0792 14.0902 16.3741 14.0902 12.4165C14.0902 8.80966 11.6585 6.32993 7.99828 6.32993C6.74479 6.32993 5.64172 6.65555 4.76428 7.23165L5.742 3.42439H12.9872V0.46875H3.43558L1.1793 10.062L4.01218 10.6632C4.664 9.71138 5.94256 9.01004 7.34646 9.01004C9.5526 9.01004 10.8312 10.4628 10.8312 12.5919C10.8312 14.8211 9.45232 16.2238 7.29632 16.2238C5.26567 16.2238 4.03725 14.9965 4.03725 12.9175H0.853394C0.853394 16.6246 3.38544 19.0792 7.22112 19.0792Z" fill="#1C2434"/>
</svg>
