<svg width="23" height="22" viewBox="0 0 23 22" fill="none" xmlns="http://www.w3.org/2000/svg">
<g clip-path="url(#clip0_224_49079)">
<path d="M20.9813 5.18435C20.2815 5.49391 19.5393 5.69721 18.7795 5.78752C19.5804 5.3085 20.1798 4.55462 20.4661 3.66636C19.7145 4.11369 18.8904 4.42719 18.0315 4.59677C17.4545 3.97947 16.6898 3.57007 15.8562 3.43222C15.0225 3.29438 14.1667 3.43581 13.4218 3.83452C12.6768 4.23324 12.0845 4.8669 11.7368 5.637C11.3891 6.4071 11.3056 7.27049 11.4993 8.09294C9.97497 8.01654 8.48376 7.62042 7.12247 6.9303C5.76118 6.24018 4.56024 5.27148 3.59762 4.08711C3.25689 4.67235 3.07783 5.33765 3.07879 6.01485C3.07879 7.34402 3.75529 8.51827 4.78379 9.20577C4.17513 9.18661 3.57987 9.02224 3.04762 8.72635V8.77402C3.04781 9.65925 3.35413 10.5172 3.91465 11.2023C4.47517 11.8875 5.2554 12.3577 6.12304 12.5333C5.55802 12.6864 4.96557 12.709 4.39054 12.5993C4.63517 13.3612 5.11196 14.0276 5.75417 14.5051C6.39637 14.9826 7.17182 15.2473 7.97196 15.2622C7.17673 15.8867 6.2662 16.3484 5.29243 16.6208C4.31866 16.8933 3.30074 16.9711 2.29688 16.8499C4.04926 17.9768 6.08921 18.5751 8.17271 18.5732C15.2246 18.5732 19.081 12.7313 19.081 7.66485C19.081 7.49985 19.0765 7.33302 19.0691 7.16985C19.8197 6.62734 20.4676 5.95529 20.9822 5.18527L20.9813 5.18435Z" fill="#512E4E"/>
</g>
<defs>
<clipPath id="clip0_224_49079">
<rect width="22" height="22" fill="white" transform="translate(0.666138)"/>
</clipPath>
</defs>
</svg>
