<svg width="1015" height="451" viewBox="0 0 1015 451" fill="none" xmlns="http://www.w3.org/2000/svg">
<mask id="mask0_203_7382" style="mask-type:luminance" maskUnits="userSpaceOnUse" x="0" y="0" width="1015" height="451">
<rect width="1014.37" height="450.408" fill="white"/>
</mask>
<g mask="url(#mask0_203_7382)">
<path fill-rule="evenodd" clip-rule="evenodd" d="M1015.15 450.408C1015.15 450.408 939.911 359.493 930.751 357.059C896.735 348.019 890.483 314.606 845.566 251.264C819.753 214.86 791.006 213.946 760.774 200.7C757.405 199.224 722.13 192.008 678.437 184.575C647.071 179.238 613.921 173.728 591.35 170.003C563.824 165.459 535.297 160.854 507.771 156.398C477.582 151.511 448.552 146.834 423.176 142.746C381.518 136.034 349.647 125.376 338.735 125.421C290.583 125.62 262.909 114.352 253.984 114.352C205.333 114.352 177.373 104.236 168.8 104.239C129.151 104.239 118.042 136.633 84.7926 155.581C62.449 168.315 0.000488281 196.81 0.000488281 196.81V450.408H1015.15Z" fill="#FFE5D3"/>
<path fill-rule="evenodd" clip-rule="evenodd" d="M0.000404358 450.408C0.000404358 450.408 69.4327 393.875 84.7925 390.12C97.8749 386.922 123.883 361.667 168.8 298.327C194.613 261.926 222.967 241.561 253.199 228.315C274.465 218.998 304.086 217.268 338.384 228.315C363.015 236.249 388.313 236.428 423.176 258.265C450.657 275.478 483.412 270.365 507.576 266.822C535.574 262.717 566.52 253.702 591.19 232.983C618.168 210.326 652.255 170.925 676.767 143.524C696.572 121.384 736.53 68.3173 760.382 63.0102C784.234 57.7031 830.411 73.8661 845.566 78.5683C864.215 84.3544 896.606 100.399 929.966 117.075C946.21 125.195 1015.15 171.139 1015.15 171.139V450.408H0.000404358Z" fill="#DAD7FE"/>
<path fill-rule="evenodd" clip-rule="evenodd" d="M0.000303816 450.408C0.000303816 450.408 23.002 377.631 84.7924 368.338C121.057 362.885 148.408 369.381 168.799 378.84C183.153 385.498 223.898 332.652 253.199 328.665C279.075 325.144 328.57 362.504 337.206 362.504C375.184 362.504 372.116 280.46 423.568 283.546C460.224 285.745 476.793 285.589 507.575 299.105C532.84 310.198 562.122 321.971 591.583 328.665C624.662 336.182 636.035 355.101 676.767 353.558C703.481 352.546 736.684 317.972 761.167 306.106C791.47 291.419 824.564 382.708 845.566 358.614C858.087 344.251 902.88 249.319 929.573 249.319C956.267 249.319 1001.16 223.808 1014.37 236.094L1015.15 450.408H0.000303816Z" fill="#FFF5CC"/>
</g>
</svg>
