<svg width="11" height="125" viewBox="0 0 11 125" fill="none" xmlns="http://www.w3.org/2000/svg">
<path d="M8.03134 124.061V122.921H3.84469L5.72492 121.293C7.32938 119.903 7.96866 118.988 7.96866 117.698C7.96866 115.958 6.80292 114.855 4.98536 114.855C3.14273 114.855 1.91431 116.12 1.87671 118.062H3.10513C3.1302 116.772 3.85722 115.958 4.97283 115.958C6.06336 115.958 6.71517 116.634 6.71517 117.774C6.71517 118.738 6.30152 119.352 4.83494 120.616L1.91431 123.134V124.073L8.03134 124.061Z" fill="#64748B"/>
<path d="M0.0181885 3.30869C0.0181885 1.82653 1.22077 0.625 2.70424 0.625H8.07633C9.55979 0.625 10.7624 1.82653 10.7624 3.30869V99.027H0.0181885V3.30869Z" fill="#817698"/>
</svg>
