<svg width="23" height="22" viewBox="0 0 23 22" fill="none" xmlns="http://www.w3.org/2000/svg">
<g clip-path="url(#clip0_224_49083)">
<path d="M6.69554 4.58425C6.69529 5.07048 6.50191 5.5367 6.15792 5.88034C5.81393 6.22399 5.34752 6.41691 4.86129 6.41667C4.37506 6.41642 3.90884 6.22304 3.56519 5.87905C3.22155 5.53506 3.02863 5.06865 3.02887 4.58242C3.02911 4.09619 3.2225 3.62997 3.56649 3.28632C3.91048 2.94268 4.37689 2.74976 4.86312 2.75C5.34935 2.75024 5.81557 2.94363 6.15921 3.28762C6.50286 3.63161 6.69578 4.09802 6.69554 4.58425ZM6.75054 7.77425H3.08387V19.2509H6.75054V7.77425ZM12.5439 7.77425H8.89554V19.2509H12.5072V13.2284C12.5072 9.87342 16.8797 9.56175 16.8797 13.2284V19.2509H20.5005V11.9817C20.5005 6.32592 14.0289 6.53675 12.5072 9.31425L12.5439 7.77425Z" fill="#64748B"/>
</g>
<defs>
<clipPath id="clip0_224_49083">
<rect width="22" height="22" fill="white" transform="translate(0.333862)"/>
</clipPath>
</defs>
</svg>
