<svg width="11" height="179" viewBox="0 0 11 179" fill="none" xmlns="http://www.w3.org/2000/svg">
<path d="M4.37439 173.39C5.8159 173.39 6.56799 174.117 6.56799 175.206C6.56799 176.371 5.80336 177.122 4.62509 177.122C3.48441 177.122 2.75739 176.434 2.75739 175.256H1.5415C1.5415 177.135 2.82006 178.225 4.60002 178.225C6.44264 178.225 7.82148 177.06 7.82148 175.231C7.82148 173.603 6.65574 172.564 5.11395 172.376L7.59585 170.009V169.02H1.96769V170.109H6.04153L3.47188 172.576V173.39H4.37439Z" fill="#64748B"/>
<path d="M0.250732 3.63291C0.250732 2.15075 1.45332 0.949219 2.93678 0.949219H8.30887C9.79233 0.949219 10.9949 2.15075 10.9949 3.63291V153.025H0.250732V3.63291Z" fill="#817698"/>
</svg>
