<svg width="64" height="20" viewBox="0 0 64 20" fill="none" xmlns="http://www.w3.org/2000/svg">
<path d="M52.5301 0.46875H49.3212V18.7787H52.5301V14.8712L55.5635 10.9888L60.1012 18.7787H63.8115L57.6694 8.28366L63.7363 0.46875H59.9507L52.5301 10.0871V0.46875Z" fill="#1C2434"/>
<path d="M35.4296 5.85402C33.3739 8.63433 32.6469 10.2374 32.6469 12.4416C32.6469 16.1988 35.6051 19.1043 39.5661 19.1043C43.477 19.1043 46.3851 16.3741 46.3851 12.4666C46.3851 8.75956 43.828 6.1045 40.0424 6.1045C39.5912 6.1045 39.1149 6.17964 38.6636 6.30488L43.0508 0.46875H39.3906L35.4296 5.85402ZM35.931 12.4666C35.931 10.2624 37.385 8.73452 39.5661 8.73452C41.672 8.73452 43.1511 10.2624 43.1511 12.4666C43.1511 14.6959 41.6469 16.2488 39.5661 16.2488C37.4101 16.2488 35.931 14.6959 35.931 12.4666Z" fill="#1C2434"/>
<path d="M28.8427 19.0803C29.9457 19.0803 30.8733 18.1785 30.8733 17.1015C30.8733 15.9994 29.9457 15.0977 28.8427 15.0977C27.7396 15.0977 26.812 15.9994 26.812 17.1015C26.812 18.1785 27.7396 19.0803 28.8427 19.0803Z" fill="#1C2434"/>
<path d="M10.347 13.5952C10.347 16.9265 13.0797 19.0807 17.3164 19.0807C21.5783 19.0807 24.3109 16.9015 24.3109 13.5952C24.3109 11.391 23.0574 9.61259 21.127 8.9363C22.7566 8.26001 23.6591 6.88238 23.6591 5.10399C23.6591 2.12331 21.127 0.144531 17.3666 0.144531C13.581 0.144531 10.9989 2.14835 10.9989 5.05389C10.9989 6.83229 11.8763 8.20992 13.4808 8.9363C11.5755 9.66269 10.347 11.416 10.347 13.5952ZM13.907 5.32942C13.907 3.82655 15.2357 2.87474 17.3164 2.87474C19.3722 2.87474 20.6758 3.82655 20.6758 5.35447C20.6758 6.88238 19.3722 7.8342 17.3164 7.8342C15.2357 7.8342 13.907 6.85734 13.907 5.32942ZM13.4808 13.3698C13.4808 11.5914 14.9599 10.4893 17.3164 10.4893C19.673 10.4893 21.1521 11.5914 21.1521 13.3698C21.1521 15.1481 19.673 16.2502 17.3415 16.2502C14.9599 16.2502 13.4808 15.1481 13.4808 13.3698Z" fill="#1C2434"/>
<path d="M4.34026 3.34924V18.7787H7.42385V0.46875H0.329102V3.34924H4.34026Z" fill="#1C2434"/>
</svg>
