<svg width="23" height="22" viewBox="0 0 23 22" fill="none" xmlns="http://www.w3.org/2000/svg">
<g clip-path="url(#clip0_224_49091)">
<path d="M11.6661 1.83398C6.60154 1.83398 2.49945 5.93607 2.49945 11.0007C2.49841 12.925 3.10336 14.8008 4.22848 16.3619C5.3536 17.9231 6.94175 19.0903 8.76762 19.698C9.22595 19.7777 9.39737 19.5027 9.39737 19.2617C9.39737 19.0444 9.38545 18.323 9.38545 17.5548C7.08279 17.9792 6.48695 16.9938 6.30362 16.4777C6.20004 16.2137 5.75362 15.4007 5.36404 15.1825C5.0432 15.0111 4.58487 14.5866 5.35212 14.5757C6.07445 14.5637 6.58962 15.2402 6.76195 15.5152C7.58695 16.9012 8.90512 16.5117 9.43129 16.2715C9.51195 15.6757 9.75212 15.2751 10.0161 15.0459C7.97654 14.8167 5.84529 14.0257 5.84529 10.5194C5.84529 9.52207 6.20004 8.69798 6.78487 8.0554C6.6932 7.82623 6.37237 6.88665 6.87654 5.62623C6.87654 5.62623 7.64379 5.38607 9.39737 6.56673C10.1436 6.35962 10.9146 6.25538 11.689 6.2569C12.4682 6.2569 13.2474 6.35957 13.9807 6.56582C15.7334 5.37415 16.5015 5.62715 16.5015 5.62715C17.0057 6.88757 16.6849 7.82715 16.5932 8.05632C17.1771 8.69798 17.5328 9.51107 17.5328 10.5194C17.5328 14.0376 15.3905 14.8167 13.351 15.0459C13.6828 15.3319 13.9697 15.8819 13.9697 16.7417C13.9697 17.9673 13.9578 18.9527 13.9578 19.2626C13.9578 19.5027 14.1301 19.7887 14.5885 19.6971C16.4081 19.0827 17.9892 17.9132 19.1094 16.3532C20.2295 14.7932 20.8323 12.9212 20.8328 11.0007C20.8328 5.93607 16.7307 1.83398 11.6661 1.83398Z" fill="#64748B"/>
</g>
<defs>
<clipPath id="clip0_224_49091">
<rect width="22" height="22" fill="white" transform="translate(0.666138)"/>
</clipPath>
</defs>
</svg>
