<svg width="12" height="89" viewBox="0 0 12 89" fill="none" xmlns="http://www.w3.org/2000/svg">
<path d="M7.63052 85.2051C8.5581 83.9402 8.88401 83.1762 8.88401 82.1117C8.88401 80.2707 7.42996 78.8555 5.54973 78.8555C3.68203 78.8555 2.25305 80.2206 2.25305 82.0992C2.25305 83.9026 3.51908 85.2552 5.39931 85.2552C5.71268 85.2552 6.03859 85.1926 6.35196 85.0673L4.08314 88.0731H5.51212L7.63052 85.2051ZM7.63052 82.0992C7.63052 83.339 6.77815 84.2157 5.54973 84.2157C4.34638 84.2157 3.49401 83.339 3.49401 82.0992C3.49401 80.8593 4.34638 79.9576 5.54973 79.9576C6.77815 79.9576 7.63052 80.8593 7.63052 82.0992Z" fill="#64748B"/>
<path d="M0.646118 3.08994C0.646118 1.60778 1.8487 0.40625 3.33216 0.40625H8.70426C10.1877 0.40625 11.3903 1.60778 11.3903 3.08994V63.0257H0.646118V3.08994Z" fill="#817698"/>
</svg>
