<svg width="22" height="22" viewBox="0 0 22 22" fill="none" xmlns="http://www.w3.org/2000/svg">
<g clip-path="url(#clip0_224_49087)">
<path d="M18.3232 10.6083C18.2481 9.16541 17.7462 7.77729 16.8813 6.6199C16.6178 6.90373 16.3361 7.17013 16.038 7.4174C15.1222 8.17809 14.0988 8.79899 13.0011 9.2599C13.1542 9.58074 13.2944 9.89149 13.4181 10.1848V10.1876C13.4531 10.2695 13.4867 10.352 13.519 10.4351C14.9068 10.2792 16.3698 10.3361 17.7879 10.5277C17.9767 10.5533 18.1546 10.5808 18.3232 10.6083ZM9.72032 3.77915C10.6136 5.03789 11.4374 6.34457 12.188 7.69332C13.3091 7.25149 14.2358 6.69415 14.982 6.07357C15.241 5.86011 15.4848 5.62885 15.7117 5.38149C14.3925 4.27206 12.7236 3.66487 11 3.66732C10.571 3.66703 10.1428 3.70414 9.72032 3.77823V3.77915ZM3.89856 9.16457C4.52302 9.14881 5.14674 9.1112 5.76856 9.05182C7.27157 8.91738 8.76174 8.66545 10.2254 8.29832C9.46045 6.96935 8.63457 5.67639 7.7504 4.42357C6.80597 4.89143 5.97322 5.55694 5.30862 6.37496C4.64402 7.19297 4.16313 8.14435 3.89856 9.16457ZM5.30106 15.6161C5.65673 15.0963 6.12423 14.5115 6.74481 13.8753C8.07765 12.5095 9.65065 11.4462 11.4711 10.8595L11.528 10.843C11.3767 10.5093 11.2346 10.2114 11.0917 9.9309C9.40865 10.4213 7.63582 10.7275 5.8694 10.8861C5.00773 10.964 4.23498 10.9979 3.66665 11.0034C3.66502 12.6833 4.24258 14.3124 5.30198 15.6161H5.30106ZM13.7546 17.7977C13.4011 16.0151 12.9007 14.2647 12.2586 12.5645C10.4234 13.2309 8.96132 14.2053 7.83107 15.3677C7.37494 15.8282 6.97015 16.3368 6.62381 16.8847C7.88772 17.8278 9.42302 18.3362 11 18.334C11.9441 18.3353 12.8795 18.1539 13.7546 17.7996V17.7977ZM15.4715 16.8123C16.9026 15.7121 17.8776 14.1226 18.2096 12.3482C17.8979 12.2702 17.5028 12.1923 17.0683 12.1318C16.1023 11.9927 15.122 11.9825 14.1533 12.1016C14.6988 13.6405 15.1392 15.2147 15.4715 16.8132V16.8123ZM11 20.1673C5.93723 20.1673 1.83331 16.0634 1.83331 11.0007C1.83331 5.9379 5.93723 1.83398 11 1.83398C16.0627 1.83398 20.1667 5.9379 20.1667 11.0007C20.1667 16.0634 16.0627 20.1673 11 20.1673Z" fill="#64748B"/>
</g>
<defs>
<clipPath id="clip0_224_49087">
<rect width="22" height="22" fill="white"/>
</clipPath>
</defs>
</svg>
