<svg width="12" height="134" viewBox="0 0 12 134" fill="none" xmlns="http://www.w3.org/2000/svg">
<path d="M5.59757 133.225C7.55302 133.225 8.89425 131.91 8.89425 130.031C8.89425 128.29 7.70343 127 5.86081 127C5.18392 127 4.58225 127.188 4.10592 127.551L4.7076 125.147H8.35525V124.02H3.81762L2.71455 128.666L3.75495 128.929C4.1686 128.415 4.87055 128.052 5.63518 128.052C6.9012 128.052 7.64076 128.916 7.64076 130.081C7.64076 131.308 6.85106 132.122 5.62264 132.122C4.46943 132.122 3.75495 131.409 3.75495 130.244H2.53906C2.53906 132.047 3.74241 133.225 5.59757 133.225Z" fill="#64748B"/>
<path d="M0.715942 3.36338C0.715942 1.88121 1.91853 0.679688 3.40199 0.679688H8.77408C10.2575 0.679688 11.4601 1.88122 11.4601 3.36338V108.027H0.715942V3.36338Z" fill="#817698"/>
</svg>
