<svg width="12" height="54" viewBox="0 0 12 54" fill="none" xmlns="http://www.w3.org/2000/svg">
<path d="M3.80879 46.8836C2.8812 48.1485 2.5553 48.8999 2.5553 49.977C2.5553 51.8055 4.00934 53.2207 5.88958 53.2207C7.75728 53.2207 9.18625 51.8681 9.18625 49.977C9.18625 48.1861 7.92023 46.8335 6.04 46.8335C5.72662 46.8335 5.40072 46.8961 5.08734 47.0214L7.35616 44.0156H5.92718L3.80879 46.8836ZM3.80879 49.9895C3.80879 48.7497 4.66116 47.873 5.88958 47.873C7.09293 47.873 7.9453 48.7497 7.9453 49.9895C7.9453 51.2294 7.09293 52.1186 5.88958 52.1186C4.66116 52.1186 3.80879 51.2294 3.80879 49.9895Z" fill="#64748B"/>
<path d="M0.948486 2.97666C0.948486 1.4945 2.15107 0.292969 3.63453 0.292969H9.00663C10.4901 0.292969 11.6927 1.4945 11.6927 2.97666V28.0244H0.948486V2.97666Z" fill="#817698"/>
</svg>
