<svg width="30" height="31" viewBox="0 0 30 31" fill="none" xmlns="http://www.w3.org/2000/svg">
<path d="M23.1188 12.8357L15.6188 6.05444C15.4477 5.89913 15.2277 5.81348 15 5.81348C14.7723 5.81348 14.5523 5.89913 14.3813 6.05444L6.88125 12.8357L5.00625 14.7732C4.85266 14.9585 4.77241 15.1969 4.78152 15.4407C4.79064 15.6845 4.88845 15.9158 5.05541 16.0883C5.22237 16.2609 5.44619 16.3619 5.68214 16.3713C5.91808 16.3808 6.14878 16.2978 6.32813 16.1391L6.5625 15.8969V25.1873C6.5625 25.4442 6.66127 25.6906 6.83709 25.8723C7.0129 26.0539 7.25136 26.156 7.5 26.156H22.5C22.7486 26.156 22.9871 26.0539 23.1629 25.8723C23.3387 25.6906 23.4375 25.4442 23.4375 25.1873V15.8969L23.7094 16.1779C23.8887 16.3366 24.1194 16.4195 24.3554 16.4101C24.5913 16.4007 24.8151 16.2996 24.9821 16.1271C25.1491 15.9545 25.2469 15.7233 25.256 15.4795C25.2651 15.2356 25.1848 14.9973 25.0313 14.8119L23.1188 12.8357ZM21.5625 24.2185H8.4375V13.9982L15 8.05975L21.5625 13.9885V24.2185ZM15 14.531C15.2486 14.531 15.4871 14.6331 15.6629 14.8147C15.8387 14.9964 15.9375 15.2428 15.9375 15.4998V17.4373H17.8125C18.0611 17.4373 18.2996 17.5393 18.4754 17.721C18.6512 17.9027 18.75 18.1491 18.75 18.406C18.75 18.6629 18.6512 18.9093 18.4754 19.091C18.2996 19.2727 18.0611 19.3748 17.8125 19.3748H15.9375V21.3123C15.9375 21.5692 15.8387 21.8156 15.6629 21.9973C15.4871 22.1789 15.2486 22.281 15 22.281C14.7514 22.281 14.5129 22.1789 14.3371 21.9973C14.1613 21.8156 14.0625 21.5692 14.0625 21.3123V19.3748H12.1875C11.9389 19.3748 11.7004 19.2727 11.5246 19.091C11.3488 18.9093 11.25 18.6629 11.25 18.406C11.25 18.1491 11.3488 17.9027 11.5246 17.721C11.7004 17.5393 11.9389 17.4373 12.1875 17.4373H14.0625V15.4998C14.0625 15.2428 14.1613 14.9964 14.3371 14.8147C14.5129 14.6331 14.7514 14.531 15 14.531Z" fill="#8575D2"/>
</svg>
