<svg width="72" height="62" viewBox="0 0 72 62" fill="none" xmlns="http://www.w3.org/2000/svg">
<path fill-rule="evenodd" clip-rule="evenodd" d="M32.25 5.16602H38.25C43.9068 5.16602 46.7352 5.16602 48.4926 6.67931C50.25 8.19257 50.25 10.6282 50.25 15.4993V54.8952H63.75H65.25C66.4926 54.8952 67.5 55.7627 67.5 56.8327C67.5 57.9027 66.4926 58.7702 65.25 58.7702H5.25C4.00737 58.7702 3 57.9027 3 56.8327C3 55.7627 4.00737 54.8952 5.25 54.8952H15.75H20.25V15.4993C20.25 10.6282 20.25 8.19257 22.0074 6.67931C23.7647 5.16602 26.5931 5.16602 32.25 5.16602ZM35.25 10.9785C36.4926 10.9785 37.5 11.846 37.5 12.916V16.1452H41.25C42.4926 16.1452 43.5 17.0126 43.5 18.0827C43.5 19.1527 42.4926 20.0202 41.25 20.0202H37.5V23.2493C37.5 24.3194 36.4926 25.1868 35.25 25.1868C34.0074 25.1868 33 24.3194 33 23.2493V20.0202H29.25C28.0074 20.0202 27 19.1527 27 18.0827C27 17.0126 28.0074 16.1452 29.25 16.1452H33V12.916C33 11.846 34.0074 10.9785 35.25 10.9785ZM27 30.9994C27 29.9293 28.0074 29.0618 29.25 29.0618H41.25C42.4926 29.0618 43.5 29.9293 43.5 30.9994C43.5 32.0694 42.4926 32.9369 41.25 32.9369H29.25C28.0074 32.9369 27 32.0694 27 30.9994ZM27 38.7494C27 37.6793 28.0074 36.8119 29.25 36.8119H41.25C42.4926 36.8119 43.5 37.6793 43.5 38.7494C43.5 39.8194 42.4926 40.6869 41.25 40.6869H29.25C28.0074 40.6869 27 39.8194 27 38.7494ZM35.25 47.1452C36.4926 47.1452 37.5 48.0127 37.5 49.0827V54.8952H33V49.0827C33 48.0127 34.0074 47.1452 35.25 47.1452Z" fill="#512E4E"/>
<path opacity="0.5" d="M62.7387 15.2125C63.75 16.5156 63.75 18.3297 63.75 21.9579V54.8953H65.25C66.4926 54.8953 67.5 55.7628 67.5 56.8328C67.5 57.9031 66.4926 58.7703 65.25 58.7703H5.25C4.00737 58.7703 3 57.9031 3 56.8328C3 55.7628 4.00737 54.8953 5.25 54.8953H6.75V21.9579C6.75 18.3297 6.75 16.5156 7.76118 15.2125C8.19894 14.6483 8.76144 14.164 9.41658 13.787C10.7402 13.0254 17.0268 12.9299 20.2711 12.918C20.2587 13.6707 20.2588 14.4573 20.2589 15.2684L20.259 15.4996V18.7288H12.75C11.5074 18.7288 10.5 19.5962 10.5 20.6663C10.5 21.7363 11.5074 22.6038 12.75 22.6038H20.259V26.4786H12.75C11.5074 26.4786 10.5 27.3461 10.5 28.4161C10.5 29.4864 11.5074 30.3536 12.75 30.3536H20.259V34.2286H12.75C11.5074 34.2286 10.5 35.0961 10.5 36.1661C10.5 37.2364 11.5074 38.1036 12.75 38.1036H20.259V54.8953H50.2587V38.1036H57.75C58.9926 38.1036 60 37.2364 60 36.1661C60 35.0961 58.9926 34.2286 57.75 34.2286H50.2587V30.3536H57.75C58.9926 30.3536 60 29.4864 60 28.4161C60 27.3461 58.9926 26.4786 57.75 26.4786H50.2587V22.6038H57.75C58.9926 22.6038 60 21.7363 60 20.6663C60 19.5962 58.9926 18.7288 57.75 18.7288H50.2587V15.4996V15.2684C50.259 14.4574 50.259 13.6707 50.2467 12.918C53.4909 12.9299 59.7597 13.0254 61.0833 13.787C61.7385 14.164 62.301 14.6483 62.7387 15.2125Z" fill="#512E4E"/>
</svg>
