<svg width="30" height="31" viewBox="0 0 30 31" fill="none" xmlns="http://www.w3.org/2000/svg">
<path d="M23.1187 12.8362L15.6187 6.05493C15.4476 5.89962 15.2277 5.81396 14.9999 5.81396C14.7722 5.81396 14.5523 5.89962 14.3812 6.05493L6.88119 12.8362L5.00619 14.7737C4.8526 14.959 4.77235 15.1974 4.78146 15.4412C4.79057 15.685 4.88839 15.9163 5.05535 16.0888C5.22231 16.2613 5.44613 16.3624 5.68208 16.3718C5.91802 16.3813 6.14872 16.2983 6.32807 16.1396L6.56244 15.8974V25.1877C6.56244 25.4447 6.66121 25.6911 6.83703 25.8727C7.01284 26.0544 7.2513 26.1565 7.49994 26.1565H22.4999C22.7486 26.1565 22.987 26.0544 23.1629 25.8727C23.3387 25.6911 23.4374 25.4447 23.4374 25.1877V15.8974L23.7093 16.1784C23.8887 16.3371 24.1194 16.42 24.3553 16.4106C24.5912 16.4012 24.8151 16.3001 24.982 16.1276C25.149 15.955 25.2468 15.7238 25.2559 15.4799C25.265 15.2361 25.1848 14.9977 25.0312 14.8124L23.1187 12.8362ZM21.5624 24.219H8.43744V13.9987L14.9999 8.06024L21.5624 13.989V24.219ZM14.9999 14.5315C15.2486 14.5315 15.487 14.6336 15.6629 14.8152C15.8387 14.9969 15.9374 15.2433 15.9374 15.5002V17.4377H17.8124C18.0611 17.4377 18.2995 17.5398 18.4754 17.7215C18.6512 17.9032 18.7499 18.1496 18.7499 18.4065C18.7499 18.6634 18.6512 18.9098 18.4754 19.0915C18.2995 19.2732 18.0611 19.3752 17.8124 19.3752H15.9374V21.3127C15.9374 21.5697 15.8387 21.8161 15.6629 21.9977C15.487 22.1794 15.2486 22.2815 14.9999 22.2815C14.7513 22.2815 14.5128 22.1794 14.337 21.9977C14.1612 21.8161 14.0624 21.5697 14.0624 21.3127V19.3752H12.1874C11.9388 19.3752 11.7003 19.2732 11.5245 19.0915C11.3487 18.9098 11.2499 18.6634 11.2499 18.4065C11.2499 18.1496 11.3487 17.9032 11.5245 17.7215C11.7003 17.5398 11.9388 17.4377 12.1874 17.4377H14.0624V15.5002C14.0624 15.2433 14.1612 14.9969 14.337 14.8152C14.5128 14.6336 14.7513 14.5315 14.9999 14.5315Z" fill="white" fill-opacity="0.82"/>
</svg>
