<svg width="12" height="13" viewBox="0 0 12 13" fill="none" xmlns="http://www.w3.org/2000/svg">
<path fill-rule="evenodd" clip-rule="evenodd" d="M1.34029 5.096C1.04029 5.234 0.28309 5.6864 0.18709 5.7476C0.129387 5.7834 0.0818608 5.83344 0.0490778 5.89291C0.0162948 5.95239 -0.00064363 6.01929 -0.000109833 6.0872V6.9128C-0.000530141 6.98172 0.0169399 7.04958 0.0505932 7.10974C0.0842465 7.16989 0.132931 7.22029 0.19189 7.256C0.319089 7.3364 1.05709 7.7768 1.34509 7.9076L1.71709 8.80759C1.59709 9.12439 1.38229 9.97399 1.35709 10.0844C1.34196 10.1505 1.34394 10.2193 1.36283 10.2844C1.38173 10.3495 1.41693 10.4087 1.46509 10.4564L2.04829 11.0396C2.09612 11.0876 2.15532 11.1226 2.22037 11.1415C2.28543 11.1604 2.35421 11.1625 2.42029 11.1476L2.43545 11.1437C2.61582 11.0975 3.40856 10.8946 3.69709 10.7876L4.59709 11.1596C4.73509 11.4596 5.18748 12.2168 5.24868 12.3128C5.28491 12.3701 5.33504 12.4173 5.39442 12.45C5.4538 12.4828 5.52049 12.5 5.58828 12.5H6.41268C6.48161 12.5004 6.54947 12.4829 6.60962 12.4493C6.66978 12.4156 6.72017 12.367 6.75588 12.308C6.83628 12.1808 7.27668 11.4428 7.40748 11.1548L8.30748 10.7828C8.62428 10.9028 9.47388 11.1176 9.58428 11.1428C9.65035 11.1579 9.71919 11.1559 9.78429 11.137C9.84939 11.1181 9.90858 11.083 9.95628 11.0348L10.5395 10.4516C10.5875 10.4038 10.6225 10.3446 10.6414 10.2795C10.6603 10.2145 10.6624 10.1457 10.6475 10.0796L10.6436 10.0644C10.5974 9.88406 10.3945 9.09132 10.2875 8.80279L10.6595 7.90279C10.9595 7.76479 11.7167 7.3124 11.8127 7.2512C11.87 7.21497 11.9172 7.16484 11.9499 7.10546C11.9827 7.04608 11.9998 6.97939 11.9999 6.9116V6.0872C11.9998 6.01899 11.9822 5.95195 11.9488 5.89249C11.9154 5.83303 11.8673 5.78314 11.8091 5.7476C11.6819 5.6672 10.9439 5.2268 10.6559 5.096L10.2839 4.196C10.4039 3.8792 10.6187 3.0296 10.6439 2.9192C10.659 2.85313 10.657 2.78428 10.6381 2.71919C10.6192 2.65409 10.584 2.5949 10.5359 2.5472L9.95268 1.9604C9.90485 1.91243 9.84565 1.87736 9.78059 1.85847C9.71554 1.83959 9.64676 1.8375 9.58068 1.8524L9.56554 1.85627C9.38521 1.90243 8.59242 2.10536 8.30388 2.2124L7.40388 1.8404C7.26588 1.5404 6.81348 0.7832 6.75228 0.6872C6.71606 0.629891 6.66592 0.582675 6.60655 0.549945C6.54717 0.517215 6.48048 0.500034 6.41268 0.5H5.58708C5.51888 0.500075 5.45184 0.517658 5.39238 0.551066C5.33291 0.584474 5.28302 0.632587 5.24748 0.6908C5.16708 0.818 4.72669 1.556 4.59589 1.844L3.69589 2.216C3.37909 2.096 2.52949 1.8812 2.41909 1.856C2.35302 1.84087 2.28417 1.84285 2.21908 1.86174C2.15398 1.88064 2.09479 1.91584 2.04709 1.964L1.46029 2.5472C1.41232 2.59503 1.37725 2.65423 1.35836 2.71929C1.33948 2.78434 1.33739 2.85312 1.35229 2.9192C1.35342 2.92362 1.35472 2.92868 1.35617 2.93435C1.40233 3.11471 1.60525 3.90746 1.71229 4.196L1.34029 5.096ZM5.99988 9C7.38059 9 8.49988 7.88071 8.49988 6.5C8.49988 5.11929 7.38059 4 5.99988 4C4.61917 4 3.49988 5.11929 3.49988 6.5C3.49988 7.88071 4.61917 9 5.99988 9Z" fill="#8E8EA9"/>
</svg>
