<svg width="17" height="16" viewBox="0 0 17 16" fill="none" xmlns="http://www.w3.org/2000/svg">
<path d="M14.6001 4.11366C14.3267 3.96699 13.7534 3.81366 12.9734 4.36033L11.9934 5.05366C11.9201 2.98033 11.0201 2.16699 8.83342 2.16699H4.83341C2.55341 2.16699 1.66675 3.05366 1.66675 5.33366V10.667C1.66675 12.2003 2.50008 13.8337 4.83341 13.8337H8.83342C11.0201 13.8337 11.9201 13.0203 11.9934 10.947L12.9734 11.6403C13.3867 11.9337 13.7467 12.027 14.0334 12.027C14.2801 12.027 14.4734 11.9537 14.6001 11.887C14.8734 11.747 15.3334 11.367 15.3334 10.4137V5.58699C15.3334 4.63366 14.8734 4.25366 14.6001 4.11366ZM7.83342 7.58699C7.14675 7.58699 6.58008 7.02699 6.58008 6.33366C6.58008 5.64033 7.14675 5.08033 7.83342 5.08033C8.52008 5.08033 9.08675 5.64033 9.08675 6.33366C9.08675 7.02699 8.52008 7.58699 7.83342 7.58699Z" fill="white"/>
</svg>
