<svg width="16" height="16" viewBox="0 0 16 16" fill="none" xmlns="http://www.w3.org/2000/svg">
<path opacity="0" d="M0.333333 15.6667V0.333333H15.6667V15.6667H0.333333Z" stroke="#2075D9" stroke-width="0.666667"/>
<path d="M4.05507 4.35879L4.0551 4.35904L4.06802 4.35743C4.20944 4.33975 4.36119 4.33333 4.52668 4.33333H8.79334C9.80503 4.33333 10.5037 4.5868 10.9518 5.03487C11.3999 5.48294 11.6533 6.18165 11.6533 7.19333V9.86C11.6533 10.0255 11.6469 10.1772 11.6293 10.3187L11.629 10.3186L11.6279 10.3317C11.5564 11.1713 11.2789 11.7517 10.836 12.1275C10.3887 12.5071 9.72336 12.72 8.79334 12.72H8.52668C8.25509 12.72 7.9963 12.8494 7.83334 13.0667L7.03334 14.1333L7.03289 14.1339C6.90911 14.2998 6.77077 14.355 6.66001 14.355C6.54925 14.355 6.41091 14.2998 6.28713 14.1339L6.28668 14.1333L5.48668 13.0667L5.48669 13.0667L5.4848 13.0642C5.40253 12.9566 5.28755 12.8746 5.17953 12.82C5.07172 12.7655 4.93454 12.72 4.79334 12.72H4.52668C3.46881 12.72 2.78417 12.5832 2.35176 12.2056C1.93056 11.8378 1.66668 11.1647 1.66668 9.86V7.19333C1.66668 6.26387 1.88098 5.59845 2.26147 5.15091C2.63831 4.70765 3.21904 4.43027 4.05507 4.35879ZM3.33334 8.66667C3.33334 9.21525 3.77374 9.66667 4.33334 9.66667C4.88411 9.66667 5.33334 9.21743 5.33334 8.66667C5.33334 8.11591 4.88411 7.66667 4.33334 7.66667C3.78258 7.66667 3.33334 8.11591 3.33334 8.66667ZM5.66001 8.66667C5.66001 9.21525 6.10041 9.66667 6.66001 9.66667C7.21961 9.66667 7.66001 9.21525 7.66001 8.66667C7.66001 8.11591 7.21077 7.66667 6.66001 7.66667C6.10925 7.66667 5.66001 8.11591 5.66001 8.66667ZM7.99334 8.66667C7.99334 9.21525 8.43374 9.66667 8.99334 9.66667C9.5441 9.66667 9.99334 9.21743 9.99334 8.66667C9.99334 8.11591 9.54411 7.66667 8.99334 7.66667C8.44258 7.66667 7.99334 8.11591 7.99334 8.66667Z" fill="#2075D9" stroke="#2075D9" stroke-width="0.666667"/>
<path d="M14.6533 4.52671V7.19337C14.6533 8.52671 14.24 9.43337 13.4133 9.93337C13.2133 10.0534 12.98 9.89337 12.98 9.66004L12.9867 7.19337C12.9867 4.52671 11.46 3.00004 8.79332 3.00004L4.73332 3.00671C4.49999 3.00671 4.33999 2.77337 4.45999 2.57337C4.95999 1.74671 5.86666 1.33337 7.19332 1.33337H11.46C13.5867 1.33337 14.6533 2.40004 14.6533 4.52671Z" fill="#2075D9"/>
</svg>
