<svg width="12" height="12" viewBox="0 0 12 12" fill="none" xmlns="http://www.w3.org/2000/svg">
<path d="M1.73642 3.07438C1.61272 3.07438 1.51868 3.18554 1.53918 3.30753L3 12H9L10.4608 3.30753C10.4813 3.18554 10.3873 3.07438 10.2636 3.07438H1.73642ZM10.8 0.991736C10.9105 0.991736 11 1.08128 11 1.19174V1.78347C11 1.89393 10.9105 1.98347 10.8 1.98347H1.2C1.08954 1.98347 1 1.89393 1 1.78347V1.19174C1 1.08128 1.08954 0.991736 1.2 0.991736H3.8555C4.3055 0.991736 4.671 0.446777 4.671 0H7.329C7.329 0.446777 7.694 0.991736 8.1445 0.991736H10.8Z" fill="#8E8EA9"/>
</svg>
