<svg width="15" height="16" viewBox="0 0 15 16" fill="none" xmlns="http://www.w3.org/2000/svg">
<g clip-path="url(#clip0_223_38355)">
<path d="M2.16101 9.95916C3.16112 9.95916 3.97186 9.14239 3.97186 8.13485C3.97186 7.12732 3.16112 6.31055 2.16101 6.31055C1.16091 6.31055 0.350159 7.12732 0.350159 8.13485C0.350159 9.14239 1.16091 9.95916 2.16101 9.95916Z" fill="#64748B"/>
<path d="M7.59357 9.95916C8.59367 9.95916 9.40442 9.14239 9.40442 8.13485C9.40442 7.12732 8.59367 6.31055 7.59357 6.31055C6.59346 6.31055 5.78271 7.12732 5.78271 8.13485C5.78271 9.14239 6.59346 9.95916 7.59357 9.95916Z" fill="#64748B"/>
<path d="M13.0261 9.95916C14.0262 9.95916 14.837 9.14239 14.837 8.13485C14.837 7.12732 14.0262 6.31055 13.0261 6.31055C12.026 6.31055 11.2153 7.12732 11.2153 8.13485C11.2153 9.14239 12.026 9.95916 13.0261 9.95916Z" fill="#64748B"/>
</g>
<defs>
<clipPath id="clip0_223_38355">
<rect width="14.4868" height="14.5944" fill="white" transform="translate(0.350159 0.837891)"/>
</clipPath>
</defs>
</svg>
