<svg width="17" height="17" viewBox="0 0 17 17" fill="none" xmlns="http://www.w3.org/2000/svg">
<path d="M15.0649 4.34315C14.7916 4.19648 14.2183 4.04315 13.4383 4.58982L12.4583 5.28315C12.3849 3.20982 11.4849 2.39648 9.29826 2.39648H5.29826C3.01826 2.39648 2.13159 3.28315 2.13159 5.56315V10.8965C2.13159 12.4298 2.96493 14.0632 5.29826 14.0632H9.29826C11.4849 14.0632 12.3849 13.2498 12.4583 11.1765L13.4383 11.8698C13.8516 12.1632 14.2116 12.2565 14.4983 12.2565C14.7449 12.2565 14.9383 12.1832 15.0649 12.1165C15.3383 11.9765 15.7983 11.5965 15.7983 10.6432V5.81648C15.7983 4.86315 15.3383 4.48315 15.0649 4.34315ZM8.29826 7.81648C7.61159 7.81648 7.04493 7.25648 7.04493 6.56315C7.04493 5.86982 7.61159 5.30982 8.29826 5.30982C8.98493 5.30982 9.55159 5.86982 9.55159 6.56315C9.55159 7.25648 8.98493 7.81648 8.29826 7.81648Z" fill="#512E4E"/>
</svg>
