<svg width="40" height="40" viewBox="0 0 40 40" fill="none" xmlns="http://www.w3.org/2000/svg">
<rect opacity="0.1" width="40" height="40" rx="8" fill="#7167E0"/>
<path d="M39.152 20.2395C39.1069 20.6262 38.6926 20.8196 38.3399 20.9954C38.0117 21.1571 37.6836 21.3223 37.3596 21.484C36.8346 21.7442 36.3137 22.0043 35.7887 22.2645C35.1324 22.5915 34.4803 22.9184 33.824 23.2418C33.1022 23.6004 32.3803 23.9625 31.6543 24.3211C30.9283 24.6833 30.2024 25.0454 29.4723 25.4075C28.8037 25.7415 28.1393 26.0719 27.4707 26.4059C26.9252 26.6766 26.3838 26.9473 25.8383 27.218C25.4815 27.3938 25.1246 27.5731 24.7678 27.7489C24.4971 27.8825 24.2428 28.0161 23.9352 28.0934C23.1354 28.2903 22.2494 28.2235 21.5276 27.8649C21.2692 27.7348 21.0067 27.6083 20.7483 27.4782C20.2725 27.2426 19.8008 27.0106 19.325 26.775C18.7016 26.4657 18.0781 26.1563 17.4547 25.8504C16.7451 25.4989 16.0315 25.1473 15.3219 24.7958C14.5877 24.4336 13.8535 24.068 13.1194 23.7059C12.4262 23.3614 11.733 23.0204 11.0358 22.6758L9.26389 21.8004C8.84143 21.5895 8.41486 21.3821 7.9924 21.1711C7.79963 21.0762 7.60686 20.9813 7.41408 20.8829C7.11057 20.7317 6.81115 20.4926 6.81115 20.1692C6.81115 20.4645 6.81115 20.7598 6.80705 21.0586C6.80705 21.1641 6.79885 21.2731 6.80705 21.3821C6.83166 21.6668 7.09416 21.8883 7.36897 22.029C7.53713 22.1168 7.7094 22.1977 7.88166 22.2821C8.32463 22.5 8.7676 22.7215 9.21057 22.9395C9.85041 23.2559 10.4862 23.5723 11.126 23.8887C11.8848 24.2649 12.6477 24.6411 13.4065 25.0172C14.1981 25.411 14.9897 25.8012 15.7854 26.195C16.5401 26.5676 17.2906 26.9403 18.0453 27.3129C18.6729 27.6223 19.2963 27.9317 19.9238 28.2411C20.3463 28.452 20.7729 28.6594 21.1953 28.8704C21.4414 28.9899 21.6834 29.127 21.95 29.2114C22.7826 29.4715 23.7588 29.4153 24.5258 29.0321C24.817 28.8879 25.1082 28.7403 25.3994 28.5961C25.9367 28.329 26.474 28.0618 27.0072 27.7946C27.7086 27.4465 28.4059 27.0985 29.1072 26.7469C29.8906 26.3567 30.674 25.9665 31.4533 25.5762L33.8035 24.4055C34.5049 24.054 35.2063 23.7059 35.9117 23.3543C36.4572 23.0836 37.0028 22.8129 37.5483 22.5387C37.8477 22.3875 38.1512 22.2399 38.4506 22.0887C38.5408 22.043 38.6352 21.9973 38.7213 21.9446C38.951 21.7969 39.1315 21.593 39.1356 21.3364C39.1397 21.2063 39.1356 21.0797 39.1356 20.9497C39.1356 20.693 39.1356 20.4329 39.1397 20.1762C39.1561 20.2043 39.1561 20.2219 39.152 20.2395C39.152 20.25 39.152 20.2325 39.152 20.2395Z" fill="#7A9EFD"/>
<path d="M38.5698 19.4836C39.3491 19.8703 39.3532 20.4996 38.578 20.8863L24.4522 27.9211C23.677 28.3078 22.4096 28.3078 21.6303 27.9211L7.41023 20.8863C6.63093 20.4996 6.62683 19.8703 7.40202 19.4836L21.5278 12.4453C22.303 12.0586 23.5704 12.0586 24.3497 12.4453L38.5698 19.4836Z" fill="#E4ECF9"/>
<path d="M25.4117 6.59888C25.3994 6.59185 25.3871 6.58833 25.3748 6.58481C25.3748 6.58481 25.3707 6.58481 25.3707 6.5813C25.3666 6.5813 25.3625 6.57778 25.3584 6.57778C25.3543 6.57778 25.3461 6.57427 25.342 6.57427C25.3379 6.57427 25.3297 6.57075 25.3256 6.57075C25.3215 6.57075 25.3174 6.57075 25.3133 6.56724H25.3051C25.2927 6.56372 25.2804 6.56372 25.2681 6.56372H25.1779C25.1738 6.56372 25.1656 6.56724 25.1615 6.56724C25.1533 6.56724 25.1451 6.57075 25.1369 6.57075C25.1328 6.57075 25.1287 6.57075 25.1205 6.57427C25.1164 6.57427 25.1123 6.57778 25.1082 6.57778C25.0918 6.5813 25.0795 6.58481 25.0631 6.59185C25.059 6.59536 25.0508 6.59536 25.0467 6.59536C25.0426 6.59536 25.0426 6.59888 25.0385 6.59888C25.0138 6.60942 24.9851 6.61997 24.9605 6.63403L15.4449 11.345C15.4121 11.3625 15.3793 11.3801 15.3465 11.4012C15.3424 11.4047 15.3342 11.4083 15.3301 11.4118C15.3013 11.4329 15.2685 11.454 15.2398 11.4786L15.2316 11.4856C15.2275 11.4891 15.2234 11.4926 15.2193 11.4997C15.2029 11.5137 15.1906 11.5243 15.1783 11.5383L15.166 11.5489L15.1537 11.5594C15.1455 11.5665 15.1373 11.577 15.1291 11.584C15.125 11.5911 15.1168 11.5946 15.1127 11.6016C15.1086 11.6051 15.1045 11.6122 15.1004 11.6157C15.0963 11.6227 15.0881 11.6297 15.084 11.6368C15.0799 11.6403 15.0758 11.6473 15.0717 11.6508C15.0635 11.6579 15.0594 11.6684 15.0511 11.6754C15.047 11.679 15.0429 11.686 15.0388 11.6895C15.0388 11.693 15.0347 11.693 15.0347 11.6965C15.0224 11.7106 15.0142 11.7282 15.0019 11.7422C15.0019 11.7422 15.0019 11.7458 14.9978 11.7458C14.9937 11.7493 14.9937 11.7528 14.9896 11.7563C14.9814 11.7668 14.9732 11.7774 14.9691 11.7915C14.965 11.795 14.965 11.802 14.9609 11.8055C14.9568 11.8125 14.9527 11.8161 14.9527 11.8231C14.9486 11.8266 14.9486 11.8336 14.9445 11.8372C14.9363 11.8512 14.9322 11.8618 14.924 11.8758C14.924 11.8793 14.9199 11.8793 14.9199 11.8829V11.8864C14.9117 11.904 14.9035 11.918 14.8953 11.9356C14.8953 11.9391 14.8912 11.9426 14.8912 11.9426C14.8871 11.9497 14.8871 11.9532 14.883 11.9602C14.8789 11.9672 14.8748 11.9778 14.8707 11.9848C14.8666 11.9918 14.8666 11.9989 14.8625 12.0024C14.8584 12.0094 14.8584 12.0165 14.8543 12.0235C14.8543 12.027 14.8502 12.034 14.8502 12.0375C14.8461 12.0446 14.8461 12.0551 14.842 12.0622C14.8379 12.0727 14.8379 12.0797 14.8338 12.0903C14.8338 12.0938 14.8297 12.0973 14.8297 12.1008C14.8297 12.1079 14.8256 12.1149 14.8256 12.1219C14.8215 12.136 14.8174 12.15 14.8174 12.1641C14.8174 12.1676 14.8174 12.1711 14.8133 12.1782V12.1887C14.8092 12.2204 14.8051 12.252 14.8051 12.2836L14.8379 21.6563C14.8379 21.8286 14.9117 21.9481 15.0265 22.0079L15.7238 22.3559C15.609 22.2997 15.5392 22.1766 15.5351 22.0043L15.5023 12.6317C15.5023 12.6 15.5064 12.5684 15.5105 12.5368C15.5105 12.5297 15.5105 12.5227 15.5146 12.5122C15.5187 12.4981 15.5187 12.484 15.5228 12.47C15.5269 12.4594 15.5269 12.4489 15.531 12.4383C15.5351 12.4278 15.5351 12.4208 15.5392 12.4102C15.5433 12.3961 15.5474 12.3856 15.5515 12.3715C15.5556 12.3645 15.5556 12.3575 15.5597 12.3504C15.5638 12.3364 15.572 12.3223 15.5761 12.3083C15.5802 12.3012 15.5802 12.2977 15.5844 12.2907C15.5926 12.2696 15.6008 12.252 15.6131 12.2309C15.6131 12.2274 15.6172 12.2274 15.6172 12.2239C15.6254 12.2063 15.6377 12.1887 15.6459 12.1711C15.65 12.1641 15.6541 12.1606 15.6541 12.1536C15.6623 12.136 15.6746 12.1219 15.6869 12.1043C15.691 12.1008 15.691 12.0973 15.6951 12.0938C15.7074 12.0762 15.7197 12.0551 15.7361 12.0375C15.7402 12.0305 15.7443 12.027 15.7484 12.0235C15.7607 12.0094 15.7689 11.9989 15.7812 11.9848C15.7853 11.9778 15.7935 11.9708 15.7976 11.9637C15.8058 11.9532 15.8181 11.9426 15.8263 11.9321C15.8345 11.9215 15.8427 11.9145 15.851 11.9075C15.8592 11.9004 15.8674 11.8899 15.8756 11.8829C15.8879 11.8688 15.9043 11.8583 15.9166 11.8442L15.9371 11.8266C15.9658 11.802 15.9945 11.7809 16.0273 11.7598C16.0314 11.7563 16.0396 11.7528 16.0437 11.7493C16.0765 11.7282 16.1093 11.7071 16.1422 11.693L25.6578 6.98208C25.6865 6.96802 25.7111 6.95747 25.7357 6.94692C25.7439 6.94341 25.7521 6.93989 25.7603 6.93989C25.7767 6.93638 25.789 6.92935 25.8054 6.92583C25.8136 6.92231 25.8259 6.92231 25.8342 6.9188C25.8424 6.91528 25.8506 6.91528 25.8588 6.91528C25.8711 6.91177 25.8834 6.91177 25.8916 6.91177H25.9613C25.9777 6.91177 25.9941 6.91528 26.0105 6.91528C26.0146 6.91528 26.0187 6.91528 26.0228 6.9188C26.0351 6.92231 26.0474 6.92231 26.0597 6.92583C26.0638 6.92583 26.0679 6.92935 26.072 6.92935C26.0885 6.93286 26.1008 6.93989 26.1131 6.94692L25.4117 6.59888Z" fill="#2A2ABC"/>
<path d="M25.6578 6.98203C26.0106 6.80977 26.2977 6.95039 26.2977 7.29492L26.3305 16.6676C26.3305 17.0121 26.0434 17.4375 25.6948 17.6133L16.1791 22.3242C15.8264 22.4965 15.5393 22.3559 15.5393 22.0113L15.5065 12.6387C15.5065 12.2941 15.7936 11.8688 16.1422 11.693L25.6578 6.98203Z" fill="#4040FF"/>
<path d="M23.4473 13.8233C23.6811 13.7073 23.8698 13.8022 23.8698 14.0308C23.8698 14.2593 23.6811 14.5405 23.4473 14.6565L18.9766 16.8679L18.9807 17.6378C18.9807 17.7679 18.8658 17.905 18.751 17.9647C18.6895 17.9964 18.628 18.0034 18.5787 17.9753L17.2867 17.2229C17.1596 17.1491 17.2621 16.8819 17.459 16.787L18.0537 16.4917L18.7469 16.1507L23.4473 13.8233ZM22.344 11.3097C22.4055 11.278 22.467 11.271 22.5162 11.2991L23.8082 12.0515C23.9354 12.1253 23.8328 12.3925 23.636 12.4874L23.0412 12.7827L22.3481 13.1237L17.6477 15.4476C17.4139 15.5636 17.2252 15.4686 17.2252 15.2401C17.2252 15.0116 17.4139 14.7304 17.6477 14.6143L22.1184 12.403L22.1143 11.6366C22.1143 11.5065 22.2291 11.3694 22.344 11.3097Z" fill="#2828CE"/>
<path d="M19.3988 18.4007L18.8902 18.1476C18.8861 18.1476 18.8861 18.144 18.882 18.144L19.3906 18.3972C19.3947 18.3972 19.3947 18.4007 19.3988 18.4007Z" fill="#858585"/>
<path d="M24.0541 13.9711C24.05 13.9676 24.05 13.9676 24.0541 13.9711L24.0295 13.9606H24.0254C24.0213 13.9606 24.0213 13.9606 24.0172 13.9571C24.0131 13.9571 24.009 13.9536 24.0049 13.9536C24.0008 13.9536 23.9967 13.9536 23.9926 13.95H23.9803C23.9721 13.95 23.9639 13.9465 23.9557 13.9465H23.8941C23.89 13.9465 23.8859 13.9465 23.8818 13.95C23.8777 13.95 23.8695 13.9536 23.8654 13.9536H23.8572C23.8531 13.9536 23.849 13.9571 23.849 13.9571C23.8408 13.9606 23.8285 13.9641 23.8203 13.9641C23.8162 13.9641 23.8121 13.9676 23.808 13.9676L23.8039 13.9711C23.7875 13.9782 23.767 13.9852 23.7506 13.9922L19.0502 16.3161L18.357 16.6571L17.7623 16.9524C17.75 16.9594 17.7336 16.9665 17.7213 16.977C17.7172 16.9805 17.7131 16.984 17.709 16.984C17.7008 16.9911 17.6926 16.9981 17.6844 17.0016L17.6803 17.0051L17.668 17.0157C17.6639 17.0192 17.6598 17.0227 17.6598 17.0262L17.6557 17.0297C17.6475 17.0368 17.6434 17.0438 17.6393 17.0473L17.6352 17.0508C17.6311 17.0543 17.627 17.0614 17.6229 17.0649C17.6187 17.0684 17.6146 17.0754 17.6105 17.079C17.6064 17.086 17.6023 17.0895 17.5982 17.0965C17.5941 17.1 17.5941 17.1071 17.59 17.1106C17.5859 17.1176 17.5818 17.1211 17.5818 17.1282C17.5777 17.1317 17.5777 17.1387 17.5736 17.1422C17.5695 17.1493 17.5695 17.1528 17.5654 17.1598C17.5654 17.1633 17.5613 17.1668 17.5613 17.1739V17.1774C17.5572 17.1844 17.5572 17.1915 17.5531 17.195C17.5531 17.1985 17.5531 17.1985 17.549 17.202V17.2161C17.549 17.2231 17.5449 17.2266 17.5449 17.2336V17.2934C17.5449 17.304 17.549 17.318 17.5531 17.3286V17.3321C17.5572 17.3426 17.5613 17.3497 17.5695 17.3602C17.5695 17.3637 17.5736 17.3637 17.5736 17.3672C17.5818 17.3743 17.59 17.3848 17.5982 17.3883L18.8902 18.1407L19.3988 18.3938L18.1068 17.6415C18.0945 17.6344 18.0863 17.6274 18.0822 17.6204C18.0822 17.6168 18.0781 17.6168 18.0781 17.6133C18.074 17.6063 18.0658 17.5958 18.0617 17.5852V17.5817C18.0576 17.5711 18.0576 17.5606 18.0535 17.5465V17.4868C18.0535 17.4797 18.0576 17.4727 18.0576 17.4622V17.4551C18.0617 17.4446 18.0617 17.4375 18.0658 17.427V17.4235L18.0781 17.3918C18.0822 17.3813 18.0904 17.3708 18.0945 17.3602C18.1027 17.3497 18.1068 17.3391 18.115 17.3286C18.1232 17.318 18.1314 17.311 18.1396 17.3004L18.1438 17.2969C18.152 17.2899 18.1602 17.2793 18.1684 17.2723C18.1725 17.2688 18.1766 17.2653 18.1766 17.2618L18.193 17.2477C18.2012 17.2407 18.2094 17.2336 18.2176 17.2301C18.2217 17.2266 18.2258 17.2231 18.2299 17.2231C18.2422 17.2161 18.2545 17.2055 18.2709 17.1985L18.8656 16.9032L19.5588 16.5622L24.2592 14.2383C24.2756 14.2278 24.2961 14.2208 24.3125 14.2172C24.3166 14.2137 24.3248 14.2137 24.3289 14.2102C24.3371 14.2067 24.3494 14.2032 24.3576 14.2032C24.3658 14.2032 24.3699 14.1997 24.3781 14.1997C24.3822 14.1997 24.3904 14.1961 24.3945 14.1961C24.4027 14.1961 24.4109 14.1926 24.415 14.1926H24.4643C24.4766 14.1926 24.4848 14.1926 24.4971 14.1961H24.5053C24.5135 14.1961 24.5217 14.1997 24.5299 14.2032C24.534 14.2032 24.534 14.2032 24.5381 14.2067C24.5463 14.2102 24.5586 14.2137 24.5668 14.2172L24.0541 13.9711Z" fill="#ACC5EA"/>
<path d="M24.2589 14.2488C24.4927 14.1328 24.6814 14.2277 24.6814 14.4562C24.6814 14.6848 24.4927 14.966 24.2589 15.082L19.7882 17.2933L19.7923 18.0633C19.7923 18.1933 19.6775 18.3305 19.5626 18.3902C19.5011 18.4219 19.4396 18.4289 19.3904 18.4008L18.0984 17.6484C17.9712 17.5746 18.0738 17.3074 18.2706 17.2125L18.8654 16.9172L19.5585 16.5762L24.2589 14.2488Z" fill="white"/>
<path d="M22.8154 11.4679C22.8113 11.4644 22.8072 11.4644 22.8031 11.4609C22.799 11.4609 22.7949 11.4574 22.7908 11.4574C22.7867 11.4574 22.7826 11.4574 22.7785 11.4539H22.7334C22.7252 11.4539 22.7211 11.4574 22.7129 11.4574C22.7088 11.4574 22.7047 11.4609 22.7006 11.4609C22.6965 11.4609 22.6965 11.4609 22.6924 11.4644C22.6883 11.4644 22.6883 11.4644 22.6842 11.4679C22.6719 11.4714 22.6596 11.4785 22.6514 11.482C22.6349 11.489 22.6226 11.496 22.6062 11.5066L22.5939 11.5171C22.5857 11.5242 22.5775 11.5312 22.5652 11.5382L22.5611 11.5417C22.5529 11.5488 22.5447 11.5558 22.5406 11.5628L22.5283 11.5734L22.5242 11.5769L22.5201 11.5804C22.516 11.5875 22.5078 11.591 22.5037 11.598C22.4996 11.605 22.4955 11.6085 22.4914 11.6156C22.4873 11.6191 22.4832 11.6261 22.4832 11.6296C22.4791 11.6332 22.475 11.6402 22.475 11.6437C22.4709 11.6472 22.4668 11.6542 22.4668 11.6578C22.4627 11.6613 22.4627 11.6683 22.4586 11.6718C22.4545 11.6753 22.4545 11.6824 22.4504 11.6859C22.4463 11.6929 22.4463 11.6964 22.4422 11.7035C22.4381 11.7105 22.4381 11.714 22.4381 11.721C22.434 11.7281 22.434 11.7351 22.434 11.7421V11.7667C22.434 11.7773 22.4299 11.7914 22.4299 11.8019L22.434 12.5683L22.9426 12.8214L22.9385 12.055C22.9385 12.041 22.9385 12.0234 22.9426 12.0093V12.0023C22.9467 11.9882 22.9508 11.9707 22.9549 11.9566C22.9631 11.939 22.9672 11.925 22.9754 11.9109C22.9836 11.8968 22.9918 11.8792 23.0041 11.8652C23.0164 11.8511 23.0246 11.8371 23.0369 11.8265L23.041 11.823C23.0533 11.8125 23.0615 11.8019 23.0738 11.7914L23.0779 11.7878C23.0861 11.7808 23.0943 11.7738 23.1066 11.7667L23.1189 11.7562C23.1312 11.7457 23.1476 11.7386 23.1641 11.7316C23.1764 11.7246 23.1928 11.721 23.2051 11.714C23.2092 11.714 23.2092 11.714 23.2133 11.7105C23.2256 11.707 23.2379 11.7035 23.2502 11.7035H23.2953L23.3322 11.714L22.8154 11.4679ZM18.0494 15.5707C18.0535 15.546 18.0617 15.5179 18.0699 15.4933C18.0699 15.4898 18.0699 15.4898 18.074 15.4863C18.0863 15.4582 18.0945 15.43 18.1109 15.4019L18.1601 15.3175V15.314C18.1766 15.2859 18.1971 15.2613 18.2176 15.2367C18.2176 15.2332 18.2217 15.2332 18.2217 15.2296L18.2832 15.1664C18.2873 15.1628 18.2914 15.1593 18.2955 15.1523C18.3119 15.1382 18.3324 15.1242 18.3488 15.1101C18.357 15.1031 18.3652 15.096 18.3734 15.0925C18.398 15.075 18.4267 15.0574 18.4514 15.0468L22.9221 12.8355L22.4135 12.5824L17.9428 14.7937C17.9141 14.8078 17.8894 14.8218 17.8648 14.8394C17.8566 14.8464 17.8484 14.85 17.8402 14.857C17.8279 14.8675 17.8156 14.8746 17.8033 14.8851L17.7869 14.8992C17.7828 14.9027 17.7787 14.9062 17.7746 14.9132L17.7582 14.9273C17.7459 14.9378 17.7336 14.9519 17.7254 14.9625C17.7213 14.966 17.7172 14.973 17.7131 14.9765C17.7131 14.98 17.709 14.98 17.709 14.9835C17.7049 14.9871 17.7008 14.9906 17.6967 14.9976L17.6721 15.0292C17.6639 15.0398 17.6557 15.0503 17.6516 15.0609V15.0679C17.6474 15.075 17.6392 15.0855 17.6351 15.0925C17.6269 15.1031 17.6228 15.1136 17.6187 15.1242C17.6146 15.1347 17.6064 15.1417 17.6023 15.1523C17.5982 15.1628 17.59 15.1734 17.5859 15.1839C17.5818 15.1945 17.5777 15.205 17.5736 15.2191C17.5695 15.2261 17.5695 15.2296 17.5654 15.2367C17.5654 15.2402 17.5654 15.2402 17.5613 15.2437C17.5613 15.2472 17.5572 15.2507 17.5572 15.2542L17.5449 15.2964C17.5408 15.3035 17.5408 15.314 17.5408 15.321C17.5408 15.3246 17.5408 15.3316 17.5367 15.3351C17.5367 15.3386 17.5367 15.3421 17.5326 15.3457C17.5285 15.3703 17.5285 15.3949 17.5285 15.416C17.5285 15.5285 17.5777 15.6093 17.6516 15.648L18.1601 15.9011C18.0863 15.8625 18.0371 15.7816 18.0371 15.6691C18.0371 15.641 18.0412 15.6128 18.0453 15.5847C18.0453 15.5777 18.0453 15.5742 18.0494 15.5707Z" fill="#ACC5EA"/>
<path d="M23.1559 11.7352C23.2174 11.7036 23.2789 11.6965 23.3281 11.7247L24.6201 12.477C24.7473 12.5508 24.6447 12.818 24.4479 12.9129L23.8531 13.2082L23.16 13.5493L18.4596 15.8731C18.2258 15.9891 18.0371 15.8942 18.0371 15.6657C18.0371 15.4372 18.2258 15.1559 18.4596 15.0399L22.9303 12.8286L22.9262 12.0622C22.9262 11.9321 23.0369 11.7914 23.1559 11.7352Z" fill="white"/>
<path d="M26.8021 16.8187C26.798 16.8151 26.7939 16.8151 26.7898 16.8116C26.7693 16.8011 26.7488 16.7905 26.7242 16.7835C26.7201 16.78 26.7119 16.78 26.7078 16.7765C26.6955 16.7729 26.6832 16.7659 26.6709 16.7624C26.6627 16.7589 26.6545 16.7554 26.6463 16.7554C26.6381 16.7519 26.634 16.7519 26.6258 16.7483C26.6011 16.7413 26.5724 16.7343 26.5478 16.7272H26.5437C26.5191 16.7202 26.4904 16.7167 26.4658 16.7097C26.4576 16.7097 26.4494 16.7062 26.4412 16.7062C26.433 16.7062 26.4248 16.7026 26.4166 16.7026C26.4002 16.6991 26.3879 16.6991 26.3715 16.6956C26.3674 16.6956 26.3592 16.6956 26.3551 16.6921C26.3304 16.6886 26.3017 16.6886 26.2771 16.6851H26.1213C26.1049 16.6851 26.0926 16.6886 26.0761 16.6886C26.0638 16.6886 26.0556 16.6886 26.0433 16.6921C26.0105 16.6956 25.9818 16.6991 25.949 16.7026H25.9449C25.9121 16.7062 25.8752 16.7132 25.8383 16.7202C25.826 16.7237 25.8136 16.7237 25.8054 16.7272C25.7849 16.7308 25.7603 16.7343 25.7398 16.7413H25.7316C25.6906 16.7519 25.6496 16.7624 25.6045 16.7765C25.5963 16.78 25.5881 16.7835 25.5799 16.7835C25.547 16.794 25.5101 16.8046 25.4773 16.8187C25.4732 16.8187 25.4691 16.8222 25.465 16.8222L25.3789 16.8538C25.3748 16.8538 25.3707 16.8573 25.3666 16.8573C25.3338 16.8714 25.301 16.8819 25.2722 16.896C25.264 16.8995 25.2517 16.903 25.2435 16.9101C25.2066 16.9276 25.1697 16.9417 25.1369 16.9593C25.1 16.9769 25.0631 16.9979 25.0261 17.019L24.9892 17.0401L24.9154 17.0823C24.9031 17.0894 24.8867 17.0999 24.8744 17.1069C24.8498 17.121 24.8293 17.1351 24.8047 17.1491C24.7924 17.1597 24.776 17.1667 24.7636 17.1772C24.739 17.1913 24.7185 17.2089 24.6939 17.2229C24.6816 17.2335 24.6693 17.2405 24.6529 17.2511C24.6283 17.2687 24.5996 17.2862 24.575 17.3073C24.5668 17.3144 24.5545 17.3214 24.5463 17.3284C24.5135 17.353 24.4765 17.3812 24.4437 17.4093L24.4232 17.4269C24.3986 17.4444 24.3781 17.462 24.3535 17.4831L24.3453 17.4901C24.3043 17.5253 24.2633 17.5604 24.2263 17.5956C24.2263 17.5991 24.2222 17.5991 24.2222 17.6026L24.1115 17.7081L24.0992 17.7187C24.0869 17.7327 24.0705 17.7468 24.0582 17.7608C24.0418 17.7749 24.0295 17.789 24.0131 17.8065C23.9967 17.8241 23.9761 17.8452 23.9597 17.8628C23.9474 17.8769 23.931 17.8944 23.9187 17.9085C23.9146 17.912 23.9146 17.9155 23.9105 17.9155C23.9064 17.919 23.9023 17.9261 23.8982 17.9296C23.8531 17.9788 23.8121 18.028 23.767 18.0808C23.7629 18.0843 23.7588 18.0913 23.7547 18.0948C23.7547 18.0983 23.7506 18.0983 23.7506 18.1019C23.7095 18.1511 23.6685 18.2038 23.6316 18.253C23.6275 18.2565 23.6234 18.2636 23.6193 18.2671C23.6152 18.2741 23.607 18.2812 23.6029 18.2882C23.5701 18.3304 23.5414 18.3726 23.5127 18.4147C23.5086 18.4218 23.5045 18.4288 23.4963 18.4358C23.4963 18.4394 23.4922 18.4394 23.4922 18.4429L23.3937 18.5905C23.3896 18.594 23.3896 18.5976 23.3855 18.6011C23.3814 18.6081 23.3773 18.6187 23.3691 18.6257C23.3445 18.6644 23.3199 18.7065 23.2994 18.7452C23.2953 18.7522 23.2912 18.7628 23.283 18.7698C23.2789 18.7733 23.2789 18.7804 23.2748 18.7839C23.2461 18.8366 23.2174 18.8858 23.1927 18.9386C23.1927 18.9386 23.1927 18.9421 23.1886 18.9421C23.1845 18.9491 23.1845 18.9526 23.1804 18.9597C23.1558 19.0054 23.1353 19.0546 23.1148 19.1003L23.1025 19.1214C23.0984 19.1284 23.0984 19.1355 23.0943 19.139C23.0697 19.1952 23.0451 19.2515 23.0246 19.3077V19.3112C23.0123 19.3499 22.9959 19.3851 22.9836 19.4237L22.9713 19.4554C22.9631 19.4765 22.9549 19.4976 22.9508 19.5187C22.9467 19.5257 22.9467 19.5327 22.9426 19.5397C22.9385 19.5573 22.9302 19.5749 22.9261 19.5925C22.9179 19.6171 22.9138 19.6382 22.9056 19.6628L22.8933 19.7155C22.8892 19.7261 22.8851 19.7401 22.8851 19.7507C22.881 19.7577 22.881 19.7683 22.881 19.7753C22.8728 19.7999 22.8687 19.828 22.8646 19.8526C22.8605 19.8702 22.8564 19.8878 22.8523 19.9089C22.8482 19.937 22.8441 19.9616 22.84 19.9897C22.8359 20.0038 22.8359 20.0144 22.8318 20.0284C22.8318 20.0354 22.8318 20.039 22.8277 20.046C22.8277 20.0601 22.8236 20.0706 22.8236 20.0847C22.8195 20.1093 22.8154 20.1374 22.8154 20.162C22.8154 20.1761 22.8113 20.1901 22.8113 20.2007C22.8072 20.2253 22.8072 20.2534 22.8072 20.278V20.3132C22.8072 20.3519 22.8031 20.387 22.8031 20.4222C22.8072 21.055 23.0656 21.5015 23.4881 21.7124L23.89 21.9128C23.4676 21.7019 23.2092 21.2589 23.2051 20.6226C23.2051 20.5874 23.2051 20.5487 23.2092 20.5136V20.4784C23.2092 20.4538 23.2133 20.4257 23.2133 20.4011C23.2133 20.387 23.2174 20.3729 23.2174 20.3624C23.2215 20.3378 23.2215 20.3097 23.2256 20.2851C23.2256 20.271 23.2297 20.2605 23.2297 20.2464C23.2338 20.2288 23.2338 20.2112 23.2379 20.1937C23.242 20.1655 23.2461 20.1409 23.2502 20.1128C23.2543 20.0952 23.2584 20.0776 23.2625 20.0565C23.2666 20.0319 23.2748 20.0038 23.2789 19.9792C23.283 19.9581 23.2871 19.937 23.2953 19.9159L23.3076 19.8632C23.3158 19.8386 23.3199 19.8175 23.3281 19.7929C23.3322 19.7753 23.3404 19.7577 23.3445 19.7401C23.3527 19.712 23.3609 19.6839 23.3732 19.6558L23.3855 19.6241C23.3978 19.5854 23.4142 19.5468 23.4265 19.5116C23.447 19.4554 23.4717 19.3991 23.4963 19.3429C23.5045 19.3288 23.5086 19.3147 23.5168 19.3007C23.5373 19.255 23.5619 19.2058 23.5824 19.1601L23.5947 19.139C23.6193 19.0862 23.648 19.037 23.6767 18.9843C23.6849 18.9702 23.6931 18.9562 23.7013 18.9456C23.726 18.9034 23.7465 18.8647 23.7711 18.8261C23.7793 18.812 23.7875 18.8015 23.7957 18.7874L23.8941 18.6397C23.9023 18.6292 23.9064 18.6222 23.9146 18.6116C23.9433 18.5694 23.9761 18.5272 24.0049 18.4851C24.0131 18.471 24.0213 18.4604 24.0336 18.4464C24.0705 18.3937 24.1115 18.3444 24.1525 18.2952C24.1607 18.2882 24.1648 18.2812 24.173 18.2741C24.214 18.2214 24.2592 18.1722 24.3043 18.1229C24.3125 18.1159 24.3166 18.1089 24.3248 18.1019C24.3371 18.0878 24.3535 18.0702 24.3658 18.0562C24.3822 18.0386 24.4027 18.0175 24.4191 17.9999C24.4355 17.9858 24.4478 17.9683 24.4642 17.9542C24.4806 17.9366 24.497 17.919 24.5176 17.9015L24.6283 17.796L24.6324 17.7925C24.6734 17.7573 24.7103 17.7222 24.7513 17.687C24.776 17.6659 24.8047 17.6448 24.8293 17.6237L24.8498 17.6062C24.8826 17.578 24.9195 17.5534 24.9523 17.5253C24.9605 17.5183 24.9728 17.5112 24.981 17.5042C25.0056 17.4866 25.0302 17.4655 25.059 17.4479C25.0713 17.4374 25.0836 17.4304 25.1 17.4198C25.1246 17.4058 25.1451 17.3882 25.1697 17.3741C25.182 17.3636 25.1984 17.3565 25.2107 17.346C25.2353 17.3319 25.2558 17.3179 25.2804 17.3038C25.2927 17.2968 25.3092 17.2862 25.3215 17.2792L25.3953 17.237L25.4322 17.2159C25.4691 17.1948 25.506 17.1772 25.5429 17.1562C25.5799 17.1386 25.6168 17.121 25.6496 17.1069C25.6578 17.1034 25.6701 17.0999 25.6783 17.0929C25.7111 17.0788 25.7439 17.0647 25.7726 17.0542C25.7767 17.0542 25.7808 17.0507 25.7849 17.0507C25.8177 17.0366 25.8506 17.0261 25.8834 17.0155C25.9203 17.005 25.9531 16.9909 25.9859 16.9804C25.9941 16.9769 26.0023 16.9733 26.0105 16.9733C26.0515 16.9593 26.0967 16.9487 26.1377 16.9382C26.1623 16.9312 26.1869 16.9276 26.2115 16.9241C26.2238 16.9206 26.2361 16.9206 26.2443 16.9171C26.2812 16.9101 26.314 16.9065 26.351 16.8995H26.3551C26.3879 16.896 26.4207 16.8925 26.4494 16.889C26.4617 16.889 26.4699 16.889 26.4822 16.8854C26.5068 16.8854 26.5273 16.8819 26.5478 16.8819H26.6709C26.6996 16.8819 26.7283 16.8854 26.757 16.889C26.7611 16.889 26.7693 16.889 26.7734 16.8925C26.798 16.896 26.8185 16.8995 26.8431 16.903C26.8513 16.903 26.8595 16.9065 26.8677 16.9065C26.8924 16.9101 26.9211 16.9171 26.9457 16.9241H26.9498C26.9785 16.9312 27.0031 16.9382 27.0277 16.9452C27.0359 16.9487 27.04 16.9487 27.0482 16.9522L27.1097 16.9733C27.1138 16.9769 27.122 16.9769 27.1261 16.9804C27.1508 16.9909 27.1795 17.0015 27.2041 17.0155L26.8021 16.8187Z" fill="#C68620"/>
<path d="M25.5348 17.1598C26.8309 16.5199 27.8809 17.0332 27.8891 18.3094C27.8973 19.5856 26.8473 21.1395 25.5512 21.7793C24.2551 22.4192 23.2051 21.9059 23.201 20.6297C23.1969 19.3535 24.2428 17.8031 25.5348 17.1598Z" fill="#FFCD2E"/>
<path d="M25.8098 19.2515C25.8344 19.2832 25.8467 19.3324 25.8467 19.3992C25.8467 19.4765 25.8262 19.5574 25.7852 19.6382C25.7442 19.7191 25.6868 19.7964 25.6088 19.8703C25.5514 19.923 25.4858 19.9722 25.4161 20.0144V20.155C25.4161 20.2043 25.375 20.264 25.3258 20.2886C25.2766 20.3132 25.2356 20.2921 25.2356 20.2464V20.1058C25.1495 20.141 25.0756 20.155 25.01 20.148C24.9485 20.1445 24.9034 20.1199 24.8664 20.0812C24.8295 20.0425 24.809 19.9968 24.809 19.9406C24.809 19.9089 24.8213 19.8773 24.8418 19.8421C24.8623 19.8105 24.8911 19.7824 24.928 19.7683C24.9567 19.7543 24.9813 19.7507 24.9977 19.7578C25.0182 19.7648 25.0346 19.7824 25.0469 19.8105C25.0633 19.8421 25.0797 19.8703 25.1002 19.8879C25.1207 19.9054 25.1454 19.916 25.1823 19.916C25.1987 19.916 25.2151 19.9125 25.2315 19.9089V19.5117C25.1577 19.5293 25.092 19.5398 25.0387 19.5433C24.9772 19.5468 24.9239 19.5328 24.887 19.4976C24.85 19.466 24.8295 19.4132 24.8295 19.3394C24.8295 19.2691 24.85 19.1953 24.887 19.1214C24.9239 19.0476 24.9813 18.9773 25.0551 18.9105C25.1043 18.8648 25.1618 18.8261 25.2233 18.7875V18.6293C25.2233 18.58 25.2643 18.5203 25.3135 18.4957C25.3627 18.4711 25.4037 18.4921 25.4037 18.5414V18.6961C25.4489 18.6785 25.4899 18.6679 25.5227 18.6609C25.5801 18.6504 25.6293 18.6539 25.6662 18.6679C25.7032 18.682 25.7319 18.6996 25.7524 18.7277C25.7688 18.7558 25.7811 18.7839 25.7811 18.8191C25.7811 18.8507 25.7688 18.8824 25.7483 18.9175C25.7278 18.9527 25.6991 18.9808 25.6662 18.9949C25.6375 19.0089 25.6129 19.0125 25.5965 19.0054C25.5801 18.9984 25.5637 18.9808 25.5473 18.9562C25.5227 18.9211 25.494 18.8964 25.4612 18.8859C25.4448 18.8824 25.4284 18.8824 25.4079 18.8859V19.2129C25.4612 19.1988 25.5104 19.1882 25.5555 19.1847C25.617 19.1742 25.6662 19.1742 25.7073 19.1847C25.7565 19.1953 25.7852 19.2164 25.8098 19.2515ZM25.5145 19.7261C25.5637 19.6664 25.5883 19.6101 25.5883 19.5539C25.5883 19.5117 25.576 19.4836 25.5473 19.4695C25.5227 19.4554 25.4858 19.4519 25.4448 19.4589C25.4366 19.4589 25.4243 19.4625 25.412 19.466V19.8175C25.453 19.7894 25.4858 19.7613 25.5145 19.7261ZM25.2315 19.2621V18.9738C25.1946 18.9984 25.1659 19.0265 25.1412 19.0546C25.1002 19.1039 25.0797 19.1496 25.0797 19.1918C25.0797 19.2164 25.0879 19.2375 25.1002 19.248C25.1166 19.2586 25.133 19.2656 25.1577 19.2656C25.1823 19.2691 25.2069 19.2656 25.2315 19.2621Z" fill="#C68620"/>
<path d="M25.7685 20.5171V20.3765L25.3256 20.155V20.2957C25.3256 20.3203 25.3338 20.3378 25.3502 20.3449L25.7931 20.5664C25.7808 20.5593 25.7685 20.5417 25.7685 20.5171ZM26.1172 19.8562C26.1172 19.8457 26.1213 19.8386 26.1213 19.8281C26.1213 19.7964 26.1131 19.7718 26.1008 19.7578L26.0844 19.7437L25.6414 19.5222C25.666 19.5363 25.6824 19.5644 25.6824 19.6066C25.6824 19.6207 25.6824 19.6312 25.6783 19.6453V19.6488C25.6742 19.6628 25.6701 19.6734 25.666 19.6875C25.6619 19.7015 25.6537 19.7156 25.6455 19.7296C25.6373 19.7437 25.625 19.7578 25.6127 19.7753C25.6004 19.7929 25.584 19.807 25.5717 19.821C25.5676 19.8246 25.5676 19.8281 25.5635 19.8281C25.547 19.8421 25.5306 19.8562 25.5142 19.8667L25.9572 20.0882C25.9695 20.0777 25.9818 20.0707 25.9941 20.0601L26.0064 20.0496L26.0146 20.0425L26.0228 20.0355C26.031 20.0285 26.0351 20.0214 26.0433 20.0144C26.0474 20.0074 26.0515 20.0039 26.0597 19.9968C26.0638 19.9933 26.0679 19.9863 26.072 19.9828C26.0761 19.9792 26.0802 19.9722 26.0844 19.9687C26.0885 19.9652 26.0885 19.9582 26.0926 19.9546C26.0967 19.9511 26.0967 19.9476 26.1008 19.9406C26.1049 19.9371 26.1049 19.9335 26.109 19.9265C26.1131 19.923 26.1131 19.9195 26.1131 19.9125V19.9089C26.1131 19.9054 26.1131 19.9054 26.1172 19.9019C26.1172 19.8984 26.1213 19.8914 26.1213 19.8878C26.1213 19.8843 26.1254 19.8773 26.1254 19.8738V19.8667C26.1172 19.8632 26.1172 19.8597 26.1172 19.8562Z" fill="#291902"/>
<path d="M25.6619 20.1761L25.2189 19.9546C25.223 19.9546 25.2271 19.9581 25.2313 19.9581L25.6742 20.1796C25.666 20.1796 25.6619 20.1761 25.6619 20.1761Z" fill="#291902"/>
<path d="M25.6701 20.1797L25.2272 19.9583C25.2313 19.9583 25.2354 19.9618 25.2395 19.9618L25.6824 20.1833C25.6783 20.1833 25.6742 20.1797 25.6701 20.1797Z" fill="#291902"/>
<path d="M25.6824 20.1832L25.2394 19.9617C25.2435 19.9617 25.2476 19.9652 25.2517 19.9652L25.6947 20.1867C25.6906 20.1867 25.6865 20.1832 25.6824 20.1832ZM25.6947 20.1867L25.2517 19.9652H25.2682L25.7111 20.1867H25.6947ZM25.7111 20.1867L25.2682 19.9652H25.2805L25.7234 20.1867H25.7111Z" fill="#291902"/>
<path d="M25.7234 20.1867L25.2805 19.9652H25.2928L25.7357 20.1867H25.7234ZM25.7398 20.1867L25.2969 19.9652C25.3051 19.9652 25.3133 19.9617 25.3215 19.9617L25.7644 20.1832C25.7521 20.1832 25.7439 20.1867 25.7398 20.1867Z" fill="#291902"/>
<path d="M25.7604 20.1833L25.3174 19.9618C25.3215 19.9618 25.3215 19.9618 25.3256 19.9583L25.7686 20.1797C25.7686 20.1797 25.7645 20.1797 25.7604 20.1833Z" fill="#291902"/>
<path d="M25.7685 20.1798L25.3256 19.9618V19.561L25.7685 19.7825V20.1798Z" fill="#291902"/>
<path d="M25.9449 19.4905L25.502 19.269C25.5061 19.269 25.5143 19.2655 25.5184 19.2655L25.9613 19.487C25.9572 19.4905 25.9531 19.4905 25.9449 19.4905ZM25.9613 19.487L25.5184 19.2655C25.5676 19.255 25.6127 19.2444 25.6496 19.2409C25.6537 19.2409 25.6619 19.2374 25.666 19.2374L26.109 19.4589C26.1049 19.4589 26.0967 19.4589 26.0926 19.4624C26.0557 19.4659 26.0105 19.4765 25.9613 19.487ZM26.1131 19.4589L25.6701 19.2374C25.6865 19.2339 25.7029 19.2339 25.7193 19.2339L26.1623 19.4554C26.1459 19.4554 26.1295 19.4554 26.1131 19.4589Z" fill="#291902"/>
<path d="M26.1623 19.4554L25.7194 19.2339H25.7563L26.1992 19.4554H26.1623Z" fill="#291902"/>
<path d="M26.1992 19.4554L25.7562 19.2339C25.7685 19.2339 25.7767 19.2339 25.789 19.2374L26.232 19.4589C26.2238 19.4554 26.2115 19.4554 26.1992 19.4554Z" fill="#291902"/>
<path d="M26.232 19.459L25.7891 19.2375C25.7932 19.2375 25.8014 19.2375 25.8055 19.2411C25.8096 19.2411 25.8137 19.2411 25.8137 19.2446L26.2566 19.4661C26.2525 19.4661 26.2525 19.4661 26.2484 19.4625C26.2402 19.459 26.2361 19.459 26.232 19.459ZM26.2566 19.4625L25.8137 19.2411C25.8178 19.2411 25.826 19.2446 25.8301 19.2446L26.273 19.4661C26.2689 19.4661 26.2607 19.4661 26.2566 19.4625Z" fill="#291902"/>
<path d="M26.273 19.4695L25.8301 19.248C25.8342 19.2516 25.8424 19.2516 25.8465 19.2551L26.2895 19.4766C26.2813 19.473 26.2771 19.4695 26.273 19.4695Z" fill="#291902"/>
<path d="M25.5348 20.032L25.0918 19.8105H25.0467C25.0426 19.8105 25.0426 19.8105 25.0385 19.8141H25.0344C25.0303 19.8176 25.0221 19.8176 25.018 19.8211C25.0016 19.8281 24.9893 19.8387 24.977 19.8492L24.9729 19.8527L24.9647 19.8598C24.9606 19.8633 24.9606 19.8668 24.9565 19.8703C24.9524 19.8738 24.9524 19.8773 24.9483 19.8773C24.9442 19.8809 24.9442 19.8844 24.94 19.8844C24.94 19.8879 24.9359 19.8914 24.9359 19.8914V19.8949C24.9359 19.8984 24.9318 19.8984 24.9318 19.902C24.9318 19.9055 24.9277 19.909 24.9277 19.9125C24.9277 19.916 24.9236 19.9195 24.9236 19.9195C24.9236 19.923 24.9195 19.9266 24.9195 19.9266C24.9195 19.9301 24.9154 19.9336 24.9154 19.9371C24.9154 19.9406 24.9154 19.9406 24.9113 19.9441V19.9477C24.9113 19.9512 24.9072 19.9547 24.9072 19.9582C24.9072 19.9617 24.9031 19.9687 24.9031 19.9723V19.9934C24.9031 20.0461 24.9236 20.0953 24.9606 20.134C24.977 20.1516 24.9975 20.1656 25.018 20.1762L25.4609 20.3977C25.4404 20.3871 25.4199 20.373 25.4035 20.3555C25.3666 20.3168 25.3461 20.2711 25.3461 20.2148C25.3461 20.2008 25.3502 20.1832 25.3543 20.1656C25.3584 20.148 25.3666 20.134 25.3789 20.1164C25.3912 20.0988 25.4035 20.0848 25.4158 20.0742C25.4281 20.0602 25.4445 20.0531 25.4609 20.0426C25.4692 20.0391 25.4733 20.0355 25.4815 20.0355H25.4856C25.4897 20.0355 25.4979 20.032 25.502 20.032H25.5184C25.5225 20.0285 25.5307 20.0285 25.5348 20.032ZM26.0844 19.234C26.0639 19.2023 26.0434 19.1812 26.0147 19.1707L25.5717 18.9492C25.5963 18.9633 25.6209 18.9844 25.6414 19.0125C25.6578 19.0371 25.6742 19.0512 25.6906 19.0582L26.1336 19.2797C26.1172 19.2727 26.1008 19.2551 26.0844 19.234ZM25.744 19.5363C25.7522 19.5363 25.7563 19.5328 25.7645 19.5328V19.2445L25.3215 19.023V19.3113C25.3092 19.3148 25.301 19.3148 25.2887 19.3148H25.2477C25.2395 19.3148 25.2313 19.3148 25.2231 19.3113C25.2149 19.3113 25.2108 19.3078 25.2026 19.3043L25.6455 19.5258C25.6496 19.5258 25.6496 19.5293 25.6537 19.5293C25.6578 19.5293 25.6578 19.5328 25.6619 19.5328H25.7276C25.7399 19.5363 25.744 19.5363 25.744 19.5363Z" fill="#291902"/>
<path d="M25.9449 18.9702L25.502 18.7487C25.5102 18.7452 25.5184 18.7417 25.5266 18.7417L25.9695 18.9632C25.9613 18.9632 25.9531 18.9667 25.9449 18.9702ZM25.9654 18.9597L25.5225 18.7382C25.5471 18.7276 25.5717 18.7206 25.5922 18.7171L26.0352 18.9386C26.0146 18.9456 25.9941 18.9526 25.9654 18.9597ZM26.0393 18.9386L25.5963 18.7171C25.6045 18.7136 25.6127 18.7136 25.6209 18.7136H25.6332L26.0762 18.9351H26.0639C26.0557 18.9351 26.0475 18.9386 26.0393 18.9386ZM26.0762 18.9315L25.6332 18.7101C25.6455 18.7065 25.6619 18.7065 25.6742 18.7065L26.1172 18.928C26.1049 18.928 26.0926 18.9315 26.0762 18.9315ZM26.1172 18.928L25.6742 18.7065H25.707L26.15 18.928H26.1172Z" fill="#291902"/>
<path d="M26.15 18.928L25.707 18.7065C25.7152 18.7065 25.7234 18.7065 25.7316 18.7101L26.1746 18.9315C26.1664 18.9315 26.1582 18.928 26.15 18.928Z" fill="#291902"/>
<path d="M26.1746 18.9317L25.7316 18.7102C25.7398 18.7102 25.748 18.7137 25.7521 18.7137L26.1951 18.9352C26.1869 18.9352 26.1828 18.9317 26.1746 18.9317Z" fill="#291902"/>
<path d="M26.1951 18.9351L25.7521 18.7136C25.7562 18.7136 25.7603 18.7171 25.7685 18.7171H25.7726L26.2156 18.9386H26.2115C26.2033 18.9386 26.1992 18.9351 26.1951 18.9351Z" fill="#291902"/>
<path d="M26.2115 18.9422L25.7686 18.7207C25.7768 18.7242 25.785 18.7277 25.7891 18.7312L26.232 18.9527C26.2279 18.9457 26.2197 18.9422 26.2115 18.9422ZM26.2361 18.9492L25.7932 18.7277H25.7973L26.2361 18.9492Z" fill="#291902"/>
<path d="M25.4568 19.7895L25.0139 19.568C25.0016 19.561 24.9893 19.554 24.9811 19.5434C24.9442 19.5118 24.9236 19.459 24.9236 19.3852C24.9236 19.3641 24.9236 19.3465 24.9277 19.3254L25.3707 19.5469C25.3666 19.568 25.3666 19.5891 25.3666 19.6067C25.3666 19.6805 25.3871 19.7333 25.424 19.7649C25.4363 19.7754 25.4445 19.7825 25.4568 19.7895Z" fill="#291902"/>
<path d="M25.3707 19.5468L24.9277 19.3253C24.9277 19.3112 24.9318 19.2972 24.9359 19.2866L25.3789 19.5081C25.3789 19.5222 25.3748 19.5362 25.3707 19.5468Z" fill="#291902"/>
<path d="M25.3789 19.5083L24.9359 19.2868C24.94 19.2763 24.94 19.2657 24.9441 19.2552L25.3871 19.4767C25.3871 19.4872 25.383 19.4978 25.3789 19.5083ZM25.3912 19.4767L24.9482 19.2552C24.9523 19.2446 24.9564 19.2376 24.9564 19.2271L25.3994 19.4485C25.3953 19.4591 25.3912 19.4696 25.3912 19.4767Z" fill="#291902"/>
<path d="M25.3994 19.4485L24.9564 19.227C24.9605 19.22 24.9646 19.2094 24.9687 19.2024L25.4117 19.4239C25.4076 19.4344 25.4035 19.4415 25.3994 19.4485Z" fill="#291902"/>
<path d="M25.4117 19.4237L24.9688 19.2022C24.9729 19.1952 24.977 19.1847 24.9811 19.1776L25.424 19.3991C25.4199 19.4062 25.4158 19.4167 25.4117 19.4237ZM25.424 19.3991L24.9811 19.1776C24.9811 19.1741 24.9852 19.1741 24.9852 19.1706C24.9893 19.1671 24.9893 19.1601 24.9934 19.1565L25.4363 19.378C25.4322 19.3815 25.4322 19.3886 25.4281 19.3921C25.424 19.3921 25.424 19.3956 25.424 19.3991ZM25.4363 19.3745L24.9934 19.153C24.9975 19.146 25.0016 19.139 25.0057 19.1284L25.4486 19.3499C25.4445 19.3605 25.4404 19.3675 25.4363 19.3745Z" fill="#291902"/>
<path d="M25.4486 19.3535L25.0057 19.132C25.0098 19.125 25.0139 19.118 25.0221 19.1074L25.465 19.3289C25.4568 19.3359 25.4527 19.3465 25.4486 19.3535Z" fill="#291902"/>
<path d="M25.4651 19.3289L25.0221 19.1074C25.0262 19.1003 25.0344 19.0898 25.0385 19.0828L25.4815 19.3042C25.4733 19.3113 25.4692 19.3218 25.4651 19.3289Z" fill="#291902"/>
<path d="M25.4814 19.3043L25.0385 19.0828C25.0467 19.0723 25.0508 19.0652 25.059 19.0547L25.5019 19.2762C25.4937 19.2867 25.4855 19.2973 25.4814 19.3043Z" fill="#291902"/>
<path d="M25.5019 19.2796L25.059 19.0582C25.0672 19.0476 25.0754 19.0371 25.0836 19.03L25.5265 19.2515C25.5183 19.2585 25.5101 19.2691 25.5019 19.2796ZM25.5265 19.248L25.0836 19.0265C25.0959 19.016 25.1041 19.0019 25.1164 18.9914L25.5594 19.2128C25.5511 19.2234 25.5388 19.2375 25.5265 19.248ZM25.5635 19.2128L25.1205 18.9914C25.1328 18.9808 25.141 18.9703 25.1533 18.9597L25.1697 18.9457L25.6127 19.1671L25.5963 19.1812C25.584 19.1917 25.5717 19.2023 25.5635 19.2128ZM25.6127 19.1671L25.1697 18.9457C25.2148 18.907 25.2681 18.8718 25.3215 18.8367L25.7644 19.0582C25.7111 19.0898 25.6578 19.1285 25.6127 19.1671Z" fill="#291902"/>
<path d="M25.8875 18.7593H25.9039C25.908 18.7593 25.9121 18.7628 25.9162 18.7628L25.4733 18.5414C25.4733 18.5414 25.4692 18.5414 25.4692 18.5378H25.4282C25.424 18.5378 25.4199 18.5414 25.4158 18.5449C25.4035 18.5484 25.3953 18.5554 25.3871 18.566L25.383 18.5695L25.3789 18.573L25.3707 18.58C25.3707 18.5835 25.3666 18.5835 25.3666 18.5871C25.3666 18.5906 25.3625 18.5906 25.3625 18.5941C25.3625 18.5976 25.3584 18.5976 25.3584 18.6011C25.3584 18.6046 25.3543 18.6046 25.3543 18.6082C25.3543 18.6117 25.3502 18.6117 25.3502 18.6152C25.3502 18.6187 25.3461 18.6187 25.3461 18.6222C25.3461 18.6257 25.342 18.6257 25.342 18.6292C25.342 18.6328 25.3379 18.6328 25.3379 18.6363V18.6433C25.3379 18.6468 25.3379 18.6503 25.3338 18.6539C25.3338 18.6574 25.3338 18.6609 25.3297 18.6644V18.8367L25.7727 19.0582V18.9C25.7727 18.8894 25.7768 18.8753 25.7809 18.8613C25.785 18.8472 25.7932 18.8367 25.8014 18.8226C25.8096 18.8121 25.8178 18.8015 25.8301 18.791C25.8424 18.7804 25.8506 18.7734 25.8629 18.7664C25.867 18.7628 25.8752 18.7628 25.8793 18.7593H25.8875Z" fill="#291902"/>
<path d="M26.3468 19.5223C26.3715 19.5539 26.3838 19.6031 26.3838 19.6699C26.3838 19.7473 26.3633 19.8281 26.3222 19.909C26.2812 19.9899 26.2238 20.0672 26.1459 20.141C26.0885 20.1938 26.0228 20.243 25.9531 20.2852V20.4258C25.9531 20.475 25.9121 20.5348 25.8629 20.5594C25.8136 20.584 25.7726 20.5629 25.7726 20.5172V20.3766C25.6865 20.4117 25.6127 20.4258 25.547 20.4188C25.4855 20.4152 25.4404 20.3906 25.4035 20.352C25.3666 20.3133 25.3461 20.2676 25.3461 20.2113C25.3461 20.1797 25.3584 20.1481 25.3789 20.1129C25.3994 20.0813 25.4281 20.0531 25.465 20.0391C25.4937 20.025 25.5183 20.0215 25.5347 20.0285C25.5552 20.0356 25.5717 20.0531 25.584 20.0813C25.6004 20.1129 25.6168 20.141 25.6373 20.1586C25.6578 20.1762 25.6824 20.1867 25.7193 20.1867C25.7357 20.1867 25.7521 20.1832 25.7685 20.1797V19.7824C25.6947 19.8 25.6291 19.8106 25.5758 19.8141C25.5142 19.8176 25.4609 19.8035 25.424 19.7684C25.3871 19.7367 25.3666 19.684 25.3666 19.6102C25.3666 19.5399 25.3871 19.466 25.424 19.3922C25.4609 19.3184 25.5183 19.2481 25.5922 19.1813C25.6414 19.1356 25.6988 19.0969 25.7603 19.0582V18.9C25.7603 18.8508 25.8013 18.791 25.8506 18.7664C25.8998 18.7418 25.9408 18.7629 25.9408 18.8121V18.9668C25.9859 18.9492 26.0269 18.9387 26.0597 18.9316C26.1172 18.9211 26.1664 18.9246 26.2033 18.9387C26.2402 18.9527 26.2689 18.9703 26.2894 18.9984C26.3058 19.0266 26.3181 19.0547 26.3181 19.0899C26.3181 19.1215 26.3058 19.1531 26.2853 19.1883C26.2648 19.2234 26.2361 19.2516 26.2033 19.2656C26.1746 19.2797 26.15 19.2832 26.1336 19.2762C26.1172 19.2691 26.1008 19.2516 26.0844 19.227C26.0597 19.1918 26.031 19.1672 25.9982 19.1567C25.9818 19.1531 25.9654 19.1531 25.9449 19.1567V19.4836C25.9982 19.4695 26.0474 19.459 26.0926 19.4555C26.1541 19.4449 26.2033 19.4449 26.2443 19.4555C26.2894 19.4695 26.3222 19.4906 26.3468 19.5223ZM26.0474 19.9969C26.0967 19.9371 26.1213 19.8809 26.1213 19.8246C26.1213 19.7824 26.109 19.7543 26.0802 19.7402C26.0556 19.7262 26.0187 19.7227 25.9777 19.7297C25.9695 19.7297 25.9572 19.7332 25.9449 19.7367V20.0883C25.9859 20.0637 26.0187 20.032 26.0474 19.9969ZM25.7685 19.5328V19.2445C25.7316 19.2692 25.7029 19.2973 25.6783 19.3254C25.6373 19.3746 25.6168 19.4203 25.6168 19.4625C25.6168 19.4871 25.625 19.5082 25.6373 19.5188C25.6537 19.5293 25.6701 19.5363 25.6947 19.5363C25.7152 19.5399 25.7439 19.5399 25.7685 19.5328Z" fill="white"/>
<path d="M30.8586 16.8187C30.8545 16.8151 30.8504 16.8151 30.8463 16.8116C30.8258 16.8011 30.8053 16.7905 30.7807 16.7835C30.7766 16.78 30.7683 16.78 30.7642 16.7765C30.7519 16.7729 30.7396 16.7659 30.7273 16.7624C30.7191 16.7589 30.7109 16.7554 30.7027 16.7554C30.6945 16.7519 30.6904 16.7519 30.6822 16.7483C30.6576 16.7413 30.6289 16.7343 30.6043 16.7272H30.6002C30.5756 16.7202 30.5469 16.7167 30.5223 16.7097C30.5141 16.7097 30.5058 16.7062 30.4976 16.7062C30.4894 16.7062 30.4812 16.7026 30.473 16.7026C30.4566 16.6991 30.4443 16.6991 30.4279 16.6956C30.4238 16.6956 30.4156 16.6956 30.4115 16.6921C30.3869 16.6886 30.3582 16.6886 30.3336 16.6851H30.1777C30.1613 16.6851 30.149 16.6886 30.1326 16.6886C30.1203 16.6886 30.1121 16.6886 30.0998 16.6921C30.067 16.6956 30.0383 16.6991 30.0055 16.7026H30.0014C29.9685 16.7062 29.9316 16.7132 29.8947 16.7202C29.8824 16.7237 29.8701 16.7237 29.8619 16.7272C29.8414 16.7308 29.8168 16.7343 29.7963 16.7413H29.7881C29.7471 16.7519 29.706 16.7624 29.6609 16.7765C29.6527 16.78 29.6445 16.7835 29.6363 16.7835C29.6035 16.794 29.5666 16.8046 29.5338 16.8187C29.5297 16.8187 29.5256 16.8222 29.5215 16.8222L29.4353 16.8538C29.4312 16.8538 29.4271 16.8573 29.423 16.8573C29.3902 16.8714 29.3574 16.8819 29.3287 16.896C29.3205 16.8995 29.3082 16.903 29.3 16.9101C29.2631 16.9276 29.2262 16.9417 29.1933 16.9593C29.1564 16.9769 29.1195 16.9979 29.0826 17.019L29.0457 17.0401L28.9719 17.0823C28.9596 17.0894 28.9432 17.0999 28.9308 17.1069C28.9062 17.121 28.8857 17.1351 28.8611 17.1491C28.8488 17.1597 28.8324 17.1667 28.8201 17.1772C28.7955 17.1913 28.775 17.2089 28.7504 17.2229C28.7381 17.2335 28.7258 17.2405 28.7094 17.2511C28.6848 17.2687 28.656 17.2862 28.6314 17.3073C28.6232 17.3144 28.6109 17.3214 28.6027 17.3284C28.5699 17.353 28.533 17.3812 28.5002 17.4093L28.4797 17.4269C28.4551 17.4444 28.4346 17.462 28.41 17.4831L28.4017 17.4901C28.3607 17.5253 28.3197 17.5604 28.2828 17.5956C28.2828 17.5991 28.2787 17.5991 28.2787 17.6026L28.168 17.7081L28.1557 17.7187C28.1433 17.7327 28.1269 17.7468 28.1146 17.7608C28.0982 17.7749 28.0859 17.789 28.0695 17.8065C28.0531 17.8241 28.0326 17.8452 28.0162 17.8628C28.0039 17.8769 27.9875 17.8944 27.9752 17.9085C27.9711 17.912 27.9711 17.9155 27.967 17.9155C27.9629 17.919 27.9588 17.9261 27.9547 17.9296C27.9096 17.9788 27.8685 18.028 27.8234 18.0808C27.8193 18.0843 27.8152 18.0913 27.8111 18.0948C27.8111 18.0983 27.807 18.0983 27.807 18.1019C27.766 18.1511 27.725 18.2038 27.6881 18.253C27.684 18.2565 27.6799 18.2636 27.6758 18.2671C27.6717 18.2741 27.6635 18.2812 27.6594 18.2882C27.6266 18.3304 27.5978 18.3726 27.5691 18.4147C27.565 18.4218 27.5609 18.4288 27.5527 18.4358C27.5527 18.4394 27.5486 18.4394 27.5486 18.4429L27.4502 18.5905C27.4461 18.594 27.4461 18.5976 27.442 18.6011C27.4379 18.6081 27.4338 18.6187 27.4256 18.6257C27.401 18.6644 27.3764 18.7065 27.3558 18.7452C27.3517 18.7522 27.3476 18.7628 27.3394 18.7698C27.3353 18.7733 27.3353 18.7804 27.3312 18.7839C27.3025 18.8366 27.2738 18.8858 27.2492 18.9386C27.2492 18.9386 27.2492 18.9421 27.2451 18.9421C27.241 18.9491 27.241 18.9526 27.2369 18.9597C27.2123 19.0054 27.1918 19.0546 27.1713 19.1003L27.159 19.1214C27.1549 19.1284 27.1549 19.1355 27.1508 19.139C27.1262 19.1952 27.1016 19.2515 27.081 19.3077V19.3112C27.0687 19.3499 27.0523 19.3851 27.04 19.4237L27.0277 19.4554C27.0195 19.4765 27.0113 19.4976 27.0072 19.5187C27.0031 19.5257 27.0031 19.5327 26.999 19.5397C26.9949 19.5573 26.9867 19.5749 26.9826 19.5925C26.9744 19.6171 26.9703 19.6382 26.9621 19.6628L26.9498 19.7155C26.9457 19.7261 26.9416 19.7401 26.9416 19.7507C26.9375 19.7577 26.9375 19.7683 26.9375 19.7753C26.9293 19.7999 26.9252 19.828 26.9211 19.8526C26.917 19.8702 26.9129 19.8878 26.9088 19.9089C26.9047 19.937 26.9006 19.9616 26.8965 19.9897C26.8924 20.0038 26.8924 20.0144 26.8883 20.0284C26.8883 20.0354 26.8883 20.039 26.8842 20.046C26.8842 20.0601 26.8801 20.0706 26.8801 20.0847C26.876 20.1093 26.8719 20.1374 26.8719 20.162C26.8719 20.1761 26.8678 20.1901 26.8678 20.2007C26.8637 20.2253 26.8637 20.2534 26.8637 20.278V20.3132C26.8637 20.3519 26.8596 20.387 26.8596 20.4222C26.8637 21.055 27.1221 21.5015 27.5445 21.7124L27.9465 21.9128C27.524 21.7019 27.2656 21.2589 27.2615 20.6226C27.2615 20.5874 27.2615 20.5487 27.2656 20.5136V20.4784C27.2656 20.4538 27.2697 20.4257 27.2697 20.4011C27.2697 20.387 27.2738 20.3729 27.2738 20.3624C27.2779 20.3378 27.2779 20.3097 27.282 20.2851C27.282 20.271 27.2861 20.2605 27.2861 20.2464C27.2902 20.2288 27.2902 20.2112 27.2943 20.1937C27.2984 20.1655 27.3025 20.1409 27.3066 20.1128C27.3107 20.0952 27.3148 20.0776 27.3189 20.0565C27.323 20.0319 27.3312 20.0038 27.3353 19.9792C27.3394 19.9581 27.3435 19.937 27.3517 19.9159L27.3641 19.8632C27.3723 19.8386 27.3764 19.8175 27.3846 19.7929C27.3887 19.7753 27.3969 19.7577 27.401 19.7401C27.4092 19.712 27.4174 19.6839 27.4297 19.6558L27.442 19.6241C27.4543 19.5854 27.4707 19.5468 27.483 19.5116C27.5035 19.4554 27.5281 19.3991 27.5527 19.3429C27.5609 19.3288 27.565 19.3147 27.5732 19.3007C27.5937 19.255 27.6183 19.2058 27.6389 19.1601L27.6512 19.139C27.6758 19.0862 27.7045 19.037 27.7332 18.9843C27.7414 18.9702 27.7496 18.9562 27.7578 18.9456C27.7824 18.9034 27.8029 18.8647 27.8275 18.8261C27.8357 18.812 27.8439 18.8015 27.8521 18.7874L27.9506 18.6397C27.9588 18.6292 27.9629 18.6222 27.9711 18.6116C27.9998 18.5694 28.0326 18.5272 28.0613 18.4851C28.0695 18.471 28.0777 18.4604 28.09 18.4464C28.1269 18.3937 28.168 18.3444 28.209 18.2952C28.2172 18.2882 28.2213 18.2812 28.2295 18.2741C28.2705 18.2214 28.3156 18.1722 28.3607 18.1229C28.3689 18.1159 28.373 18.1089 28.3812 18.1019C28.3935 18.0878 28.41 18.0702 28.4223 18.0562C28.4387 18.0386 28.4592 18.0175 28.4756 17.9999C28.492 17.9858 28.5043 17.9683 28.5207 17.9542C28.5371 17.9366 28.5535 17.919 28.574 17.9015L28.6848 17.796L28.6889 17.7925C28.7299 17.7573 28.7668 17.7222 28.8078 17.687C28.8324 17.6659 28.8611 17.6448 28.8857 17.6237L28.9062 17.6062C28.9391 17.578 28.976 17.5534 29.0088 17.5253C29.017 17.5183 29.0293 17.5112 29.0375 17.5042C29.0621 17.4866 29.0867 17.4655 29.1154 17.4479C29.1277 17.4374 29.14 17.4304 29.1564 17.4198C29.181 17.4058 29.2016 17.3882 29.2262 17.3741C29.2385 17.3636 29.2549 17.3565 29.2672 17.346C29.2918 17.3319 29.3123 17.3179 29.3369 17.3038C29.3492 17.2968 29.3656 17.2862 29.3779 17.2792L29.4517 17.237L29.4887 17.2159C29.5256 17.1948 29.5625 17.1772 29.5994 17.1562C29.6363 17.1386 29.6732 17.121 29.706 17.1069C29.7142 17.1034 29.7266 17.0999 29.7348 17.0929C29.7676 17.0788 29.8004 17.0647 29.8291 17.0542C29.8332 17.0542 29.8373 17.0507 29.8414 17.0507C29.8742 17.0366 29.907 17.0261 29.9398 17.0155C29.9767 17.005 30.0096 16.9909 30.0424 16.9804C30.0506 16.9769 30.0588 16.9733 30.067 16.9733C30.108 16.9593 30.1531 16.9487 30.1941 16.9382C30.2187 16.9312 30.2433 16.9276 30.268 16.9241C30.2803 16.9206 30.2926 16.9206 30.3008 16.9171C30.3377 16.9101 30.3705 16.9065 30.4074 16.8995H30.4115C30.4443 16.896 30.4771 16.8925 30.5058 16.889C30.5182 16.889 30.5264 16.889 30.5387 16.8854C30.5633 16.8854 30.5838 16.8819 30.6043 16.8819H30.7273C30.756 16.8819 30.7848 16.8854 30.8135 16.889C30.8176 16.889 30.8258 16.889 30.8299 16.8925C30.8545 16.896 30.875 16.8995 30.8996 16.903C30.9078 16.903 30.916 16.9065 30.9242 16.9065C30.9488 16.9101 30.9775 16.9171 31.0021 16.9241H31.0062C31.035 16.9312 31.0596 16.9382 31.0842 16.9452C31.0924 16.9487 31.0965 16.9487 31.1047 16.9522L31.1662 16.9733C31.1703 16.9769 31.1785 16.9769 31.1826 16.9804C31.2072 16.9909 31.2359 17.0015 31.2605 17.0155L30.8586 16.8187Z" fill="#C68620"/>
<path d="M29.5953 17.1598C30.8914 16.5199 31.9414 17.0332 31.9496 18.3094C31.9578 19.5856 30.9078 21.1395 29.6117 21.7793C28.3156 22.4192 27.2656 21.9059 27.2615 20.6297C27.2574 19.3535 28.2992 17.8031 29.5953 17.1598Z" fill="#FFCD2E"/>
<path d="M29.8332 18.3481C29.8701 18.3305 29.9111 18.3235 29.9398 18.3376C29.9973 18.3657 29.9973 18.4606 29.9398 18.545L29.5912 19.0618L29.9152 18.9036C29.9973 18.8614 30.067 18.8965 30.067 18.9774C30.067 19.0583 30.0014 19.1567 29.9193 19.1989L29.5338 19.3887V19.5856L29.9193 19.3958C30.0014 19.3536 30.0711 19.3887 30.0711 19.4696C30.0711 19.5504 30.0055 19.6489 29.9234 19.6911L29.5379 19.8809V20.1411C29.5379 20.2219 29.4723 20.3204 29.3902 20.3626C29.3082 20.4047 29.2426 20.3696 29.2426 20.2887V20.0286L28.857 20.2184C28.775 20.2606 28.7094 20.2255 28.7053 20.1446C28.7053 20.0637 28.7709 19.9653 28.8529 19.9231L29.2385 19.7333V19.5364L28.8529 19.7262C28.7709 19.7684 28.7053 19.7333 28.7012 19.6524C28.7012 19.5715 28.7668 19.4731 28.8488 19.4309L29.1729 19.2727L28.8242 19.1004C28.7668 19.0723 28.7668 18.9774 28.8242 18.893C28.8529 18.8508 28.8898 18.8157 28.9309 18.7981C28.9678 18.7805 29.0088 18.7735 29.0375 18.7876L29.3861 18.9563L29.7348 18.443C29.7594 18.4008 29.7963 18.3692 29.8332 18.3481Z" fill="#C68620"/>
<path d="M29.583 20.5171V20.2569L29.2877 20.1093V20.3694C29.2877 20.4116 29.3041 20.4397 29.3328 20.4503L29.6281 20.598C29.5994 20.5874 29.583 20.5593 29.583 20.5171ZM30.2967 19.6101C30.3049 19.6065 30.3131 19.6065 30.3213 19.6065H30.35C30.3582 19.6065 30.3664 19.6101 30.3705 19.6136L30.0752 19.4659C30.0711 19.4659 30.0711 19.4624 30.067 19.4624C30.0629 19.4624 30.0629 19.4624 30.0588 19.4589H30.026C30.0219 19.4589 30.0178 19.4589 30.0137 19.4624H30.0055C30.0014 19.4624 30.0014 19.4624 29.9973 19.4659C29.9891 19.4694 29.985 19.473 29.9768 19.4765L29.5912 19.6663L29.8865 19.814L30.2721 19.6241C30.2803 19.6206 30.2926 19.6171 30.3008 19.6136C30.2967 19.6136 30.2967 19.6101 30.2967 19.6101ZM30.2967 19.1214C30.3049 19.1179 30.3131 19.1179 30.3213 19.1179H30.35C30.3582 19.1179 30.3664 19.1214 30.3705 19.1249L30.0752 18.9772C30.0711 18.9772 30.0711 18.9737 30.067 18.9737C30.0629 18.9737 30.0629 18.9737 30.0588 18.9702H30.026C30.0219 18.9702 30.0178 18.9702 30.0137 18.9737H30.0055C30.0014 18.9737 30.0014 18.9737 29.9973 18.9772C29.9891 18.9808 29.985 18.9843 29.9768 18.9878L29.6528 19.146L29.9481 19.2937L30.2721 19.1354C30.2803 19.1319 30.2926 19.1284 30.3008 19.1249C30.2926 19.1214 30.2967 19.1214 30.2967 19.1214ZM29.583 19.9616L29.2877 19.814V19.6171L29.583 19.7647V19.9616Z" fill="#291902"/>
<path d="M29.0539 20.3378C29.0539 20.3273 29.058 20.3203 29.0621 20.3097V20.3062L29.0744 20.2746C29.0785 20.264 29.0867 20.2535 29.0908 20.2429C29.099 20.2324 29.1031 20.2253 29.1113 20.2148L29.1154 20.2113C29.1236 20.2042 29.1277 20.1972 29.1359 20.1902L29.14 20.1867C29.1441 20.1796 29.1523 20.1761 29.1605 20.1726L29.1687 20.1656C29.1769 20.1585 29.1892 20.155 29.1974 20.148L29.583 19.9582L29.2877 19.8105L28.9062 20.0039C28.898 20.0074 28.8857 20.0144 28.8775 20.0214L28.8693 20.0285L28.857 20.039L28.8529 20.0425L28.8488 20.046L28.8447 20.0496C28.8406 20.0531 28.8365 20.0566 28.8324 20.0636L28.8283 20.0671L28.8242 20.0707L28.8201 20.0742C28.816 20.0777 28.816 20.0812 28.8119 20.0847C28.8078 20.0882 28.8078 20.0917 28.8037 20.0953C28.8037 20.0988 28.7996 20.1023 28.7996 20.1058C28.7955 20.1093 28.7955 20.1128 28.7914 20.1164C28.7914 20.1199 28.7873 20.1234 28.7873 20.1269C28.7873 20.1304 28.7832 20.1339 28.7832 20.1375C28.7832 20.141 28.7791 20.1445 28.7791 20.148C28.7791 20.1515 28.7791 20.1515 28.775 20.155V20.1621C28.775 20.1656 28.7709 20.1726 28.7709 20.1761V20.2183C28.7709 20.257 28.7873 20.2886 28.816 20.2992L29.1113 20.4468C29.0826 20.4328 29.0662 20.4046 29.0662 20.366C29.0662 20.3554 29.0662 20.3449 29.0703 20.3378C29.0539 20.3414 29.0539 20.3414 29.0539 20.3378ZM30.1244 18.6187L30.1285 18.6152C30.1326 18.6082 30.1408 18.6046 30.1449 18.6011L30.1531 18.5941C30.1613 18.5871 30.1695 18.5835 30.1818 18.5765L30.2064 18.566H30.2105C30.2187 18.5625 30.2269 18.5625 30.2351 18.5625H30.2638C30.272 18.5625 30.2802 18.566 30.2885 18.5695L29.9931 18.4218C29.989 18.4218 29.989 18.4183 29.9849 18.4183C29.9808 18.4183 29.9808 18.4183 29.9767 18.4148H29.9398C29.9357 18.4148 29.9316 18.4148 29.9275 18.4183C29.9234 18.4183 29.9234 18.4183 29.9193 18.4218H29.9111C29.9029 18.4253 29.8988 18.4289 29.8906 18.4324C29.8824 18.4359 29.8742 18.4429 29.8619 18.45L29.8537 18.457C29.8496 18.4605 29.8455 18.464 29.8373 18.4675L29.8332 18.471L29.8291 18.4746L29.8209 18.4816C29.8168 18.4851 29.8127 18.4886 29.8086 18.4957C29.8086 18.4957 29.8086 18.4992 29.8045 18.4992V18.5027C29.8045 18.5062 29.8004 18.5062 29.8004 18.5097C29.7963 18.5132 29.7963 18.5167 29.7922 18.5203C29.7881 18.5238 29.7881 18.5273 29.784 18.5308L29.4353 19.0441L29.7306 19.1917L30.0793 18.6785C30.0875 18.6679 30.0957 18.6574 30.0998 18.6503V18.6468C30.108 18.6328 30.1162 18.6257 30.1244 18.6187Z" fill="#291902"/>
<path d="M29.0496 19.8492C29.0496 19.8387 29.0537 19.8316 29.0578 19.8211V19.8176L29.0701 19.7859C29.0742 19.7754 29.0824 19.7648 29.0865 19.7543C29.0947 19.7438 29.0988 19.7367 29.107 19.7262V19.7227C29.1152 19.7156 29.1193 19.7086 29.1275 19.7016L29.1316 19.698C29.1357 19.691 29.1439 19.6875 29.1521 19.684L29.1603 19.677C29.1685 19.6699 29.1808 19.6664 29.189 19.6594L29.513 19.5012L29.2177 19.3535L28.8937 19.5117C28.8855 19.5152 28.8732 19.5223 28.865 19.5293L28.8568 19.5363L28.8445 19.5469L28.8404 19.5504L28.8363 19.5539C28.8363 19.5574 28.8322 19.5574 28.8322 19.5609C28.8281 19.5645 28.824 19.568 28.8199 19.575L28.8158 19.5785L28.8117 19.582L28.8076 19.5855C28.8035 19.5891 28.8035 19.5926 28.7994 19.5961C28.7953 19.5996 28.7953 19.6031 28.7912 19.6066C28.7912 19.6102 28.7871 19.6137 28.7871 19.6172C28.783 19.6207 28.783 19.6242 28.7789 19.6277C28.7789 19.6312 28.7748 19.6348 28.7748 19.6383C28.7748 19.6418 28.7707 19.6453 28.7707 19.6488C28.7707 19.6523 28.7666 19.6559 28.7666 19.6594C28.7666 19.6629 28.7666 19.6629 28.7625 19.6664V19.6734C28.7625 19.677 28.7584 19.684 28.7584 19.6875V19.7297C28.7584 19.7684 28.7748 19.8 28.8035 19.8105L29.0988 19.9582C29.0701 19.9441 29.0537 19.916 29.0537 19.8773C29.0537 19.8668 29.0537 19.8562 29.0578 19.8492C29.0496 19.8527 29.0496 19.8492 29.0496 19.8492Z" fill="#291902"/>
<path d="M29.382 19.0195L29.0867 18.8718L29.4354 19.0441L29.7307 19.1882L29.382 19.0195Z" fill="#8D929A"/>
<path d="M30.1817 18.5766C30.2186 18.559 30.2596 18.552 30.2883 18.5661C30.3457 18.5942 30.3457 18.6891 30.2883 18.7735L29.9397 19.2903L30.2637 19.1321C30.3457 19.0899 30.4154 19.1251 30.4154 19.2059C30.4154 19.2868 30.3498 19.3852 30.2678 19.4274L29.8822 19.6172V19.8141L30.2678 19.6243C30.3498 19.5821 30.4195 19.6172 30.4195 19.6981C30.4195 19.779 30.3539 19.8774 30.2719 19.9196L29.8863 20.1094V20.3696C29.8863 20.4505 29.8207 20.5489 29.7387 20.5911C29.6567 20.6333 29.591 20.5981 29.591 20.5172V20.2571L29.2055 20.4469C29.1234 20.4891 29.0578 20.454 29.0537 20.3731C29.0537 20.2922 29.1193 20.1938 29.2014 20.1516L29.5869 19.9618V19.7649L29.2014 19.9547C29.1193 19.9969 29.0537 19.9618 29.0496 19.8809C29.0496 19.8001 29.1152 19.7016 29.1973 19.6594L29.5213 19.5012L29.1727 19.329C29.1152 19.3008 29.1152 19.2059 29.1727 19.1215C29.2014 19.0794 29.2383 19.0442 29.2793 19.0266C29.3162 19.009 29.3572 19.002 29.386 19.0161L29.7346 19.1848L30.0832 18.6715C30.1037 18.6294 30.1447 18.5977 30.1817 18.5766Z" fill="white"/>
<path d="M29.1688 19.3323L28.8735 19.1847C28.8365 19.1671 28.8242 19.1249 28.8324 19.0757L29.1278 19.2233C29.1196 19.2726 29.136 19.3147 29.1688 19.3323Z" fill="#291902"/>
<path d="M29.1277 19.2233L28.8324 19.0757C28.8324 19.0687 28.8365 19.0651 28.8365 19.0581L29.1318 19.2058C29.1277 19.2128 29.1277 19.2163 29.1277 19.2233Z" fill="#291902"/>
<path d="M29.1319 19.2059L28.8365 19.0583C28.8365 19.0547 28.8407 19.0477 28.8407 19.0442L29.136 19.1918C29.1319 19.1954 29.1319 19.2024 29.1319 19.2059Z" fill="#291902"/>
<path d="M29.1359 19.1917L28.8406 19.0441C28.8406 19.0406 28.8447 19.0371 28.8447 19.03L29.1401 19.1777C29.1401 19.1812 29.1359 19.1882 29.1359 19.1917Z" fill="#291902"/>
<path d="M29.14 19.1777L28.8447 19.0301C28.8447 19.0266 28.8488 19.023 28.8488 19.0195L29.1441 19.1672C29.1441 19.1707 29.14 19.1742 29.14 19.1777Z" fill="#291902"/>
<path d="M29.1441 19.1672L28.8488 19.0195C28.8488 19.016 28.8529 19.0125 28.8529 19.009L29.1482 19.1566C29.1482 19.1602 29.1482 19.1637 29.1441 19.1672ZM29.1523 19.1531L28.857 19.0055C28.857 19.002 28.8611 18.9984 28.8611 18.9949L29.1564 19.1426C29.1523 19.1461 29.1523 19.1496 29.1523 19.1531ZM29.1564 19.1426L28.8611 18.9949C28.8652 18.9914 28.8652 18.9879 28.8693 18.9844L29.1646 19.132C29.1605 19.1355 29.1564 19.1391 29.1564 19.1426Z" fill="#291902"/>
<path d="M29.1646 19.1321L28.8693 18.9844C28.8734 18.9809 28.8734 18.9774 28.8775 18.9739L29.1728 19.1215C29.1687 19.125 29.1646 19.1286 29.1646 19.1321Z" fill="#291902"/>
<path d="M29.1687 19.1216L28.8734 18.9739C28.8775 18.9704 28.8775 18.9669 28.8816 18.9634L29.1769 19.111C29.1769 19.1145 29.1728 19.1181 29.1687 19.1216Z" fill="#291902"/>
<path d="M29.177 19.1109L28.8817 18.9633C28.8858 18.9598 28.8858 18.9562 28.8899 18.9527L29.1852 19.1004C29.1852 19.1039 29.1811 19.1074 29.177 19.1109ZM29.1852 19.1004L28.8899 18.9527C28.894 18.9492 28.8981 18.9457 28.8981 18.9422L29.1934 19.0898C29.1934 19.0934 29.1893 19.0969 29.1852 19.1004ZM29.1975 19.0898L28.9022 18.9422C28.9063 18.9387 28.9104 18.9352 28.9145 18.9281L29.2098 19.0758C29.2057 19.0793 29.2016 19.0828 29.1975 19.0898ZM29.2098 19.0758L28.9145 18.9281L28.9309 18.9141L29.2262 19.0617C29.218 19.0652 29.2139 19.0687 29.2098 19.0758Z" fill="#291902"/>
<path d="M29.2262 19.0618L28.9308 18.9141C28.9473 18.9 28.9637 18.8895 28.9801 18.879C28.9883 18.8754 28.9924 18.8719 29.0006 18.8684L29.2959 19.0161C29.2877 19.0196 29.2836 19.0231 29.2754 19.0266C29.259 19.0372 29.2426 19.0477 29.2262 19.0618Z" fill="#291902"/>
<path d="M29.2959 19.0195L29.0006 18.8719C29.0047 18.8684 29.0129 18.8684 29.017 18.8684L29.3123 19.016C29.3082 19.016 29.3 19.016 29.2959 19.0195ZM29.3123 19.0125L29.017 18.8648C29.0211 18.8648 29.0252 18.8613 29.0293 18.8613L29.3246 19.009C29.3205 19.0125 29.3164 19.0125 29.3123 19.0125Z" fill="#291902"/>
<path d="M29.3248 19.0125L29.0295 18.8648H29.0418L29.3371 19.0125C29.333 19.009 29.3289 19.009 29.3248 19.0125ZM29.3371 19.009L29.0418 18.8613H29.05L29.3453 19.009H29.3371ZM29.3494 19.009L29.0541 18.8613H29.0623L29.3576 19.009H29.3494Z" fill="#291902"/>
<path d="M29.3577 19.0124L29.0624 18.8647H29.0706L29.3659 19.0124H29.3577Z" fill="#291902"/>
<path d="M29.3656 19.0124L29.0703 18.8647C29.0744 18.8647 29.0744 18.8647 29.0785 18.8683L29.3738 19.0159C29.3697 19.0124 29.3656 19.0124 29.3656 19.0124Z" fill="#291902"/>
<path d="M29.3738 19.0161L29.0785 18.8684C29.0826 18.8684 29.0826 18.8719 29.0867 18.8719L29.382 19.0196C29.3779 19.0161 29.3738 19.0161 29.3738 19.0161Z" fill="#291902"/>
</svg>
