<svg width="17" height="16" viewBox="0 0 17 16" fill="none" xmlns="http://www.w3.org/2000/svg">
<path d="M4.55498 4.35879L4.555 4.35904L4.56793 4.35743C4.70935 4.33975 4.8611 4.33333 5.02659 4.33333H9.29325C10.3049 4.33333 11.0036 4.5868 11.4517 5.03487C11.8998 5.48294 12.1533 6.18165 12.1533 7.19333V9.86C12.1533 10.0255 12.1468 10.1772 12.1292 10.3187L12.1289 10.3186L12.1278 10.3317C12.0563 11.1713 11.7788 11.7517 11.3359 12.1275C10.8886 12.5071 10.2233 12.72 9.29325 12.72H9.02659C8.755 12.72 8.4962 12.8494 8.33325 13.0667L7.53325 14.1333L7.5328 14.1339C7.40902 14.2998 7.27068 14.355 7.15992 14.355C7.04916 14.355 6.91082 14.2998 6.78704 14.1339L6.78659 14.1333L5.98659 13.0667L5.9866 13.0667L5.9847 13.0642C5.90244 12.9566 5.78746 12.8746 5.67943 12.82C5.57163 12.7655 5.43445 12.72 5.29325 12.72H5.02659C3.96872 12.72 3.28407 12.5832 2.85167 12.2056C2.43047 11.8378 2.16659 11.1647 2.16659 9.86V7.19333C2.16659 6.26387 2.38089 5.59845 2.76138 5.15091C3.13822 4.70765 3.71894 4.43027 4.55498 4.35879ZM3.83325 8.66667C3.83325 9.21525 4.27365 9.66667 4.83325 9.66667C5.38401 9.66667 5.83325 9.21743 5.83325 8.66667C5.83325 8.11591 5.38401 7.66667 4.83325 7.66667C4.28249 7.66667 3.83325 8.11591 3.83325 8.66667ZM6.15992 8.66667C6.15992 9.21525 6.60032 9.66667 7.15992 9.66667C7.71952 9.66667 8.15992 9.21525 8.15992 8.66667C8.15992 8.11591 7.71068 7.66667 7.15992 7.66667C6.60916 7.66667 6.15992 8.11591 6.15992 8.66667ZM8.49325 8.66667C8.49325 9.21525 8.93365 9.66667 9.49325 9.66667C10.044 9.66667 10.4933 9.21743 10.4933 8.66667C10.4933 8.11591 10.044 7.66667 9.49325 7.66667C8.94249 7.66667 8.49325 8.11591 8.49325 8.66667Z" fill="#512E4E" stroke="#512E4E" stroke-width="0.666667"/>
<path d="M15.1534 4.52634V7.19301C15.1534 8.52634 14.7401 9.43301 13.9134 9.93301C13.7134 10.053 13.4801 9.89301 13.4801 9.65967L13.4867 7.19301C13.4867 4.52634 11.9601 2.99967 9.29342 2.99967L5.23342 3.00634C5.00008 3.00634 4.84008 2.77301 4.96008 2.57301C5.46008 1.74634 6.36675 1.33301 7.69342 1.33301H11.9601C14.0868 1.33301 15.1534 2.39967 15.1534 4.52634Z" fill="#512E4E"/>
</svg>
