<svg width="1082" height="10" viewBox="0 0 1082 10" fill="none" xmlns="http://www.w3.org/2000/svg">
<path d="M0.848145 4.87304C0.848145 7.69092 2.23952 9.55698 4.58354 9.55698C6.91503 9.55698 8.3064 7.69092 8.3064 4.87304C8.3064 2.06769 6.85235 0.164062 4.58354 0.164062C2.30219 0.164062 0.848145 2.06769 0.848145 4.87304ZM2.06403 4.87304C2.06403 2.61874 2.99161 1.26616 4.58354 1.26616C6.17547 1.26616 7.09052 2.61874 7.09052 4.87304C7.09052 7.1023 6.17547 8.45488 4.58354 8.45488C2.99161 8.45488 2.06403 7.1023 2.06403 4.87304Z" fill="#64748B"/>
<path fill-rule="evenodd" clip-rule="evenodd" d="M28.6258 4.02738H26.832V3.13281L28.6258 3.13281V4.02738ZM35.8007 4.02738H32.2133V3.13281L35.8007 3.13281V4.02738ZM42.9757 4.02738H39.3882V3.13281L42.9757 3.13281V4.02738ZM50.1507 4.02738L46.5632 4.02738V3.13281L50.1507 3.13281V4.02738ZM57.3257 4.02738L53.7382 4.02738V3.13281L57.3257 3.13281V4.02738ZM64.5006 4.02738L60.9131 4.02738V3.13281L64.5006 3.13281V4.02738ZM71.6756 4.02738L68.0881 4.02738V3.13281L71.6756 3.13281V4.02738ZM78.8506 4.02738L75.2631 4.02738V3.13281L78.8506 3.13281V4.02738ZM86.0255 4.02738L82.4381 4.02738V3.13281L86.0255 3.13281V4.02738ZM93.2005 4.02738L89.613 4.02738V3.13281L93.2005 3.13281V4.02738ZM100.376 4.02738L96.788 4.02738V3.13281L100.376 3.13281V4.02738ZM107.55 4.02738L103.963 4.02738V3.13281L107.55 3.13281V4.02738ZM114.725 4.02738L111.138 4.02738V3.13281L114.725 3.13281V4.02738ZM121.9 4.02738L118.313 4.02738V3.13281L121.9 3.13281V4.02738ZM129.075 4.02738L125.488 4.02738V3.13281L129.075 3.13281V4.02738ZM136.25 4.02738L132.663 4.02738V3.13281L136.25 3.13281V4.02738ZM143.425 4.02738L139.838 4.02738V3.13281L143.425 3.13281V4.02738ZM150.6 4.02738L147.013 4.02738V3.13281L150.6 3.13281V4.02738ZM157.775 4.02738L154.188 4.02738V3.13281L157.775 3.13281V4.02738ZM164.95 4.02738L161.363 4.02738V3.13281L164.95 3.13281V4.02738ZM172.125 4.02738L168.538 4.02738V3.13281L172.125 3.13281V4.02738ZM179.3 4.02738L175.713 4.02738V3.13281L179.3 3.13281V4.02738ZM186.475 4.02738L182.888 4.02738V3.13281L186.475 3.13281V4.02738ZM193.65 4.02738L190.063 4.02738V3.13281L193.65 3.13281V4.02738ZM200.825 4.02738L197.238 4.02738V3.13281L200.825 3.13281V4.02738ZM208 4.02738L204.413 4.02738V3.13281L208 3.13281V4.02738ZM215.175 4.02738L211.588 4.02738V3.13281L215.175 3.13281V4.02738ZM222.35 4.02738L218.763 4.02738V3.13281L222.35 3.13281V4.02738ZM229.525 4.02738L225.938 4.02738V3.13281L229.525 3.13281V4.02738ZM236.7 4.02738L233.113 4.02738V3.13281L236.7 3.13281V4.02738ZM243.875 4.02738L240.288 4.02738V3.13281L243.875 3.13281V4.02738ZM251.05 4.02738L247.463 4.02738V3.13281L251.05 3.13281V4.02738ZM258.225 4.02738L254.637 4.02738V3.13281L258.225 3.13281V4.02738ZM265.4 4.02738L261.812 4.02738V3.13281L265.4 3.13281V4.02738ZM272.575 4.02738L268.987 4.02738V3.13281L272.575 3.13281V4.02738ZM279.75 4.02738L276.162 4.02738V3.13281L279.75 3.13281V4.02738ZM286.925 4.02738L283.337 4.02738V3.13281L286.925 3.13281V4.02738ZM294.1 4.02738L290.512 4.02738V3.13281L294.1 3.13281V4.02738ZM301.275 4.02738L297.687 4.02738V3.13281L301.275 3.13281V4.02738ZM308.45 4.02738L304.862 4.02738V3.13281L308.45 3.13281V4.02738ZM315.625 4.02738L312.037 4.02738V3.13281L315.625 3.13281V4.02738ZM322.8 4.02738L319.212 4.02738V3.13281L322.8 3.13281V4.02738ZM329.975 4.02738L326.387 4.02738V3.13281L329.975 3.13281V4.02738ZM337.15 4.02738L333.562 4.02738V3.13281L337.15 3.13281V4.02738ZM344.325 4.02738L340.737 4.02738V3.13281L344.325 3.13281V4.02738ZM351.5 4.02738L347.912 4.02738V3.13281L351.5 3.13281V4.02738ZM358.675 4.02738L355.087 4.02738V3.13281L358.675 3.13281V4.02738ZM365.85 4.02738L362.262 4.02738V3.13281L365.85 3.13281V4.02738ZM373.025 4.02738L369.437 4.02738V3.13281L373.025 3.13281V4.02738ZM380.2 4.02738L376.612 4.02738V3.13281L380.2 3.13281V4.02738ZM387.375 4.02738L383.787 4.02738V3.13281L387.375 3.13281V4.02738ZM394.55 4.02738L390.962 4.02738V3.13281L394.55 3.13281V4.02738ZM401.725 4.02738L398.137 4.02738V3.13281L401.725 3.13281V4.02738ZM408.9 4.02738L405.312 4.02738V3.13281L408.9 3.13281V4.02738ZM416.074 4.02738L412.487 4.02738V3.13281L416.074 3.13281V4.02738ZM423.249 4.02738L419.662 4.02738V3.13281L423.249 3.13281V4.02738ZM430.424 4.02738L426.837 4.02738V3.13281L430.424 3.13281V4.02738ZM437.599 4.02738L434.012 4.02738V3.13281L437.599 3.13281V4.02738ZM444.774 4.02738L441.187 4.02738V3.13281L444.774 3.13281V4.02738ZM451.949 4.02738L448.362 4.02738V3.13281L451.949 3.13281V4.02738ZM459.124 4.02738L455.537 4.02738V3.13281L459.124 3.13281V4.02738ZM466.299 4.02738L462.712 4.02738V3.13281L466.299 3.13281V4.02738ZM473.474 4.02738L469.887 4.02738V3.13281L473.474 3.13281V4.02738ZM480.649 4.02738L477.062 4.02738V3.13281L480.649 3.13281V4.02738ZM487.824 4.02738L484.237 4.02738V3.13281L487.824 3.13281V4.02738ZM494.999 4.02738L491.412 4.02738V3.13281L494.999 3.13281V4.02738ZM502.174 4.02738L498.587 4.02738V3.13281L502.174 3.13281V4.02738ZM509.349 4.02738L505.762 4.02738V3.13281L509.349 3.13281V4.02738ZM516.524 4.02738L512.936 4.02738V3.13281L516.524 3.13281V4.02738ZM523.699 4.02738L520.111 4.02738V3.13281L523.699 3.13281V4.02738ZM530.874 4.02738L527.286 4.02738V3.13281L530.874 3.13281V4.02738ZM538.049 4.02738L534.461 4.02738V3.13281L538.049 3.13281V4.02738ZM545.224 4.02738L541.636 4.02738V3.13281L545.224 3.13281V4.02738ZM552.398 4.02738L548.811 4.02738V3.13281L552.398 3.13281V4.02738ZM559.573 4.02738L555.986 4.02738V3.13281L559.573 3.13281V4.02738ZM566.748 4.02738L563.161 4.02738V3.13281L566.748 3.13281V4.02738ZM573.923 4.02738L570.336 4.02738V3.13281L573.923 3.13281V4.02738ZM581.098 4.02738L577.511 4.02738V3.13281L581.098 3.13281V4.02738ZM588.273 4.02738L584.686 4.02738V3.13281L588.273 3.13281V4.02738ZM595.448 4.02738L591.861 4.02738V3.13281L595.448 3.13281V4.02738ZM602.623 4.02738L599.036 4.02738V3.13281L602.623 3.13281V4.02738ZM609.798 4.02738L606.21 4.02738V3.13281L609.798 3.13281V4.02738ZM616.973 4.02738L613.385 4.02738V3.13281L616.973 3.13281V4.02738ZM624.148 4.02738L620.56 4.02738V3.13281L624.148 3.13281V4.02738ZM631.323 4.02738H627.735V3.13281L631.323 3.13281V4.02738ZM638.498 4.02738H634.91V3.13281L638.498 3.13281V4.02738ZM645.673 4.02738H642.085V3.13281L645.673 3.13281V4.02738ZM652.847 4.02738H649.26V3.13281L652.847 3.13281V4.02738ZM660.022 4.02738H656.435V3.13281L660.022 3.13281V4.02738ZM667.197 4.02738H663.61V3.13281L667.197 3.13281V4.02738ZM674.372 4.02738L670.785 4.02738V3.13281L674.372 3.13281V4.02738ZM681.547 4.02738L677.96 4.02738V3.13281L681.547 3.13281V4.02738ZM688.722 4.02738L685.135 4.02738V3.13281L688.722 3.13281V4.02738ZM695.897 4.02738L692.31 4.02738V3.13281L695.897 3.13281V4.02738ZM703.072 4.02738L699.484 4.02738V3.13281L703.072 3.13281V4.02738ZM710.247 4.02738L706.659 4.02738V3.13281L710.247 3.13281V4.02738ZM717.422 4.02738L713.834 4.02738V3.13281L717.422 3.13281V4.02738ZM724.597 4.02738L721.009 4.02738V3.13281L724.597 3.13281V4.02738ZM731.772 4.02738L728.184 4.02738V3.13281L731.772 3.13281V4.02738ZM738.947 4.02738L735.359 4.02738V3.13281L738.947 3.13281V4.02738ZM746.121 4.02738L742.534 4.02738V3.13281L746.121 3.13281V4.02738ZM753.296 4.02738L749.709 4.02738V3.13281L753.296 3.13281V4.02738ZM760.471 4.02738L756.884 4.02738V3.13281L760.471 3.13281V4.02738ZM767.646 4.02738L764.059 4.02738V3.13281L767.646 3.13281V4.02738ZM774.821 4.02738L771.234 4.02738V3.13281L774.821 3.13281V4.02738ZM781.996 4.02738L778.409 4.02738V3.13281L781.996 3.13281V4.02738ZM789.171 4.02738L785.583 4.02738V3.13281L789.171 3.13281V4.02738ZM796.346 4.02738L792.758 4.02738V3.13281L796.346 3.13281V4.02738ZM803.521 4.02738L799.933 4.02738V3.13281L803.521 3.13281V4.02738ZM810.696 4.02738L807.108 4.02738V3.13281L810.696 3.13281V4.02738ZM817.871 4.02738L814.283 4.02738V3.13281L817.871 3.13281V4.02738ZM825.046 4.02738L821.458 4.02738V3.13281L825.046 3.13281V4.02738ZM832.221 4.02738L828.633 4.02738V3.13281L832.221 3.13281V4.02738ZM839.395 4.02738L835.808 4.02738V3.13281L839.395 3.13281V4.02738ZM846.57 4.02738L842.983 4.02738V3.13281L846.57 3.13281V4.02738ZM853.745 4.02738L850.158 4.02738V3.13281L853.745 3.13281V4.02738ZM860.92 4.02738L857.333 4.02738V3.13281L860.92 3.13281V4.02738ZM868.095 4.02738L864.508 4.02738V3.13281L868.095 3.13281V4.02738ZM875.27 4.02738L871.683 4.02738V3.13281L875.27 3.13281V4.02738ZM882.445 4.02738L878.857 4.02738V3.13281L882.445 3.13281V4.02738ZM889.62 4.02738L886.032 4.02738V3.13281L889.62 3.13281V4.02738ZM896.795 4.02738L893.207 4.02738V3.13281L896.795 3.13281V4.02738ZM903.97 4.02738L900.382 4.02738V3.13281L903.97 3.13281V4.02738ZM911.145 4.02738L907.557 4.02738V3.13281L911.145 3.13281V4.02738ZM918.32 4.02738L914.732 4.02738V3.13281L918.32 3.13281V4.02738ZM925.495 4.02738L921.907 4.02738V3.13281L925.495 3.13281V4.02738ZM932.669 4.02738L929.082 4.02738V3.13281L932.669 3.13281V4.02738ZM939.844 4.02738L936.257 4.02738V3.13281L939.844 3.13281V4.02738ZM947.019 4.02738L943.432 4.02738V3.13281L947.019 3.13281V4.02738ZM954.194 4.02738L950.607 4.02738V3.13281L954.194 3.13281V4.02738ZM961.369 4.02738L957.782 4.02738V3.13281L961.369 3.13281V4.02738ZM968.544 4.02738L964.957 4.02738V3.13281L968.544 3.13281V4.02738ZM975.719 4.02738L972.132 4.02738V3.13281L975.719 3.13281V4.02738ZM982.894 4.02738L979.307 4.02738V3.13281L982.894 3.13281V4.02738ZM990.069 4.02738L986.482 4.02738V3.13281L990.069 3.13281V4.02738ZM997.245 4.02738L993.657 4.02738V3.13281L997.245 3.13281V4.02738ZM1004.42 4.02738L1000.83 4.02738V3.13281L1004.42 3.13281V4.02738ZM1011.59 4.02738L1008.01 4.02738V3.13281L1011.59 3.13281V4.02738ZM1018.77 4.02738L1015.18 4.02738V3.13281L1018.77 3.13281V4.02738ZM1025.94 4.02738L1022.36 4.02738V3.13281L1025.94 3.13281V4.02738ZM1033.12 4.02738L1029.53 4.02738V3.13281L1033.12 3.13281V4.02738ZM1040.29 4.02738L1036.71 4.02738V3.13281L1040.29 3.13281V4.02738ZM1047.47 4.02738L1043.88 4.02738V3.13281L1047.47 3.13281V4.02738ZM1054.64 4.02738L1051.06 4.02738V3.13281L1054.64 3.13281V4.02738ZM1061.82 4.02738L1058.23 4.02738V3.13281L1061.82 3.13281V4.02738ZM1068.99 4.02738L1065.41 4.02738V3.13281L1068.99 3.13281V4.02738ZM1076.17 4.02738L1072.58 4.02738V3.13281L1076.17 3.13281V4.02738ZM1081.55 4.02738L1079.76 4.02738V3.13281L1081.55 3.13281V4.02738Z" fill="#E2E8F0"/>
</svg>
