<svg width="536" height="348" viewBox="0 0 536 348" fill="none" xmlns="http://www.w3.org/2000/svg">
<g opacity="0.1">
<path fill-rule="evenodd" clip-rule="evenodd" d="M0.226135 1.15514C0.226135 0.992604 0.3579 0.86084 0.520439 0.86084H535.161C535.323 0.86084 535.455 0.992604 535.455 1.15514C535.455 1.31768 535.323 1.44945 535.161 1.44945H0.520432C0.357893 1.44945 0.226135 1.31768 0.226135 1.15514Z" fill="black"/>
<path fill-rule="evenodd" clip-rule="evenodd" d="M0.226135 58.8387C0.226135 58.6762 0.3579 58.5444 0.520439 58.5444H535.161C535.323 58.5444 535.455 58.6762 535.455 58.8387C535.455 59.0013 535.323 59.133 535.161 59.133H0.520432C0.357893 59.133 0.226135 59.0013 0.226135 58.8387Z" fill="black"/>
<path fill-rule="evenodd" clip-rule="evenodd" d="M0.226135 116.522C0.226135 116.36 0.3579 116.228 0.520439 116.228H535.161C535.323 116.228 535.455 116.36 535.455 116.522C535.455 116.685 535.323 116.817 535.161 116.817H0.520432C0.357893 116.817 0.226135 116.685 0.226135 116.522Z" fill="black"/>
<path fill-rule="evenodd" clip-rule="evenodd" d="M0.226135 174.206C0.226135 174.043 0.3579 173.911 0.520439 173.911H535.161C535.323 173.911 535.455 174.043 535.455 174.206C535.455 174.368 535.323 174.5 535.161 174.5H0.520432C0.357893 174.5 0.226135 174.368 0.226135 174.206Z" fill="black"/>
<path fill-rule="evenodd" clip-rule="evenodd" d="M0.226135 231.889C0.226135 231.727 0.357896 231.595 0.520431 231.595H535.161C535.323 231.595 535.455 231.727 535.455 231.889C535.455 232.052 535.323 232.184 535.161 232.184H0.520432C0.357897 232.184 0.226135 232.052 0.226135 231.889Z" fill="black"/>
<path fill-rule="evenodd" clip-rule="evenodd" d="M0.226135 289.573C0.226135 289.41 0.357903 289.279 0.520447 289.279H535.161C535.323 289.279 535.455 289.41 535.455 289.573C535.455 289.735 535.323 289.867 535.161 289.867H0.520432C0.357889 289.867 0.226135 289.735 0.226135 289.573Z" fill="black"/>
<path fill-rule="evenodd" clip-rule="evenodd" d="M0.226135 347.256C0.226135 347.094 0.357896 346.962 0.520431 346.962H535.161C535.323 346.962 535.455 347.094 535.455 347.256C535.455 347.419 535.323 347.551 535.161 347.551H0.520432C0.357897 347.551 0.226135 347.419 0.226135 347.256Z" fill="black"/>
<path fill-rule="evenodd" clip-rule="evenodd" d="M0.432959 0.86084C0.547178 0.86084 0.639771 0.953433 0.639771 1.06765L0.639771 347.344C0.639771 347.458 0.547178 347.551 0.432959 347.551C0.31874 347.551 0.226147 347.458 0.226147 347.344L0.226147 1.06765C0.226147 0.953429 0.31874 0.86084 0.432959 0.86084Z" fill="black"/>
<path fill-rule="evenodd" clip-rule="evenodd" d="M45.1043 0.86084C45.2185 0.86084 45.3111 0.953434 45.3111 1.06765V347.344C45.3111 347.458 45.2185 347.551 45.1043 347.551C44.9901 347.551 44.8975 347.458 44.8975 347.344V1.06765C44.8975 0.953428 44.9901 0.86084 45.1043 0.86084Z" fill="black"/>
<path fill-rule="evenodd" clip-rule="evenodd" d="M89.7757 0.86084C89.8899 0.86084 89.9825 0.953434 89.9825 1.06765V347.344C89.9825 347.458 89.8899 347.551 89.7757 347.551C89.6614 347.551 89.5689 347.458 89.5689 347.344V1.06765C89.5689 0.953428 89.6614 0.86084 89.7757 0.86084Z" fill="black"/>
<path fill-rule="evenodd" clip-rule="evenodd" d="M134.033 0.86084C134.148 0.86084 134.24 0.953435 134.24 1.06766V347.344C134.24 347.458 134.148 347.551 134.033 347.551C133.919 347.551 133.827 347.458 133.827 347.344V1.06765C133.827 0.953426 133.919 0.86084 134.033 0.86084Z" fill="black"/>
<path fill-rule="evenodd" clip-rule="evenodd" d="M178.705 0.86084C178.819 0.86084 178.912 0.953432 178.912 1.06765V347.344C178.912 347.458 178.819 347.551 178.705 347.551C178.591 347.551 178.498 347.458 178.498 347.344V1.06765C178.498 0.95343 178.591 0.86084 178.705 0.86084Z" fill="black"/>
<path fill-rule="evenodd" clip-rule="evenodd" d="M223.376 0.86084C223.49 0.86084 223.583 0.953428 223.583 1.06764V347.344C223.583 347.458 223.49 347.551 223.376 347.551C223.262 347.551 223.169 347.458 223.169 347.344V1.06765C223.169 0.953435 223.262 0.86084 223.376 0.86084Z" fill="black"/>
<path fill-rule="evenodd" clip-rule="evenodd" d="M268.047 0.86084C268.162 0.86084 268.254 0.953435 268.254 1.06766V347.344C268.254 347.458 268.162 347.551 268.047 347.551C267.933 347.551 267.841 347.458 267.841 347.344V1.06765C267.841 0.953426 267.933 0.86084 268.047 0.86084Z" fill="black"/>
<path fill-rule="evenodd" clip-rule="evenodd" d="M312.305 0.86084C312.419 0.86084 312.512 0.953428 312.512 1.06764V347.344C312.512 347.458 312.419 347.551 312.305 347.551C312.191 347.551 312.098 347.458 312.098 347.344V1.06765C312.098 0.953435 312.191 0.86084 312.305 0.86084Z" fill="black"/>
<path fill-rule="evenodd" clip-rule="evenodd" d="M356.976 0.86084C357.091 0.86084 357.183 0.953435 357.183 1.06766V347.344C357.183 347.458 357.091 347.551 356.976 347.551C356.862 347.551 356.77 347.458 356.77 347.344V1.06765C356.77 0.953426 356.862 0.86084 356.976 0.86084Z" fill="black"/>
<path fill-rule="evenodd" clip-rule="evenodd" d="M401.648 0.86084C401.762 0.86084 401.855 0.953435 401.855 1.06766V347.344C401.855 347.458 401.762 347.551 401.648 347.551C401.534 347.551 401.441 347.458 401.441 347.344V1.06765C401.441 0.953426 401.534 0.86084 401.648 0.86084Z" fill="black"/>
<path fill-rule="evenodd" clip-rule="evenodd" d="M446.319 0.86084C446.433 0.86084 446.526 0.953428 446.526 1.06764V347.344C446.526 347.458 446.433 347.551 446.319 347.551C446.205 347.551 446.112 347.458 446.112 347.344V1.06765C446.112 0.953435 446.205 0.86084 446.319 0.86084Z" fill="black"/>
<path fill-rule="evenodd" clip-rule="evenodd" d="M490.577 0.86084C490.691 0.86084 490.784 0.953435 490.784 1.06766V347.344C490.784 347.458 490.691 347.551 490.577 347.551C490.463 347.551 490.37 347.458 490.37 347.344V1.06765C490.37 0.953426 490.463 0.86084 490.577 0.86084Z" fill="black"/>
<path fill-rule="evenodd" clip-rule="evenodd" d="M535.248 0.86084C535.362 0.86084 535.455 0.953435 535.455 1.06766V347.344C535.455 347.458 535.362 347.551 535.248 347.551C535.134 347.551 535.041 347.458 535.041 347.344V1.06765C535.041 0.953426 535.134 0.86084 535.248 0.86084Z" fill="black"/>
</g>
</svg>
