<svg width="1056" height="2" viewBox="0 0 1056 2" fill="none" xmlns="http://www.w3.org/2000/svg">
<path fill-rule="evenodd" clip-rule="evenodd" d="M2.6259 1.82425L0.832153 1.82425L0.832153 0.929688L2.6259 0.929687V1.82425ZM9.80087 1.82425L6.21338 1.82425V0.929687L9.80087 0.929687V1.82425ZM16.9758 1.82425L13.3884 1.82425V0.929687L16.9758 0.929687V1.82425ZM24.1508 1.82425L20.5633 1.82425V0.929687L24.1508 0.929687V1.82425ZM31.3258 1.82425L27.7383 1.82425V0.929687L31.3258 0.929687V1.82425ZM38.5008 1.82425L34.9133 1.82425V0.929687L38.5008 0.929687V1.82425ZM45.6757 1.82425L42.0882 1.82425V0.929687L45.6757 0.929687V1.82425ZM52.8507 1.82425L49.2632 1.82425V0.929687L52.8507 0.929687V1.82425ZM60.0257 1.82425L56.4382 1.82425V0.929687L60.0257 0.929687V1.82425ZM67.2006 1.82425L63.6132 1.82425V0.929687L67.2006 0.929687V1.82425ZM74.3756 1.82425L70.7881 1.82425V0.929687L74.3756 0.929687V1.82425ZM81.5506 1.82425L77.9631 1.82425V0.929687L81.5506 0.929687V1.82425ZM88.7256 1.82425L85.1381 1.82425V0.929687L88.7256 0.929687V1.82425ZM95.9005 1.82425L92.3131 1.82425V0.929687L95.9005 0.929687V1.82425ZM103.076 1.82425L99.488 1.82425V0.929687L103.076 0.929687V1.82425ZM110.251 1.82425L106.663 1.82425V0.929687L110.251 0.929687V1.82425ZM117.425 1.82425L113.838 1.82425V0.929687L117.425 0.929687V1.82425ZM124.6 1.82425L121.013 1.82425V0.929687L124.6 0.929687V1.82425ZM131.775 1.82425L128.188 1.82425V0.929687L131.775 0.929687V1.82425ZM138.95 1.82425L135.363 1.82425V0.929687L138.95 0.929687V1.82425ZM146.125 1.82425L142.538 1.82425V0.929687L146.125 0.929687V1.82425ZM153.3 1.82425L149.713 1.82425V0.929687L153.3 0.929687V1.82425ZM160.475 1.82425L156.888 1.82425V0.929687L160.475 0.929687V1.82425ZM167.65 1.82425L164.063 1.82425V0.929687L167.65 0.929687V1.82425ZM174.825 1.82425L171.238 1.82425V0.929687L174.825 0.929687V1.82425ZM182 1.82425L178.413 1.82425V0.929687L182 0.929687V1.82425ZM189.175 1.82425L185.588 1.82425V0.929687L189.175 0.929687V1.82425ZM196.35 1.82425L192.763 1.82425V0.929687L196.35 0.929687V1.82425ZM203.525 1.82425L199.938 1.82425V0.929687L203.525 0.929687V1.82425ZM210.7 1.82425L207.113 1.82425V0.929687L210.7 0.929687V1.82425ZM217.875 1.82425L214.288 1.82425V0.929687L217.875 0.929687V1.82425ZM225.05 1.82425L221.463 1.82425V0.929687L225.05 0.929687V1.82425ZM232.225 1.82425L228.638 1.82425V0.929687L232.225 0.929687V1.82425ZM239.4 1.82425L235.813 1.82425V0.929687L239.4 0.929687V1.82425ZM246.575 1.82425L242.988 1.82425V0.929687L246.575 0.929687V1.82425ZM253.75 1.82425L250.163 1.82425V0.929687L253.75 0.929687V1.82425ZM260.925 1.82425L257.338 1.82425V0.929687L260.925 0.929687V1.82425ZM268.1 1.82425L264.512 1.82425V0.929687L268.1 0.929687V1.82425ZM275.275 1.82425L271.687 1.82425V0.929687L275.275 0.929687V1.82425ZM282.45 1.82425L278.862 1.82425V0.929687L282.45 0.929687V1.82425ZM289.625 1.82425L286.037 1.82425V0.929687L289.625 0.929687V1.82425ZM296.8 1.82425L293.212 1.82425V0.929687L296.8 0.929687V1.82425ZM303.975 1.82425L300.387 1.82425V0.929687L303.975 0.929687V1.82425ZM311.15 1.82425L307.562 1.82425V0.929687L311.15 0.929687V1.82425ZM318.325 1.82425L314.737 1.82425V0.929687L318.325 0.929687V1.82425ZM325.5 1.82425L321.912 1.82425V0.929687L325.5 0.929687V1.82425ZM332.675 1.82425L329.087 1.82425V0.929687L332.675 0.929687V1.82425ZM339.85 1.82425L336.262 1.82425V0.929687L339.85 0.929687V1.82425ZM347.025 1.82425L343.437 1.82425V0.929687L347.025 0.929687V1.82425ZM354.2 1.82425L350.612 1.82425V0.929687L354.2 0.929687V1.82425ZM361.375 1.82425L357.787 1.82425V0.929687L361.375 0.929687V1.82425ZM368.55 1.82425L364.962 1.82425V0.929687L368.55 0.929687V1.82425ZM375.725 1.82425L372.137 1.82425V0.929687L375.725 0.929687V1.82425ZM382.9 1.82425L379.312 1.82425V0.929687L382.9 0.929687V1.82425ZM390.075 1.82425L386.487 1.82425V0.929687L390.075 0.929687V1.82425ZM397.25 1.82425L393.662 1.82425V0.929687L397.25 0.929687V1.82425ZM404.425 1.82425L400.837 1.82425V0.929687L404.425 0.929687V1.82425ZM411.6 1.82425L408.012 1.82425V0.929687L411.6 0.929687V1.82425ZM418.775 1.82425L415.187 1.82425V0.929687L418.775 0.929687V1.82425ZM425.949 1.82425L422.362 1.82425V0.929687L425.949 0.929687V1.82425ZM433.124 1.82425L429.537 1.82425V0.929687L433.124 0.929687V1.82425ZM440.299 1.82425L436.712 1.82425V0.929687L440.299 0.929687V1.82425ZM447.474 1.82425L443.887 1.82425V0.929687L447.474 0.929687V1.82425ZM454.649 1.82425L451.062 1.82425V0.929687L454.649 0.929687V1.82425ZM461.824 1.82425L458.237 1.82425V0.929687L461.824 0.929687V1.82425ZM468.999 1.82425L465.412 1.82425V0.929687L468.999 0.929687V1.82425ZM476.174 1.82425L472.587 1.82425V0.929687L476.174 0.929687V1.82425ZM483.349 1.82425L479.762 1.82425V0.929687L483.349 0.929687V1.82425ZM490.524 1.82425L486.937 1.82425V0.929687L490.524 0.929687V1.82425ZM497.699 1.82425L494.112 1.82425V0.929687L497.699 0.929687V1.82425ZM504.874 1.82425L501.286 1.82425V0.929687L504.874 0.929687V1.82425ZM512.049 1.82425L508.461 1.82425V0.929687L512.049 0.929687V1.82425ZM519.224 1.82425L515.636 1.82425V0.929687L519.224 0.929687V1.82425ZM526.399 1.82425L522.811 1.82425V0.929687L526.399 0.929687V1.82425ZM533.574 1.82425L529.986 1.82425V0.929687L533.574 0.929687V1.82425ZM540.748 1.82425L537.161 1.82425V0.929687L540.748 0.929687V1.82425ZM547.923 1.82425L544.336 1.82425V0.929687L547.923 0.929687V1.82425ZM555.098 1.82425L551.511 1.82425V0.929687L555.098 0.929687V1.82425ZM562.273 1.82425L558.686 1.82425V0.929687L562.273 0.929687V1.82425ZM569.448 1.82425L565.861 1.82425V0.929687L569.448 0.929687V1.82425ZM576.623 1.82425L573.036 1.82425V0.929687L576.623 0.929687V1.82425ZM583.798 1.82425L580.211 1.82425V0.929687L583.798 0.929687V1.82425ZM590.973 1.82425L587.385 1.82425V0.929687L590.973 0.929687V1.82425ZM598.148 1.82425L594.56 1.82425V0.929687L598.148 0.929687V1.82425ZM605.323 1.82425L601.735 1.82425V0.929687L605.323 0.929687V1.82425ZM612.498 1.82425L608.91 1.82425V0.929687L612.498 0.929687V1.82425ZM619.673 1.82425L616.085 1.82425V0.929687L619.673 0.929687V1.82425ZM626.848 1.82425L623.26 1.82425V0.929687L626.848 0.929687V1.82425ZM634.023 1.82425L630.435 1.82425V0.929687L634.023 0.929687V1.82425ZM641.197 1.82425L637.61 1.82425V0.929687L641.197 0.929687V1.82425ZM648.372 1.82425L644.785 1.82425V0.929687L648.372 0.929687V1.82425ZM655.547 1.82425L651.96 1.82425V0.929687L655.547 0.929687V1.82425ZM662.722 1.82425L659.135 1.82425V0.929687L662.722 0.929687V1.82425ZM669.897 1.82425L666.31 1.82425V0.929687L669.897 0.929687V1.82425ZM677.072 1.82425L673.485 1.82425V0.929687L677.072 0.929687V1.82425ZM684.247 1.82425L680.659 1.82425V0.929687L684.247 0.929687V1.82425ZM691.422 1.82425L687.834 1.82425V0.929687L691.422 0.929687V1.82425ZM698.597 1.82425L695.009 1.82425V0.929687L698.597 0.929687V1.82425ZM705.772 1.82425L702.184 1.82425V0.929687L705.772 0.929687V1.82425ZM712.947 1.82425L709.359 1.82425V0.929687L712.947 0.929687V1.82425ZM720.122 1.82425L716.534 1.82425V0.929687L720.122 0.929687V1.82425ZM727.297 1.82425L723.709 1.82425V0.929687L727.297 0.929687V1.82425ZM734.471 1.82425L730.884 1.82425V0.929687L734.471 0.929687V1.82425ZM741.646 1.82425L738.059 1.82425V0.929687L741.646 0.929687V1.82425ZM748.821 1.82425L745.234 1.82425V0.929687L748.821 0.929687V1.82425ZM755.996 1.82425L752.409 1.82425V0.929687L755.996 0.929687V1.82425ZM763.171 1.82425L759.584 1.82425V0.929687L763.171 0.929687V1.82425ZM770.346 1.82425L766.759 1.82425V0.929687L770.346 0.929687V1.82425ZM777.521 1.82425L773.933 1.82425V0.929687L777.521 0.929687V1.82425ZM784.696 1.82425L781.108 1.82425V0.929687L784.696 0.929687V1.82425ZM791.871 1.82425L788.283 1.82425V0.929687L791.871 0.929687V1.82425ZM799.046 1.82425L795.458 1.82425V0.929687L799.046 0.929687V1.82425ZM806.221 1.82425L802.633 1.82425V0.929687L806.221 0.929687V1.82425ZM813.396 1.82425L809.808 1.82425V0.929687L813.396 0.929687V1.82425ZM820.57 1.82425L816.983 1.82425V0.929687L820.57 0.929687V1.82425ZM827.745 1.82425L824.158 1.82425V0.929687L827.745 0.929687V1.82425ZM834.92 1.82425L831.333 1.82425V0.929687L834.92 0.929687V1.82425ZM842.095 1.82425L838.508 1.82425V0.929687L842.095 0.929687V1.82425ZM849.27 1.82425L845.683 1.82425V0.929687L849.27 0.929687V1.82425ZM856.445 1.82425L852.858 1.82425V0.929687L856.445 0.929687V1.82425ZM863.62 1.82425L860.033 1.82425V0.929687L863.62 0.929687V1.82425ZM870.795 1.82425L867.207 1.82425V0.929687L870.795 0.929687V1.82425ZM877.97 1.82425L874.382 1.82425V0.929687L877.97 0.929687V1.82425ZM885.145 1.82425L881.557 1.82425V0.929687L885.145 0.929687V1.82425ZM892.32 1.82425L888.732 1.82425V0.929687L892.32 0.929687V1.82425ZM899.495 1.82425L895.907 1.82425V0.929687L899.495 0.929687V1.82425ZM906.67 1.82425L903.082 1.82425V0.929687L906.67 0.929687V1.82425ZM913.844 1.82425L910.257 1.82425V0.929687L913.844 0.929687V1.82425ZM921.019 1.82425L917.432 1.82425V0.929687L921.019 0.929687V1.82425ZM928.194 1.82425L924.607 1.82425V0.929687L928.194 0.929687V1.82425ZM935.369 1.82425L931.782 1.82425V0.929687L935.369 0.929687V1.82425ZM942.544 1.82425L938.957 1.82425V0.929687L942.544 0.929687V1.82425ZM949.72 1.82425L946.132 1.82425V0.929687L949.72 0.929687V1.82425ZM956.895 1.82425L953.307 1.82425V0.929687L956.895 0.929687V1.82425ZM964.07 1.82425L960.482 1.82425V0.929687L964.07 0.929687V1.82425ZM971.245 1.82425L967.657 1.82425V0.929687L971.245 0.929687V1.82425ZM978.42 1.82425L974.832 1.82425V0.929687L978.42 0.929687V1.82425ZM985.595 1.82425L982.007 1.82425V0.929687L985.595 0.929687V1.82425ZM992.77 1.82425L989.182 1.82425V0.929687L992.77 0.929687V1.82425ZM999.945 1.82425L996.357 1.82425V0.929687L999.945 0.929687V1.82425ZM1007.12 1.82425L1003.53 1.82425V0.929687L1007.12 0.929687V1.82425ZM1014.29 1.82425L1010.71 1.82425V0.929687L1014.29 0.929687V1.82425ZM1021.47 1.82425L1017.88 1.82425V0.929687L1021.47 0.929687V1.82425ZM1028.64 1.82425L1025.06 1.82425V0.929687L1028.64 0.929687V1.82425ZM1035.82 1.82425L1032.23 1.82425V0.929687L1035.82 0.929687V1.82425ZM1042.99 1.82425L1039.41 1.82425V0.929687L1042.99 0.929687V1.82425ZM1050.17 1.82425L1046.58 1.82425V0.929687L1050.17 0.929687V1.82425ZM1055.55 1.82425L1053.76 1.82425V0.929687L1055.55 0.929687V1.82425Z" fill="#E2E8F0"/>
</svg>
