<svg width="1017" height="467" viewBox="0 0 1017 467" fill="none" xmlns="http://www.w3.org/2000/svg">
<g opacity="0.1">
<path fill-rule="evenodd" clip-rule="evenodd" d="M0.66011 1.38224C0.66011 1.16412 0.836929 0.987305 1.05505 0.987305H1016.2C1016.42 0.987305 1016.6 1.16412 1016.6 1.38224C1016.6 1.60036 1016.42 1.77718 1016.2 1.77718H1.05505C0.83693 1.77718 0.66011 1.60036 0.66011 1.38224Z" fill="black"/>
<path fill-rule="evenodd" clip-rule="evenodd" d="M0.66011 78.7895C0.66011 78.5713 0.836929 78.3945 1.05505 78.3945H1016.2C1016.42 78.3945 1016.6 78.5713 1016.6 78.7895C1016.6 79.0076 1016.42 79.1844 1016.2 79.1844H1.05505C0.83693 79.1844 0.66011 79.0076 0.66011 78.7895Z" fill="black"/>
<path fill-rule="evenodd" clip-rule="evenodd" d="M0.66011 156.198C0.66011 155.98 0.836929 155.803 1.05505 155.803H1016.2C1016.42 155.803 1016.6 155.98 1016.6 156.198C1016.6 156.416 1016.42 156.593 1016.2 156.593H1.05505C0.83693 156.593 0.66011 156.416 0.66011 156.198Z" fill="black"/>
<path fill-rule="evenodd" clip-rule="evenodd" d="M0.66011 233.605C0.66011 233.387 0.836933 233.21 1.05505 233.21H1016.2C1016.42 233.21 1016.6 233.387 1016.6 233.605C1016.6 233.823 1016.42 234 1016.2 234H1.05505C0.836926 234 0.66011 233.823 0.66011 233.605Z" fill="black"/>
<path fill-rule="evenodd" clip-rule="evenodd" d="M0.66011 311.012C0.66011 310.794 0.836933 310.617 1.05505 310.617H1016.2C1016.42 310.617 1016.6 310.794 1016.6 311.012C1016.6 311.23 1016.42 311.407 1016.2 311.407H1.05505C0.836926 311.407 0.66011 311.23 0.66011 311.012Z" fill="black"/>
<path fill-rule="evenodd" clip-rule="evenodd" d="M0.66011 388.42C0.66011 388.202 0.836926 388.025 1.05504 388.025H1016.2C1016.42 388.025 1016.6 388.202 1016.6 388.42C1016.6 388.638 1016.42 388.815 1016.2 388.815H1.05505C0.836934 388.815 0.66011 388.638 0.66011 388.42Z" fill="black"/>
<path fill-rule="evenodd" clip-rule="evenodd" d="M0.66011 465.828C0.66011 465.609 0.836926 465.433 1.05504 465.433H1016.2C1016.42 465.433 1016.6 465.609 1016.6 465.828C1016.6 466.046 1016.42 466.222 1016.2 466.222H1.05505C0.836934 466.222 0.66011 466.046 0.66011 465.828Z" fill="black"/>
<path fill-rule="evenodd" clip-rule="evenodd" d="M1.05267 0.987305C1.26947 0.987305 1.44522 1.16306 1.44522 1.37986L1.44522 465.83C1.44522 466.047 1.26947 466.223 1.05267 466.223C0.835863 466.223 0.66011 466.047 0.66011 465.83L0.66011 1.37985C0.66011 1.16305 0.835863 0.987305 1.05267 0.987305Z" fill="black"/>
<path fill-rule="evenodd" clip-rule="evenodd" d="M85.8448 0.987305C86.0616 0.987305 86.2374 1.16306 86.2374 1.37987V465.83C86.2374 466.047 86.0616 466.223 85.8448 466.223C85.628 466.223 85.4522 466.047 85.4522 465.83V1.37985C85.4522 1.16305 85.628 0.987305 85.8448 0.987305Z" fill="black"/>
<path fill-rule="evenodd" clip-rule="evenodd" d="M170.637 0.987305C170.854 0.987305 171.029 1.16306 171.029 1.37986V465.83C171.029 466.047 170.854 466.223 170.637 466.223C170.42 466.223 170.244 466.047 170.244 465.83V1.37985C170.244 1.16305 170.42 0.987305 170.637 0.987305Z" fill="black"/>
<path fill-rule="evenodd" clip-rule="evenodd" d="M254.644 0.987305C254.861 0.987305 255.037 1.16306 255.037 1.37987V465.83C255.037 466.047 254.861 466.223 254.644 466.223C254.427 466.223 254.251 466.047 254.251 465.83V1.37985C254.251 1.16305 254.427 0.987305 254.644 0.987305Z" fill="black"/>
<path fill-rule="evenodd" clip-rule="evenodd" d="M339.436 0.987305C339.653 0.987305 339.829 1.16305 339.829 1.37985V465.83C339.829 466.047 339.653 466.223 339.436 466.223C339.219 466.223 339.044 466.047 339.044 465.83V1.37985C339.044 1.16306 339.219 0.987305 339.436 0.987305Z" fill="black"/>
<path fill-rule="evenodd" clip-rule="evenodd" d="M424.228 0.987305C424.445 0.987305 424.621 1.16306 424.621 1.37987V465.83C424.621 466.047 424.445 466.223 424.228 466.223C424.011 466.223 423.836 466.047 423.836 465.83V1.37985C423.836 1.16305 424.011 0.987305 424.228 0.987305Z" fill="black"/>
<path fill-rule="evenodd" clip-rule="evenodd" d="M509.02 0.987305C509.237 0.987305 509.413 1.16305 509.413 1.37985V465.83C509.413 466.047 509.237 466.223 509.02 466.223C508.804 466.223 508.628 466.047 508.628 465.83V1.37985C508.628 1.16306 508.804 0.987305 509.02 0.987305Z" fill="black"/>
<path fill-rule="evenodd" clip-rule="evenodd" d="M593.027 0.987305C593.244 0.987305 593.42 1.16305 593.42 1.37985V465.83C593.42 466.047 593.244 466.223 593.027 466.223C592.811 466.223 592.635 466.047 592.635 465.83V1.37985C592.635 1.16306 592.811 0.987305 593.027 0.987305Z" fill="black"/>
<path fill-rule="evenodd" clip-rule="evenodd" d="M677.82 0.987305C678.036 0.987305 678.212 1.16307 678.212 1.37988V465.83C678.212 466.047 678.036 466.223 677.82 466.223C677.603 466.223 677.427 466.047 677.427 465.83V1.37988C677.427 1.16307 677.603 0.987305 677.82 0.987305Z" fill="black"/>
<path fill-rule="evenodd" clip-rule="evenodd" d="M762.612 0.987305C762.828 0.987305 763.004 1.16305 763.004 1.37985V465.83C763.004 466.047 762.828 466.223 762.612 466.223C762.395 466.223 762.219 466.047 762.219 465.83V1.37985C762.219 1.16306 762.395 0.987305 762.612 0.987305Z" fill="black"/>
<path fill-rule="evenodd" clip-rule="evenodd" d="M847.404 0.987305C847.621 0.987305 847.796 1.16305 847.796 1.37985V465.83C847.796 466.047 847.621 466.223 847.404 466.223C847.187 466.223 847.011 466.047 847.011 465.83V1.37985C847.011 1.16306 847.187 0.987305 847.404 0.987305Z" fill="black"/>
<path fill-rule="evenodd" clip-rule="evenodd" d="M931.411 0.987305C931.628 0.987305 931.803 1.16305 931.803 1.37985V465.83C931.803 466.047 931.628 466.223 931.411 466.223C931.194 466.223 931.018 466.047 931.018 465.83V1.37985C931.018 1.16306 931.194 0.987305 931.411 0.987305Z" fill="black"/>
<path fill-rule="evenodd" clip-rule="evenodd" d="M1016.2 0.987305C1016.42 0.987305 1016.6 1.16304 1016.6 1.37982V465.83C1016.6 466.047 1016.42 466.223 1016.2 466.223C1015.99 466.223 1015.81 466.047 1015.81 465.83V1.37983C1015.81 1.16304 1015.99 0.987305 1016.2 0.987305Z" fill="black"/>
</g>
</svg>
