<svg width="1056" height="2" viewBox="0 0 1056 2" fill="none" xmlns="http://www.w3.org/2000/svg">
<path fill-rule="evenodd" clip-rule="evenodd" d="M2.62577 1.42191L0.832031 1.42191L0.832031 0.527344L2.62577 0.527344V1.42191ZM9.80075 1.42191L6.21326 1.42191V0.527344L9.80075 0.527344V1.42191ZM16.9757 1.42191L13.3882 1.42191V0.527344L16.9757 0.527344V1.42191ZM24.1507 1.42191L20.5632 1.42191V0.527344L24.1507 0.527344V1.42191ZM31.3257 1.42191L27.7382 1.42191V0.527344L31.3257 0.527344V1.42191ZM38.5006 1.42191L34.9131 1.42191V0.527344L38.5006 0.527344V1.42191ZM45.6756 1.42191L42.0881 1.42191V0.527344L45.6756 0.527344V1.42191ZM52.8506 1.42191L49.2631 1.42191V0.527344L52.8506 0.527344V1.42191ZM60.0255 1.42191L56.4381 1.42191V0.527344L60.0255 0.527344V1.42191ZM67.2005 1.42191L63.613 1.42191V0.527344L67.2005 0.527344V1.42191ZM74.3755 1.42191L70.788 1.42191V0.527344L74.3755 0.527344V1.42191ZM81.5505 1.42191L77.963 1.42191V0.527344L81.5505 0.527344V1.42191ZM88.7255 1.42191L85.138 1.42191V0.527344L88.7255 0.527344V1.42191ZM95.9004 1.42191L92.3129 1.42191V0.527344L95.9004 0.527344V1.42191ZM103.075 1.42191L99.4879 1.42191V0.527344L103.075 0.527344V1.42191ZM110.25 1.42191L106.663 1.42191V0.527344L110.25 0.527344V1.42191ZM117.425 1.42191L113.838 1.42191V0.527344L117.425 0.527344V1.42191ZM124.6 1.42191L121.013 1.42191V0.527344L124.6 0.527344V1.42191ZM131.775 1.42191L128.188 1.42191V0.527344L131.775 0.527344V1.42191ZM138.95 1.42191L135.363 1.42191V0.527344L138.95 0.527344V1.42191ZM146.125 1.42191L142.538 1.42191V0.527344L146.125 0.527344V1.42191ZM153.3 1.42191L149.713 1.42191V0.527344L153.3 0.527344V1.42191ZM160.475 1.42191L156.888 1.42191V0.527344L160.475 0.527344V1.42191ZM167.65 1.42191L164.063 1.42191V0.527344L167.65 0.527344V1.42191ZM174.825 1.42191L171.238 1.42191V0.527344L174.825 0.527344V1.42191ZM182 1.42191L178.413 1.42191V0.527344L182 0.527344V1.42191ZM189.175 1.42191L185.588 1.42191V0.527344L189.175 0.527344V1.42191ZM196.35 1.42191L192.763 1.42191V0.527344L196.35 0.527344V1.42191ZM203.525 1.42191L199.938 1.42191V0.527344L203.525 0.527344V1.42191ZM210.7 1.42191L207.113 1.42191V0.527344L210.7 0.527344V1.42191ZM217.875 1.42191L214.288 1.42191V0.527344L217.875 0.527344V1.42191ZM225.05 1.42191L221.463 1.42191V0.527344L225.05 0.527344V1.42191ZM232.225 1.42191L228.637 1.42191V0.527344L232.225 0.527344V1.42191ZM239.4 1.42191L235.812 1.42191V0.527344L239.4 0.527344V1.42191ZM246.575 1.42191L242.987 1.42191V0.527344L246.575 0.527344V1.42191ZM253.75 1.42191L250.162 1.42191V0.527344L253.75 0.527344V1.42191ZM260.925 1.42191L257.337 1.42191V0.527344L260.925 0.527344V1.42191ZM268.1 1.42191L264.512 1.42191V0.527344L268.1 0.527344V1.42191ZM275.275 1.42191L271.687 1.42191V0.527344L275.275 0.527344V1.42191ZM282.45 1.42191L278.862 1.42191V0.527344L282.45 0.527344V1.42191ZM289.625 1.42191L286.037 1.42191V0.527344L289.625 0.527344V1.42191ZM296.8 1.42191L293.212 1.42191V0.527344L296.8 0.527344V1.42191ZM303.975 1.42191L300.387 1.42191V0.527344L303.975 0.527344V1.42191ZM311.15 1.42191L307.562 1.42191V0.527344L311.15 0.527344V1.42191ZM318.325 1.42191L314.737 1.42191V0.527344L318.325 0.527344V1.42191ZM325.5 1.42191L321.912 1.42191V0.527344L325.5 0.527344V1.42191ZM332.675 1.42191L329.087 1.42191V0.527344L332.675 0.527344V1.42191ZM339.85 1.42191L336.262 1.42191V0.527344L339.85 0.527344V1.42191ZM347.025 1.42191L343.437 1.42191V0.527344L347.025 0.527344V1.42191ZM354.2 1.42191L350.612 1.42191V0.527344L354.2 0.527344V1.42191ZM361.375 1.42191L357.787 1.42191V0.527344L361.375 0.527344V1.42191ZM368.55 1.42191L364.962 1.42191V0.527344L368.55 0.527344V1.42191ZM375.725 1.42191L372.137 1.42191V0.527344L375.725 0.527344V1.42191ZM382.9 1.42191L379.312 1.42191V0.527344L382.9 0.527344V1.42191ZM390.074 1.42191L386.487 1.42191V0.527344L390.074 0.527344V1.42191ZM397.249 1.42191L393.662 1.42191V0.527344L397.249 0.527344V1.42191ZM404.424 1.42191L400.837 1.42191V0.527344L404.424 0.527344V1.42191ZM411.599 1.42191L408.012 1.42191V0.527344L411.599 0.527344V1.42191ZM418.774 1.42191L415.187 1.42191V0.527344L418.774 0.527344V1.42191ZM425.949 1.42191L422.362 1.42191V0.527344L425.949 0.527344V1.42191ZM433.124 1.42191L429.537 1.42191V0.527344L433.124 0.527344V1.42191ZM440.299 1.42191L436.712 1.42191V0.527344L440.299 0.527344V1.42191ZM447.474 1.42191L443.887 1.42191V0.527344L447.474 0.527344V1.42191ZM454.649 1.42191L451.062 1.42191V0.527344L454.649 0.527344V1.42191ZM461.824 1.42191L458.237 1.42191V0.527344L461.824 0.527344V1.42191ZM468.999 1.42191L465.412 1.42191V0.527344L468.999 0.527344V1.42191ZM476.174 1.42191L472.587 1.42191V0.527344L476.174 0.527344V1.42191ZM483.349 1.42191L479.762 1.42191V0.527344L483.349 0.527344V1.42191ZM490.524 1.42191L486.936 1.42191V0.527344L490.524 0.527344V1.42191ZM497.699 1.42191L494.111 1.42191V0.527344L497.699 0.527344V1.42191ZM504.874 1.42191L501.286 1.42191V0.527344L504.874 0.527344V1.42191ZM512.049 1.42191L508.461 1.42191V0.527344L512.049 0.527344V1.42191ZM519.224 1.42191L515.636 1.42191V0.527344L519.224 0.527344V1.42191ZM526.398 1.42191L522.811 1.42191V0.527344L526.398 0.527344V1.42191ZM533.573 1.42191L529.986 1.42191V0.527344L533.573 0.527344V1.42191ZM540.748 1.42191L537.161 1.42191V0.527344L540.748 0.527344V1.42191ZM547.923 1.42191L544.336 1.42191V0.527344L547.923 0.527344V1.42191ZM555.098 1.42191L551.511 1.42191V0.527344L555.098 0.527344V1.42191ZM562.273 1.42191L558.686 1.42191V0.527344L562.273 0.527344V1.42191ZM569.448 1.42191L565.861 1.42191V0.527344L569.448 0.527344V1.42191ZM576.623 1.42191L573.036 1.42191V0.527344L576.623 0.527344V1.42191ZM583.798 1.42191L580.21 1.42191V0.527344L583.798 0.527344V1.42191ZM590.973 1.42191L587.385 1.42191V0.527344L590.973 0.527344V1.42191ZM598.148 1.42191L594.56 1.42191V0.527344L598.148 0.527344V1.42191ZM605.323 1.42191L601.735 1.42191V0.527344L605.323 0.527344V1.42191ZM612.498 1.42191L608.91 1.42191V0.527344L612.498 0.527344V1.42191ZM619.673 1.42191L616.085 1.42191V0.527344L619.673 0.527344V1.42191ZM626.847 1.42191L623.26 1.42191V0.527344L626.847 0.527344V1.42191ZM634.022 1.42191L630.435 1.42191V0.527344L634.022 0.527344V1.42191ZM641.197 1.42191L637.61 1.42191V0.527344L641.197 0.527344V1.42191ZM648.372 1.42191L644.785 1.42191V0.527344L648.372 0.527344V1.42191ZM655.547 1.42191L651.96 1.42191V0.527344L655.547 0.527344V1.42191ZM662.722 1.42191L659.135 1.42191V0.527344L662.722 0.527344V1.42191ZM669.897 1.42191L666.31 1.42191V0.527344L669.897 0.527344V1.42191ZM677.072 1.42191L673.484 1.42191V0.527344L677.072 0.527344V1.42191ZM684.247 1.42191L680.659 1.42191V0.527344L684.247 0.527344V1.42191ZM691.422 1.42191L687.834 1.42191V0.527344L691.422 0.527344V1.42191ZM698.597 1.42191L695.009 1.42191V0.527344L698.597 0.527344V1.42191ZM705.772 1.42191L702.184 1.42191V0.527344L705.772 0.527344V1.42191ZM712.947 1.42191L709.359 1.42191V0.527344L712.947 0.527344V1.42191ZM720.121 1.42191L716.534 1.42191V0.527344L720.121 0.527344V1.42191ZM727.296 1.42191L723.709 1.42191V0.527344L727.296 0.527344V1.42191ZM734.471 1.42191L730.884 1.42191V0.527344L734.471 0.527344V1.42191ZM741.646 1.42191L738.059 1.42191V0.527344L741.646 0.527344V1.42191ZM748.821 1.42191L745.234 1.42191V0.527344L748.821 0.527344V1.42191ZM755.996 1.42191L752.409 1.42191V0.527344L755.996 0.527344V1.42191ZM763.171 1.42191L759.583 1.42191V0.527344L763.171 0.527344V1.42191ZM770.346 1.42191L766.758 1.42191V0.527344L770.346 0.527344V1.42191ZM777.521 1.42191L773.933 1.42191V0.527344L777.521 0.527344V1.42191ZM784.696 1.42191L781.108 1.42191V0.527344L784.696 0.527344V1.42191ZM791.871 1.42191L788.283 1.42191V0.527344L791.871 0.527344V1.42191ZM799.046 1.42191L795.458 1.42191V0.527344L799.046 0.527344V1.42191ZM806.221 1.42191L802.633 1.42191V0.527344L806.221 0.527344V1.42191ZM813.395 1.42191L809.808 1.42191V0.527344L813.395 0.527344V1.42191ZM820.57 1.42191L816.983 1.42191V0.527344L820.57 0.527344V1.42191ZM827.745 1.42191L824.158 1.42191V0.527344L827.745 0.527344V1.42191ZM834.92 1.42191L831.333 1.42191V0.527344L834.92 0.527344V1.42191ZM842.095 1.42191L838.508 1.42191V0.527344L842.095 0.527344V1.42191ZM849.27 1.42191L845.683 1.42191V0.527344L849.27 0.527344V1.42191ZM856.445 1.42191L852.857 1.42191V0.527344L856.445 0.527344V1.42191ZM863.62 1.42191L860.032 1.42191V0.527344L863.62 0.527344V1.42191ZM870.795 1.42191L867.207 1.42191V0.527344L870.795 0.527344V1.42191ZM877.97 1.42191L874.382 1.42191V0.527344L877.97 0.527344V1.42191ZM885.145 1.42191L881.557 1.42191V0.527344L885.145 0.527344V1.42191ZM892.32 1.42191L888.732 1.42191V0.527344L892.32 0.527344V1.42191ZM899.495 1.42191L895.907 1.42191V0.527344L899.495 0.527344V1.42191ZM906.669 1.42191L903.082 1.42191V0.527344L906.669 0.527344V1.42191ZM913.844 1.42191L910.257 1.42191V0.527344L913.844 0.527344V1.42191ZM921.019 1.42191L917.432 1.42191V0.527344L921.019 0.527344V1.42191ZM928.194 1.42191L924.607 1.42191V0.527344L928.194 0.527344V1.42191ZM935.369 1.42191L931.782 1.42191V0.527344L935.369 0.527344V1.42191ZM942.544 1.42191L938.957 1.42191V0.527344L942.544 0.527344V1.42191ZM949.719 1.42191L946.132 1.42191V0.527344L949.719 0.527344V1.42191ZM956.894 1.42191L953.307 1.42191V0.527344L956.894 0.527344V1.42191ZM964.069 1.42191L960.482 1.42191V0.527344L964.069 0.527344V1.42191ZM971.245 1.42191L967.657 1.42191V0.527344L971.245 0.527344V1.42191ZM978.419 1.42191L974.832 1.42191V0.527344L978.419 0.527344V1.42191ZM985.595 1.42191L982.007 1.42191V0.527344L985.595 0.527344V1.42191ZM992.77 1.42191L989.182 1.42191V0.527344L992.77 0.527344V1.42191ZM999.945 1.42191L996.357 1.42191V0.527344L999.945 0.527344V1.42191ZM1007.12 1.42191L1003.53 1.42191V0.527344L1007.12 0.527344V1.42191ZM1014.29 1.42191L1010.71 1.42191V0.527344L1014.29 0.527344V1.42191ZM1021.47 1.42191L1017.88 1.42191V0.527344L1021.47 0.527344V1.42191ZM1028.64 1.42191L1025.06 1.42191V0.527344L1028.64 0.527344V1.42191ZM1035.82 1.42191L1032.23 1.42191V0.527344L1035.82 0.527344V1.42191ZM1042.99 1.42191L1039.41 1.42191V0.527344L1042.99 0.527344V1.42191ZM1050.17 1.42191L1046.58 1.42191V0.527344L1050.17 0.527344V1.42191ZM1055.55 1.42191L1053.76 1.42191V0.527344L1055.55 0.527344V1.42191Z" fill="#E2E8F0"/>
</svg>
