<svg width="22" height="22" viewBox="0 0 22 22" fill="none" xmlns="http://www.w3.org/2000/svg">
<path d="M16.7111 6.73438H4.62213" stroke="#C10B0E" stroke-opacity="0.8" stroke-width="1.06667" stroke-linecap="round"/>
<path d="M15.5259 8.51172L15.1988 13.4178C15.073 15.3057 15.01 16.2497 14.3949 16.8251C13.7798 17.4006 12.8337 17.4006 10.9416 17.4006H10.3917C8.49953 17.4006 7.55347 17.4006 6.93835 16.8251C6.32324 16.2497 6.2603 15.3057 6.13444 13.4178L5.80737 8.51172" stroke="#C10B0E" stroke-opacity="0.8" stroke-width="1.06667" stroke-linecap="round"/>
<path opacity="0.5" d="M8.88885 10.2891L9.24441 13.8446" stroke="#C10B0E" stroke-opacity="0.8" stroke-width="1.06667" stroke-linecap="round"/>
<path opacity="0.5" d="M12.4444 10.2891L12.0889 13.8446" stroke="#C10B0E" stroke-opacity="0.8" stroke-width="1.06667" stroke-linecap="round"/>
<path opacity="0.5" d="M6.75549 6.73392C6.79523 6.73392 6.8151 6.73392 6.83311 6.73346C7.41867 6.71862 7.93524 6.3463 8.13449 5.79548C8.14062 5.77854 8.1469 5.75969 8.15947 5.72199L8.22851 5.51487C8.28745 5.33806 8.31691 5.24966 8.356 5.1746C8.51195 4.87513 8.80047 4.66717 9.13388 4.61393C9.21745 4.60059 9.31064 4.60059 9.49701 4.60059H11.8362C12.0226 4.60059 12.1158 4.60059 12.1993 4.61393C12.5327 4.66717 12.8213 4.87513 12.9772 5.1746C13.0163 5.24966 13.0458 5.33806 13.1047 5.51487L13.1737 5.72199C13.1863 5.75964 13.1926 5.77855 13.1987 5.79548C13.398 6.3463 13.9145 6.71862 14.5001 6.73346C14.5181 6.73392 14.538 6.73392 14.5777 6.73392" stroke="#C10B0E" stroke-opacity="0.8" stroke-width="1.06667"/>
</svg>
