<svg width="1056" height="2" viewBox="0 0 1056 2" fill="none" xmlns="http://www.w3.org/2000/svg">
<path fill-rule="evenodd" clip-rule="evenodd" d="M2.62577 1.62503L0.832031 1.62503L0.832031 0.730469L2.62577 0.730469V1.62503ZM9.80075 1.62503L6.21326 1.62503V0.730469L9.80075 0.730469V1.62503ZM16.9757 1.62503L13.3882 1.62503V0.730469L16.9757 0.730469V1.62503ZM24.1507 1.62503L20.5632 1.62503V0.730469L24.1507 0.730469V1.62503ZM31.3257 1.62503L27.7382 1.62503V0.730469L31.3257 0.730469V1.62503ZM38.5006 1.62503L34.9131 1.62503V0.730469L38.5006 0.730469V1.62503ZM45.6756 1.62503L42.0881 1.62503V0.730469L45.6756 0.730469V1.62503ZM52.8506 1.62503L49.2631 1.62503V0.730469L52.8506 0.730469V1.62503ZM60.0255 1.62503L56.4381 1.62503V0.730469L60.0255 0.730469V1.62503ZM67.2005 1.62503L63.613 1.62503V0.730469L67.2005 0.730469V1.62503ZM74.3755 1.62503L70.788 1.62503V0.730469L74.3755 0.730469V1.62503ZM81.5505 1.62503L77.963 1.62503V0.730469L81.5505 0.730469V1.62503ZM88.7255 1.62503L85.138 1.62503V0.730469L88.7255 0.730469V1.62503ZM95.9004 1.62503L92.3129 1.62503V0.730469L95.9004 0.730469V1.62503ZM103.075 1.62503L99.4879 1.62503V0.730469L103.075 0.730469V1.62503ZM110.25 1.62503L106.663 1.62503V0.730469L110.25 0.730469V1.62503ZM117.425 1.62503L113.838 1.62503V0.730469L117.425 0.730469V1.62503ZM124.6 1.62503L121.013 1.62503V0.730469L124.6 0.730469V1.62503ZM131.775 1.62503L128.188 1.62503V0.730469L131.775 0.730469V1.62503ZM138.95 1.62503L135.363 1.62503V0.730469L138.95 0.730469V1.62503ZM146.125 1.62503L142.538 1.62503V0.730469L146.125 0.730469V1.62503ZM153.3 1.62503L149.713 1.62503V0.730469L153.3 0.730469V1.62503ZM160.475 1.62503L156.888 1.62503V0.730469L160.475 0.730469V1.62503ZM167.65 1.62503L164.063 1.62503V0.730469L167.65 0.730469V1.62503ZM174.825 1.62503L171.238 1.62503V0.730469L174.825 0.730469V1.62503ZM182 1.62503L178.413 1.62503V0.730469L182 0.730469V1.62503ZM189.175 1.62503L185.588 1.62503V0.730469L189.175 0.730469V1.62503ZM196.35 1.62503L192.763 1.62503V0.730469L196.35 0.730469V1.62503ZM203.525 1.62503L199.938 1.62503V0.730469L203.525 0.730469V1.62503ZM210.7 1.62503L207.113 1.62503V0.730469L210.7 0.730469V1.62503ZM217.875 1.62503L214.288 1.62503V0.730469L217.875 0.730469V1.62503ZM225.05 1.62503L221.463 1.62503V0.730469L225.05 0.730469V1.62503ZM232.225 1.62503L228.637 1.62503V0.730469L232.225 0.730469V1.62503ZM239.4 1.62503L235.812 1.62503V0.730469L239.4 0.730469V1.62503ZM246.575 1.62503L242.987 1.62503V0.730469L246.575 0.730469V1.62503ZM253.75 1.62503L250.162 1.62503V0.730469L253.75 0.730469V1.62503ZM260.925 1.62503L257.337 1.62503V0.730469L260.925 0.730469V1.62503ZM268.1 1.62503L264.512 1.62503V0.730469L268.1 0.730469V1.62503ZM275.275 1.62503L271.687 1.62503V0.730469L275.275 0.730469V1.62503ZM282.45 1.62503L278.862 1.62503V0.730469L282.45 0.730469V1.62503ZM289.625 1.62503L286.037 1.62503V0.730469L289.625 0.730469V1.62503ZM296.8 1.62503L293.212 1.62503V0.730469L296.8 0.730469V1.62503ZM303.975 1.62503L300.387 1.62503V0.730469L303.975 0.730469V1.62503ZM311.15 1.62503L307.562 1.62503V0.730469L311.15 0.730469V1.62503ZM318.325 1.62503L314.737 1.62503V0.730469L318.325 0.730469V1.62503ZM325.5 1.62503L321.912 1.62503V0.730469L325.5 0.730469V1.62503ZM332.675 1.62503L329.087 1.62503V0.730469L332.675 0.730469V1.62503ZM339.85 1.62503L336.262 1.62503V0.730469L339.85 0.730469V1.62503ZM347.025 1.62503L343.437 1.62503V0.730469L347.025 0.730469V1.62503ZM354.2 1.62503L350.612 1.62503V0.730469L354.2 0.730469V1.62503ZM361.375 1.62503L357.787 1.62503V0.730469L361.375 0.730469V1.62503ZM368.55 1.62503L364.962 1.62503V0.730469L368.55 0.730469V1.62503ZM375.725 1.62503L372.137 1.62503V0.730469L375.725 0.730469V1.62503ZM382.9 1.62503L379.312 1.62503V0.730469L382.9 0.730469V1.62503ZM390.074 1.62503L386.487 1.62503V0.730469L390.074 0.730469V1.62503ZM397.249 1.62503L393.662 1.62503V0.730469L397.249 0.730469V1.62503ZM404.424 1.62503L400.837 1.62503V0.730469L404.424 0.730469V1.62503ZM411.599 1.62503L408.012 1.62503V0.730469L411.599 0.730469V1.62503ZM418.774 1.62503L415.187 1.62503V0.730469L418.774 0.730469V1.62503ZM425.949 1.62503L422.362 1.62503V0.730469L425.949 0.730469V1.62503ZM433.124 1.62503L429.537 1.62503V0.730469L433.124 0.730469V1.62503ZM440.299 1.62503L436.712 1.62503V0.730469L440.299 0.730469V1.62503ZM447.474 1.62503L443.887 1.62503V0.730469L447.474 0.730469V1.62503ZM454.649 1.62503L451.062 1.62503V0.730469L454.649 0.730469V1.62503ZM461.824 1.62503L458.237 1.62503V0.730469L461.824 0.730469V1.62503ZM468.999 1.62503L465.412 1.62503V0.730469L468.999 0.730469V1.62503ZM476.174 1.62503L472.587 1.62503V0.730469L476.174 0.730469V1.62503ZM483.349 1.62503L479.762 1.62503V0.730469L483.349 0.730469V1.62503ZM490.524 1.62503L486.936 1.62503V0.730469L490.524 0.730469V1.62503ZM497.699 1.62503L494.111 1.62503V0.730469L497.699 0.730469V1.62503ZM504.874 1.62503L501.286 1.62503V0.730469L504.874 0.730469V1.62503ZM512.049 1.62503L508.461 1.62503V0.730469L512.049 0.730469V1.62503ZM519.224 1.62503L515.636 1.62503V0.730469L519.224 0.730469V1.62503ZM526.398 1.62503L522.811 1.62503V0.730469L526.398 0.730469V1.62503ZM533.573 1.62503L529.986 1.62503V0.730469L533.573 0.730469V1.62503ZM540.748 1.62503L537.161 1.62503V0.730469L540.748 0.730469V1.62503ZM547.923 1.62503L544.336 1.62503V0.730469L547.923 0.730469V1.62503ZM555.098 1.62503L551.511 1.62503V0.730469L555.098 0.730469V1.62503ZM562.273 1.62503L558.686 1.62503V0.730469L562.273 0.730469V1.62503ZM569.448 1.62503L565.861 1.62503V0.730469L569.448 0.730469V1.62503ZM576.623 1.62503L573.036 1.62503V0.730469L576.623 0.730469V1.62503ZM583.798 1.62503L580.21 1.62503V0.730469L583.798 0.730469V1.62503ZM590.973 1.62503L587.385 1.62503V0.730469L590.973 0.730469V1.62503ZM598.148 1.62503L594.56 1.62503V0.730469L598.148 0.730469V1.62503ZM605.323 1.62503L601.735 1.62503V0.730469L605.323 0.730469V1.62503ZM612.498 1.62503L608.91 1.62503V0.730469L612.498 0.730469V1.62503ZM619.673 1.62503L616.085 1.62503V0.730469L619.673 0.730469V1.62503ZM626.847 1.62503L623.26 1.62503V0.730469L626.847 0.730469V1.62503ZM634.022 1.62503L630.435 1.62503V0.730469L634.022 0.730469V1.62503ZM641.197 1.62503L637.61 1.62503V0.730469L641.197 0.730469V1.62503ZM648.372 1.62503L644.785 1.62503V0.730469L648.372 0.730469V1.62503ZM655.547 1.62503L651.96 1.62503V0.730469L655.547 0.730469V1.62503ZM662.722 1.62503L659.135 1.62503V0.730469L662.722 0.730469V1.62503ZM669.897 1.62503L666.31 1.62503V0.730469L669.897 0.730469V1.62503ZM677.072 1.62503L673.484 1.62503V0.730469L677.072 0.730469V1.62503ZM684.247 1.62503L680.659 1.62503V0.730469L684.247 0.730469V1.62503ZM691.422 1.62503L687.834 1.62503V0.730469L691.422 0.730469V1.62503ZM698.597 1.62503L695.009 1.62503V0.730469L698.597 0.730469V1.62503ZM705.772 1.62503L702.184 1.62503V0.730469L705.772 0.730469V1.62503ZM712.947 1.62503L709.359 1.62503V0.730469L712.947 0.730469V1.62503ZM720.121 1.62503L716.534 1.62503V0.730469L720.121 0.730469V1.62503ZM727.296 1.62503L723.709 1.62503V0.730469L727.296 0.730469V1.62503ZM734.471 1.62503L730.884 1.62503V0.730469L734.471 0.730469V1.62503ZM741.646 1.62503L738.059 1.62503V0.730469L741.646 0.730469V1.62503ZM748.821 1.62503L745.234 1.62503V0.730469L748.821 0.730469V1.62503ZM755.996 1.62503L752.409 1.62503V0.730469L755.996 0.730469V1.62503ZM763.171 1.62503L759.583 1.62503V0.730469L763.171 0.730469V1.62503ZM770.346 1.62503L766.758 1.62503V0.730469L770.346 0.730469V1.62503ZM777.521 1.62503L773.933 1.62503V0.730469L777.521 0.730469V1.62503ZM784.696 1.62503L781.108 1.62503V0.730469L784.696 0.730469V1.62503ZM791.871 1.62503L788.283 1.62503V0.730469L791.871 0.730469V1.62503ZM799.046 1.62503L795.458 1.62503V0.730469L799.046 0.730469V1.62503ZM806.221 1.62503L802.633 1.62503V0.730469L806.221 0.730469V1.62503ZM813.395 1.62503L809.808 1.62503V0.730469L813.395 0.730469V1.62503ZM820.57 1.62503L816.983 1.62503V0.730469L820.57 0.730469V1.62503ZM827.745 1.62503L824.158 1.62503V0.730469L827.745 0.730469V1.62503ZM834.92 1.62503L831.333 1.62503V0.730469L834.92 0.730469V1.62503ZM842.095 1.62503L838.508 1.62503V0.730469L842.095 0.730469V1.62503ZM849.27 1.62503L845.683 1.62503V0.730469L849.27 0.730469V1.62503ZM856.445 1.62503L852.857 1.62503V0.730469L856.445 0.730469V1.62503ZM863.62 1.62503L860.032 1.62503V0.730469L863.62 0.730469V1.62503ZM870.795 1.62503L867.207 1.62503V0.730469L870.795 0.730469V1.62503ZM877.97 1.62503L874.382 1.62503V0.730469L877.97 0.730469V1.62503ZM885.145 1.62503L881.557 1.62503V0.730469L885.145 0.730469V1.62503ZM892.32 1.62503L888.732 1.62503V0.730469L892.32 0.730469V1.62503ZM899.495 1.62503L895.907 1.62503V0.730469L899.495 0.730469V1.62503ZM906.669 1.62503L903.082 1.62503V0.730469L906.669 0.730469V1.62503ZM913.844 1.62503L910.257 1.62503V0.730469L913.844 0.730469V1.62503ZM921.019 1.62503L917.432 1.62503V0.730469L921.019 0.730469V1.62503ZM928.194 1.62503L924.607 1.62503V0.730469L928.194 0.730469V1.62503ZM935.369 1.62503L931.782 1.62503V0.730469L935.369 0.730469V1.62503ZM942.544 1.62503L938.957 1.62503V0.730469L942.544 0.730469V1.62503ZM949.719 1.62503L946.132 1.62503V0.730469L949.719 0.730469V1.62503ZM956.894 1.62503L953.307 1.62503V0.730469L956.894 0.730469V1.62503ZM964.069 1.62503L960.482 1.62503V0.730469L964.069 0.730469V1.62503ZM971.245 1.62503L967.657 1.62503V0.730469L971.245 0.730469V1.62503ZM978.419 1.62503L974.832 1.62503V0.730469L978.419 0.730469V1.62503ZM985.595 1.62503L982.007 1.62503V0.730469L985.595 0.730469V1.62503ZM992.77 1.62503L989.182 1.62503V0.730469L992.77 0.730469V1.62503ZM999.945 1.62503L996.357 1.62503V0.730469L999.945 0.730469V1.62503ZM1007.12 1.62503L1003.53 1.62503V0.730469L1007.12 0.730469V1.62503ZM1014.29 1.62503L1010.71 1.62503V0.730469L1014.29 0.730469V1.62503ZM1021.47 1.62503L1017.88 1.62503V0.730469L1021.47 0.730469V1.62503ZM1028.64 1.62503L1025.06 1.62503V0.730469L1028.64 0.730469V1.62503ZM1035.82 1.62503L1032.23 1.62503V0.730469L1035.82 0.730469V1.62503ZM1042.99 1.62503L1039.41 1.62503V0.730469L1042.99 0.730469V1.62503ZM1050.17 1.62503L1046.58 1.62503V0.730469L1050.17 0.730469V1.62503ZM1055.55 1.62503L1053.76 1.62503V0.730469L1055.55 0.730469V1.62503Z" fill="#E2E8F0"/>
</svg>
