<svg width="1056" height="2" viewBox="0 0 1056 2" fill="none" xmlns="http://www.w3.org/2000/svg">
<path fill-rule="evenodd" clip-rule="evenodd" d="M2.6259 1.22269L0.832153 1.22269L0.832153 0.328125L2.6259 0.328125V1.22269ZM9.80087 1.22269L6.21338 1.22269V0.328125L9.80087 0.328125V1.22269ZM16.9758 1.22269L13.3884 1.22269V0.328125L16.9758 0.328125V1.22269ZM24.1508 1.22269L20.5633 1.22269V0.328125L24.1508 0.328125V1.22269ZM31.3258 1.22269L27.7383 1.22269V0.328125L31.3258 0.328125V1.22269ZM38.5008 1.22269L34.9133 1.22269V0.328125L38.5008 0.328125V1.22269ZM45.6757 1.22269L42.0882 1.22269V0.328125L45.6757 0.328125V1.22269ZM52.8507 1.22269L49.2632 1.22269V0.328125L52.8507 0.328125V1.22269ZM60.0257 1.22269L56.4382 1.22269V0.328125L60.0257 0.328125V1.22269ZM67.2006 1.22269L63.6132 1.22269V0.328125L67.2006 0.328125V1.22269ZM74.3756 1.22269L70.7881 1.22269V0.328125L74.3756 0.328125V1.22269ZM81.5506 1.22269L77.9631 1.22269V0.328125L81.5506 0.328125V1.22269ZM88.7256 1.22269L85.1381 1.22269V0.328125L88.7256 0.328125V1.22269ZM95.9005 1.22269L92.3131 1.22269V0.328125L95.9005 0.328125V1.22269ZM103.076 1.22269L99.488 1.22269V0.328125L103.076 0.328125V1.22269ZM110.251 1.22269L106.663 1.22269V0.328125L110.251 0.328125V1.22269ZM117.425 1.22269L113.838 1.22269V0.328125L117.425 0.328125V1.22269ZM124.6 1.22269L121.013 1.22269V0.328125L124.6 0.328125V1.22269ZM131.775 1.22269L128.188 1.22269V0.328125L131.775 0.328125V1.22269ZM138.95 1.22269L135.363 1.22269V0.328125L138.95 0.328125V1.22269ZM146.125 1.22269L142.538 1.22269V0.328125L146.125 0.328125V1.22269ZM153.3 1.22269L149.713 1.22269V0.328125L153.3 0.328125V1.22269ZM160.475 1.22269L156.888 1.22269V0.328125L160.475 0.328125V1.22269ZM167.65 1.22269L164.063 1.22269V0.328125L167.65 0.328125V1.22269ZM174.825 1.22269L171.238 1.22269V0.328125L174.825 0.328125V1.22269ZM182 1.22269L178.413 1.22269V0.328125L182 0.328125V1.22269ZM189.175 1.22269L185.588 1.22269V0.328125L189.175 0.328125V1.22269ZM196.35 1.22269L192.763 1.22269V0.328125L196.35 0.328125V1.22269ZM203.525 1.22269L199.938 1.22269V0.328125L203.525 0.328125V1.22269ZM210.7 1.22269L207.113 1.22269V0.328125L210.7 0.328125V1.22269ZM217.875 1.22269L214.288 1.22269V0.328125L217.875 0.328125V1.22269ZM225.05 1.22269L221.463 1.22269V0.328125L225.05 0.328125V1.22269ZM232.225 1.22269L228.638 1.22269V0.328125L232.225 0.328125V1.22269ZM239.4 1.22269L235.813 1.22269V0.328125L239.4 0.328125V1.22269ZM246.575 1.22269L242.988 1.22269V0.328125L246.575 0.328125V1.22269ZM253.75 1.22269L250.163 1.22269V0.328125L253.75 0.328125V1.22269ZM260.925 1.22269L257.338 1.22269V0.328125L260.925 0.328125V1.22269ZM268.1 1.22269L264.512 1.22269V0.328125L268.1 0.328125V1.22269ZM275.275 1.22269L271.687 1.22269V0.328125L275.275 0.328125V1.22269ZM282.45 1.22269L278.862 1.22269V0.328125L282.45 0.328125V1.22269ZM289.625 1.22269L286.037 1.22269V0.328125L289.625 0.328125V1.22269ZM296.8 1.22269L293.212 1.22269V0.328125L296.8 0.328125V1.22269ZM303.975 1.22269L300.387 1.22269V0.328125L303.975 0.328125V1.22269ZM311.15 1.22269L307.562 1.22269V0.328125L311.15 0.328125V1.22269ZM318.325 1.22269L314.737 1.22269V0.328125L318.325 0.328125V1.22269ZM325.5 1.22269L321.912 1.22269V0.328125L325.5 0.328125V1.22269ZM332.675 1.22269L329.087 1.22269V0.328125L332.675 0.328125V1.22269ZM339.85 1.22269L336.262 1.22269V0.328125L339.85 0.328125V1.22269ZM347.025 1.22269L343.437 1.22269V0.328125L347.025 0.328125V1.22269ZM354.2 1.22269L350.612 1.22269V0.328125L354.2 0.328125V1.22269ZM361.375 1.22269L357.787 1.22269V0.328125L361.375 0.328125V1.22269ZM368.55 1.22269L364.962 1.22269V0.328125L368.55 0.328125V1.22269ZM375.725 1.22269L372.137 1.22269V0.328125L375.725 0.328125V1.22269ZM382.9 1.22269L379.312 1.22269V0.328125L382.9 0.328125V1.22269ZM390.075 1.22269L386.487 1.22269V0.328125L390.075 0.328125V1.22269ZM397.25 1.22269L393.662 1.22269V0.328125L397.25 0.328125V1.22269ZM404.425 1.22269L400.837 1.22269V0.328125L404.425 0.328125V1.22269ZM411.6 1.22269L408.012 1.22269V0.328125L411.6 0.328125V1.22269ZM418.775 1.22269L415.187 1.22269V0.328125L418.775 0.328125V1.22269ZM425.949 1.22269L422.362 1.22269V0.328125L425.949 0.328125V1.22269ZM433.124 1.22269L429.537 1.22269V0.328125L433.124 0.328125V1.22269ZM440.299 1.22269L436.712 1.22269V0.328125L440.299 0.328125V1.22269ZM447.474 1.22269L443.887 1.22269V0.328125L447.474 0.328125V1.22269ZM454.649 1.22269L451.062 1.22269V0.328125L454.649 0.328125V1.22269ZM461.824 1.22269L458.237 1.22269V0.328125L461.824 0.328125V1.22269ZM468.999 1.22269L465.412 1.22269V0.328125L468.999 0.328125V1.22269ZM476.174 1.22269L472.587 1.22269V0.328125L476.174 0.328125V1.22269ZM483.349 1.22269L479.762 1.22269V0.328125L483.349 0.328125V1.22269ZM490.524 1.22269L486.937 1.22269V0.328125L490.524 0.328125V1.22269ZM497.699 1.22269L494.112 1.22269V0.328125L497.699 0.328125V1.22269ZM504.874 1.22269L501.286 1.22269V0.328125L504.874 0.328125V1.22269ZM512.049 1.22269L508.461 1.22269V0.328125L512.049 0.328125V1.22269ZM519.224 1.22269L515.636 1.22269V0.328125L519.224 0.328125V1.22269ZM526.399 1.22269L522.811 1.22269V0.328125L526.399 0.328125V1.22269ZM533.574 1.22269L529.986 1.22269V0.328125L533.574 0.328125V1.22269ZM540.748 1.22269L537.161 1.22269V0.328125L540.748 0.328125V1.22269ZM547.923 1.22269L544.336 1.22269V0.328125L547.923 0.328125V1.22269ZM555.098 1.22269L551.511 1.22269V0.328125L555.098 0.328125V1.22269ZM562.273 1.22269L558.686 1.22269V0.328125L562.273 0.328125V1.22269ZM569.448 1.22269L565.861 1.22269V0.328125L569.448 0.328125V1.22269ZM576.623 1.22269L573.036 1.22269V0.328125L576.623 0.328125V1.22269ZM583.798 1.22269L580.211 1.22269V0.328125L583.798 0.328125V1.22269ZM590.973 1.22269L587.385 1.22269V0.328125L590.973 0.328125V1.22269ZM598.148 1.22269L594.56 1.22269V0.328125L598.148 0.328125V1.22269ZM605.323 1.22269L601.735 1.22269V0.328125L605.323 0.328125V1.22269ZM612.498 1.22269L608.91 1.22269V0.328125L612.498 0.328125V1.22269ZM619.673 1.22269L616.085 1.22269V0.328125L619.673 0.328125V1.22269ZM626.848 1.22269L623.26 1.22269V0.328125L626.848 0.328125V1.22269ZM634.023 1.22269L630.435 1.22269V0.328125L634.023 0.328125V1.22269ZM641.197 1.22269L637.61 1.22269V0.328125L641.197 0.328125V1.22269ZM648.372 1.22269L644.785 1.22269V0.328125L648.372 0.328125V1.22269ZM655.547 1.22269L651.96 1.22269V0.328125L655.547 0.328125V1.22269ZM662.722 1.22269L659.135 1.22269V0.328125L662.722 0.328125V1.22269ZM669.897 1.22269L666.31 1.22269V0.328125L669.897 0.328125V1.22269ZM677.072 1.22269L673.485 1.22269V0.328125L677.072 0.328125V1.22269ZM684.247 1.22269L680.659 1.22269V0.328125L684.247 0.328125V1.22269ZM691.422 1.22269L687.834 1.22269V0.328125L691.422 0.328125V1.22269ZM698.597 1.22269L695.009 1.22269V0.328125L698.597 0.328125V1.22269ZM705.772 1.22269L702.184 1.22269V0.328125L705.772 0.328125V1.22269ZM712.947 1.22269L709.359 1.22269V0.328125L712.947 0.328125V1.22269ZM720.122 1.22269L716.534 1.22269V0.328125L720.122 0.328125V1.22269ZM727.297 1.22269L723.709 1.22269V0.328125L727.297 0.328125V1.22269ZM734.471 1.22269L730.884 1.22269V0.328125L734.471 0.328125V1.22269ZM741.646 1.22269L738.059 1.22269V0.328125L741.646 0.328125V1.22269ZM748.821 1.22269L745.234 1.22269V0.328125L748.821 0.328125V1.22269ZM755.996 1.22269L752.409 1.22269V0.328125L755.996 0.328125V1.22269ZM763.171 1.22269L759.584 1.22269V0.328125L763.171 0.328125V1.22269ZM770.346 1.22269L766.759 1.22269V0.328125L770.346 0.328125V1.22269ZM777.521 1.22269L773.933 1.22269V0.328125L777.521 0.328125V1.22269ZM784.696 1.22269L781.108 1.22269V0.328125L784.696 0.328125V1.22269ZM791.871 1.22269L788.283 1.22269V0.328125L791.871 0.328125V1.22269ZM799.046 1.22269L795.458 1.22269V0.328125L799.046 0.328125V1.22269ZM806.221 1.22269L802.633 1.22269V0.328125L806.221 0.328125V1.22269ZM813.396 1.22269L809.808 1.22269V0.328125L813.396 0.328125V1.22269ZM820.57 1.22269L816.983 1.22269V0.328125L820.57 0.328125V1.22269ZM827.745 1.22269L824.158 1.22269V0.328125L827.745 0.328125V1.22269ZM834.92 1.22269L831.333 1.22269V0.328125L834.92 0.328125V1.22269ZM842.095 1.22269L838.508 1.22269V0.328125L842.095 0.328125V1.22269ZM849.27 1.22269L845.683 1.22269V0.328125L849.27 0.328125V1.22269ZM856.445 1.22269L852.858 1.22269V0.328125L856.445 0.328125V1.22269ZM863.62 1.22269L860.033 1.22269V0.328125L863.62 0.328125V1.22269ZM870.795 1.22269L867.207 1.22269V0.328125L870.795 0.328125V1.22269ZM877.97 1.22269L874.382 1.22269V0.328125L877.97 0.328125V1.22269ZM885.145 1.22269L881.557 1.22269V0.328125L885.145 0.328125V1.22269ZM892.32 1.22269L888.732 1.22269V0.328125L892.32 0.328125V1.22269ZM899.495 1.22269L895.907 1.22269V0.328125L899.495 0.328125V1.22269ZM906.67 1.22269L903.082 1.22269V0.328125L906.67 0.328125V1.22269ZM913.844 1.22269L910.257 1.22269V0.328125L913.844 0.328125V1.22269ZM921.019 1.22269L917.432 1.22269V0.328125L921.019 0.328125V1.22269ZM928.194 1.22269L924.607 1.22269V0.328125L928.194 0.328125V1.22269ZM935.369 1.22269L931.782 1.22269V0.328125L935.369 0.328125V1.22269ZM942.544 1.22269L938.957 1.22269V0.328125L942.544 0.328125V1.22269ZM949.72 1.22269L946.132 1.22269V0.328125L949.72 0.328125V1.22269ZM956.895 1.22269L953.307 1.22269V0.328125L956.895 0.328125V1.22269ZM964.07 1.22269L960.482 1.22269V0.328125L964.07 0.328125V1.22269ZM971.245 1.22269L967.657 1.22269V0.328125L971.245 0.328125V1.22269ZM978.42 1.22269L974.832 1.22269V0.328125L978.42 0.328125V1.22269ZM985.595 1.22269L982.007 1.22269V0.328125L985.595 0.328125V1.22269ZM992.77 1.22269L989.182 1.22269V0.328125L992.77 0.328125V1.22269ZM999.945 1.22269L996.357 1.22269V0.328125L999.945 0.328125V1.22269ZM1007.12 1.22269L1003.53 1.22269V0.328125L1007.12 0.328125V1.22269ZM1014.29 1.22269L1010.71 1.22269V0.328125L1014.29 0.328125V1.22269ZM1021.47 1.22269L1017.88 1.22269V0.328125L1021.47 0.328125V1.22269ZM1028.64 1.22269L1025.06 1.22269V0.328125L1028.64 0.328125V1.22269ZM1035.82 1.22269L1032.23 1.22269V0.328125L1035.82 0.328125V1.22269ZM1042.99 1.22269L1039.41 1.22269V0.328125L1042.99 0.328125V1.22269ZM1050.17 1.22269L1046.58 1.22269V0.328125L1050.17 0.328125V1.22269ZM1055.55 1.22269L1053.76 1.22269V0.328125L1055.55 0.328125V1.22269Z" fill="#E2E8F0"/>
</svg>
