<svg width="22" height="22" viewBox="0 0 22 22" fill="none" xmlns="http://www.w3.org/2000/svg">
<path d="M7.93286 5.17115C9.3755 4.31682 10.0968 3.88965 10.8889 3.88965C11.681 3.88965 12.4023 4.31682 13.8449 5.17115L14.3329 5.46011C15.7755 6.31444 16.4968 6.74161 16.8929 7.4452C17.2889 8.1488 17.2889 9.00313 17.2889 10.7118V11.2897C17.2889 12.9984 17.2889 13.8527 16.8929 14.5563C16.4968 15.2599 15.7755 15.6871 14.3329 16.5414L13.8449 16.8304C12.4023 17.6847 11.681 18.1119 10.8889 18.1119C10.0968 18.1119 9.3755 17.6847 7.93286 16.8304L7.44492 16.5414C6.00228 15.6871 5.28096 15.2599 4.88492 14.5563C4.48889 13.8527 4.48889 12.9984 4.48889 11.2897V10.7118C4.48889 9.00313 4.48889 8.1488 4.88492 7.4452C5.28096 6.74161 6.00228 6.31444 7.44492 5.46011L7.93286 5.17115Z" stroke="#0EAD69" stroke-width="1.06667"/>
<circle opacity="0.5" cx="10.8889" cy="11.0005" r="2.13333" stroke="#0EAD69" stroke-width="1.06667"/>
</svg>
