<svg width="12" height="12" viewBox="0 0 12 12" fill="none" xmlns="http://www.w3.org/2000/svg">
<path d="M3.0484 3.35212L3.04842 3.35238L3.06134 3.35076C3.16276 3.33808 3.27285 3.33333 3.395 3.33333H6.595C7.34085 3.33333 7.83998 3.52013 8.15492 3.83508C8.46987 4.15002 8.65667 4.64915 8.65667 5.395V7.395C8.65667 7.51715 8.65192 7.62724 8.63924 7.72866L8.63898 7.72862L8.63787 7.74171C8.58552 8.35629 8.38387 8.76836 8.07308 9.03209C7.75783 9.2996 7.28085 9.45667 6.595 9.45667H6.395C6.16508 9.45667 5.94628 9.56606 5.80833 9.75L5.20833 10.55L5.20788 10.5506C5.12826 10.6573 5.04784 10.6829 4.995 10.6829C4.94216 10.6829 4.86174 10.6573 4.78212 10.5506L4.78167 10.55L4.18167 9.75L4.18168 9.74999L4.17979 9.74752C4.10836 9.65411 4.01087 9.58542 3.92222 9.54063C3.83379 9.49593 3.71786 9.45667 3.595 9.45667H3.395C2.60297 9.45667 2.11791 9.35276 1.81863 9.09142C1.53055 8.83986 1.33333 8.36633 1.33333 7.395V5.395C1.33333 4.70971 1.49139 4.23262 1.75959 3.91716C2.02413 3.60598 2.43653 3.40444 3.0484 3.35212ZM2.41667 6.5C2.41667 6.95692 2.78373 7.33333 3.25 7.33333C3.7091 7.33333 4.08333 6.9591 4.08333 6.5C4.08333 6.0409 3.7091 5.66667 3.25 5.66667C2.79091 5.66667 2.41667 6.0409 2.41667 6.5ZM4.16167 6.5C4.16167 6.95692 4.52873 7.33333 4.995 7.33333C5.46127 7.33333 5.82833 6.95692 5.82833 6.5C5.82833 6.0409 5.45409 5.66667 4.995 5.66667C4.5359 5.66667 4.16167 6.0409 4.16167 6.5ZM5.91167 6.5C5.91167 6.95692 6.27873 7.33333 6.745 7.33333C7.20409 7.33333 7.57833 6.9591 7.57833 6.5C7.57833 6.0409 7.20409 5.66667 6.745 5.66667C6.2859 5.66667 5.91167 6.0409 5.91167 6.5Z" fill="#757575" stroke="#757575" stroke-width="0.666667"/>
<path d="M10.9899 3.395V5.395C10.9899 6.395 10.6799 7.075 10.0599 7.45C9.90988 7.54 9.73488 7.42 9.73488 7.245L9.73988 5.395C9.73988 3.395 8.59488 2.25 6.59488 2.25L3.54988 2.255C3.37488 2.255 3.25488 2.08 3.34488 1.93C3.71988 1.31 4.39988 1 5.39488 1H8.59488C10.1899 1 10.9899 1.8 10.9899 3.395Z" fill="#757575"/>
</svg>
