<svg width="25" height="11" viewBox="0 0 25 11" fill="none" xmlns="http://www.w3.org/2000/svg">
<path d="M16.8481 5.4707C16.8481 8.28858 18.2395 10.1546 20.5835 10.1546C22.915 10.1546 24.3064 8.28858 24.3064 5.4707C24.3064 2.66535 22.8524 0.761719 20.5835 0.761719C18.3022 0.761719 16.8481 2.66535 16.8481 5.4707ZM18.064 5.4707C18.064 3.2164 18.9916 1.86382 20.5835 1.86382C22.1755 1.86382 23.0905 3.2164 23.0905 5.4707C23.0905 7.69995 22.1755 9.05253 20.5835 9.05253C18.9916 9.05253 18.064 7.69995 18.064 5.4707Z" fill="#64748B"/>
<path d="M8.15698 5.4707C8.15698 8.28858 9.54835 10.1546 11.8924 10.1546C14.2239 10.1546 15.6152 8.28858 15.6152 5.4707C15.6152 2.66535 14.1612 0.761719 11.8924 0.761719C9.61103 0.761719 8.15698 2.66535 8.15698 5.4707ZM9.37287 5.4707C9.37287 3.2164 10.3004 1.86382 11.8924 1.86382C13.4843 1.86382 14.3994 3.2164 14.3994 5.4707C14.3994 7.69995 13.4843 9.05253 11.8924 9.05253C10.3004 9.05253 9.37287 7.69995 9.37287 5.4707Z" fill="#64748B"/>
<path d="M7.02645 9.9785V8.83882H2.8398L4.72004 7.21072C6.3245 5.82057 6.96378 4.90632 6.96378 3.61636C6.96378 1.87554 5.79804 0.773438 3.98048 0.773438C2.13785 0.773438 0.909431 2.03835 0.871826 3.97955H2.10024C2.12531 2.68959 2.85234 1.87554 3.96794 1.87554C5.05848 1.87554 5.71029 2.55183 5.71029 3.6915C5.71029 4.65584 5.29664 5.26951 3.83006 6.53443L0.909431 9.05173V9.99102L7.02645 9.9785Z" fill="#64748B"/>
</svg>
