<svg width="25" height="10" viewBox="0 0 25 10" fill="none" xmlns="http://www.w3.org/2000/svg">
<path d="M16.8481 5.06836C16.8481 7.88623 18.2395 9.75229 20.5835 9.75229C22.915 9.75229 24.3064 7.88623 24.3064 5.06836C24.3064 2.26301 22.8524 0.359375 20.5835 0.359375C18.3022 0.359375 16.8481 2.26301 16.8481 5.06836ZM18.064 5.06836C18.064 2.81406 18.9916 1.46148 20.5835 1.46148C22.1755 1.46148 23.0905 2.81406 23.0905 5.06836C23.0905 7.29761 22.1755 8.65019 20.5835 8.65019C18.9916 8.65019 18.064 7.29761 18.064 5.06836Z" fill="#64748B"/>
<path d="M8.15698 5.06836C8.15698 7.88623 9.54835 9.75229 11.8924 9.75229C14.2239 9.75229 15.6152 7.88623 15.6152 5.06836C15.6152 2.26301 14.1612 0.359375 11.8924 0.359375C9.61103 0.359375 8.15698 2.26301 8.15698 5.06836ZM9.37287 5.06836C9.37287 2.81406 10.3004 1.46148 11.8924 1.46148C13.4843 1.46148 14.3994 2.81406 14.3994 5.06836C14.3994 7.29761 13.4843 8.65019 11.8924 8.65019C10.3004 8.65019 9.37287 7.29761 9.37287 5.06836Z" fill="#64748B"/>
<path d="M6.94433 7.76144V6.67186H5.86633V0.535156H4.2744L0 6.67186V7.76144H4.68805V9.58993H5.86633V7.76144H6.94433ZM1.3287 6.67186L4.68805 1.83764V6.67186H1.3287Z" fill="#64748B"/>
</svg>
