<svg width="22" height="11" viewBox="0 0 22 11" fill="none" xmlns="http://www.w3.org/2000/svg">
<path d="M13.8483 5.66992C13.8483 8.48779 15.2396 10.3539 17.5837 10.3539C19.9152 10.3539 21.3065 8.48779 21.3065 5.66992C21.3065 2.86457 19.8525 0.960938 17.5837 0.960938C15.3023 0.960938 13.8483 2.86457 13.8483 5.66992ZM15.0642 5.66992C15.0642 3.41562 15.9917 2.06304 17.5837 2.06304C19.1756 2.06304 20.0906 3.41562 20.0906 5.66992C20.0906 7.89917 19.1756 9.25175 17.5837 9.25175C15.9917 9.25175 15.0642 7.89917 15.0642 5.66992Z" fill="#64748B"/>
<path d="M5.1571 5.66992C5.1571 8.48779 6.54848 10.3539 8.8925 10.3539C11.224 10.3539 12.6154 8.48779 12.6154 5.66992C12.6154 2.86457 11.1613 0.960938 8.8925 0.960938C6.61115 0.960938 5.1571 2.86457 5.1571 5.66992ZM6.37299 5.66992C6.37299 3.41562 7.30057 2.06304 8.8925 2.06304C10.4844 2.06304 11.3995 3.41562 11.3995 5.66992C11.3995 7.89917 10.4844 9.25175 8.8925 9.25175C7.30057 9.25175 6.37299 7.89917 6.37299 5.66992Z" fill="#64748B"/>
<path d="M2.32083 2.23882V10.1915H3.49911V1.13672H0.415527V2.23882H2.32083Z" fill="#64748B"/>
</svg>
