<svg width="25" height="10" viewBox="0 0 25 10" fill="none" xmlns="http://www.w3.org/2000/svg">
<path d="M16.8481 5.26758C16.8481 8.08545 18.2395 9.95151 20.5835 9.95151C22.915 9.95151 24.3064 8.08545 24.3064 5.26758C24.3064 2.46222 22.8524 0.558594 20.5835 0.558594C18.3022 0.558594 16.8481 2.46222 16.8481 5.26758ZM18.064 5.26758C18.064 3.01328 18.9916 1.6607 20.5835 1.6607C22.1755 1.6607 23.0905 3.01328 23.0905 5.26758C23.0905 7.49683 22.1755 8.84941 20.5835 8.84941C18.9916 8.84941 18.064 7.49683 18.064 5.26758Z" fill="#64748B"/>
<path d="M8.15698 5.26758C8.15698 8.08545 9.54835 9.95151 11.8924 9.95151C14.2239 9.95151 15.6152 8.08545 15.6152 5.26758C15.6152 2.46222 14.1612 0.558594 11.8924 0.558594C9.61103 0.558594 8.15698 2.46222 8.15698 5.26758ZM9.37287 5.26758C9.37287 3.01328 10.3004 1.6607 11.8924 1.6607C13.4843 1.6607 14.3994 3.01328 14.3994 5.26758C14.3994 7.49683 13.4843 8.84941 11.8924 8.84941C10.3004 8.84941 9.37287 7.49683 9.37287 5.26758Z" fill="#64748B"/>
<path d="M3.62744 5.10521C5.06895 5.10521 5.82104 5.8316 5.82104 6.92118C5.82104 8.0859 5.05642 8.83733 3.87814 8.83733C2.73746 8.83733 2.01044 8.14852 2.01044 6.97127H0.794556C0.794556 8.84986 2.07311 9.93943 3.85307 9.93943C5.6957 9.93943 7.07453 8.77471 7.07453 6.94622C7.07453 5.31812 5.90879 4.27864 4.367 4.09078L6.8489 1.72376V0.734375H1.22074V1.82395H5.29458L2.72493 4.29116V5.10521H3.62744Z" fill="#64748B"/>
</svg>
