<svg width="29" height="32" viewBox="0 0 29 32" fill="none" xmlns="http://www.w3.org/2000/svg">
<path d="M25.886 22.2885C25.2701 22.2885 24.668 22.0875 24.1559 21.7109C23.6438 21.3342 23.2446 20.7989 23.0089 20.1726C22.7732 19.5463 22.7116 18.8571 22.8317 18.1922C22.9519 17.5274 23.2485 16.9166 23.684 16.4373C24.1195 15.9579 24.6744 15.6315 25.2785 15.4992C25.8826 15.367 26.5087 15.4348 27.0778 15.6943C27.6468 15.9537 28.1332 16.393 28.4753 16.9567C28.8175 17.5203 29.0002 18.183 29.0002 18.8609C29.0002 19.77 28.6721 20.6418 28.0881 21.2846C27.504 21.9274 26.712 22.2885 25.886 22.2885ZM25.886 16.5759C25.4754 16.5759 25.074 16.7099 24.7326 16.961C24.3912 17.2121 24.1251 17.5689 23.968 17.9865C23.8108 18.404 23.7697 18.8635 23.8498 19.3067C23.9299 19.75 24.1277 20.1571 24.418 20.4767C24.7084 20.7963 25.0783 21.0139 25.481 21.1021C25.8837 21.1902 26.3012 21.145 26.6805 20.972C27.0599 20.7991 27.3841 20.5062 27.6122 20.1304C27.8404 19.7547 27.9621 19.3129 27.9621 18.8609C27.9621 18.2549 27.7434 17.6737 27.354 17.2452C26.9647 16.8166 26.4366 16.5759 25.886 16.5759Z" fill="#F57C00"/>
<path d="M26.664 19.4323H25.1069C24.9693 19.4323 24.8373 19.3721 24.7399 19.265C24.6426 19.1579 24.5879 19.0126 24.5879 18.8611C24.5879 18.7095 24.6426 18.5642 24.7399 18.4571C24.8373 18.35 24.9693 18.2898 25.1069 18.2898H26.664C26.8017 18.2898 26.9337 18.35 27.031 18.4571C27.1284 18.5642 27.183 18.7095 27.183 18.8611C27.183 19.0126 27.1284 19.1579 27.031 19.265C26.9337 19.3721 26.8017 19.4323 26.664 19.4323Z" fill="#F57C00"/>
<path d="M25.8852 20.2892C25.7475 20.2892 25.6155 20.229 25.5182 20.1219C25.4208 20.0147 25.3661 19.8694 25.3661 19.7179V18.0041C25.3661 17.8526 25.4208 17.7073 25.5182 17.6002C25.6155 17.493 25.7475 17.4329 25.8852 17.4329C26.0228 17.4329 26.1548 17.493 26.2522 17.6002C26.3495 17.7073 26.4042 17.8526 26.4042 18.0041V19.7179C26.4042 19.8694 26.3495 20.0147 26.2522 20.1219C26.1548 20.229 26.0228 20.2892 25.8852 20.2892Z" fill="#F57C00"/>
<path d="M18.3598 26.8586C17.4655 26.8571 16.6082 26.4654 15.9758 25.7694C15.3434 25.0733 14.9875 24.1297 14.9862 23.1454V16.0046C14.9862 15.8531 15.0409 15.7078 15.1382 15.6007C15.2355 15.4935 15.3675 15.4333 15.5052 15.4333H16.5432C16.6809 15.4333 16.8129 15.4935 16.9103 15.6007C17.0076 15.7078 17.0623 15.8531 17.0623 16.0046C17.0623 16.1561 17.0076 16.3014 16.9103 16.4086C16.8129 16.5157 16.6809 16.5759 16.5432 16.5759H16.0242V23.1454C16.0242 23.8272 16.2703 24.4811 16.7083 24.9632C17.1463 25.4452 17.7404 25.7161 18.3598 25.7161C18.9793 25.7161 19.5733 25.4452 20.0114 24.9632C20.4494 24.4811 20.6954 23.8272 20.6954 23.1454V16.5759H20.1764C20.0388 16.5759 19.9067 16.5157 19.8094 16.4086C19.7121 16.3014 19.6574 16.1561 19.6574 16.0046C19.6574 15.8531 19.7121 15.7078 19.8094 15.6007C19.9067 15.4935 20.0388 15.4333 20.1764 15.4333H21.2145C21.3521 15.4333 21.4841 15.4935 21.5815 15.6007C21.6788 15.7078 21.7335 15.8531 21.7335 16.0046V23.1454C21.7321 24.1297 21.3762 25.0733 20.7439 25.7694C20.1115 26.4654 19.2542 26.8571 18.3598 26.8586Z" fill="#F57C00"/>
<path d="M22.1232 32C20.9879 31.9985 19.8996 31.5015 19.0969 30.6179C18.2942 29.7344 17.8426 28.5366 17.8412 27.2871V26.2874C17.8412 26.1359 17.8959 25.9906 17.9932 25.8834C18.0906 25.7763 18.2226 25.7161 18.3602 25.7161C18.4979 25.7161 18.6299 25.7763 18.7272 25.8834C18.8246 25.9906 18.8793 26.1359 18.8793 26.2874V27.2871C18.8793 28.234 19.221 29.1421 19.8294 29.8117C20.4377 30.4813 21.2628 30.8575 22.1232 30.8575C22.9835 30.8575 23.8086 30.4813 24.417 29.8117C25.0253 29.1421 25.3671 28.234 25.3671 27.2871V21.7173C25.3671 21.5658 25.4218 21.4204 25.5191 21.3133C25.6164 21.2062 25.7484 21.146 25.8861 21.146C26.0237 21.146 26.1558 21.2062 26.2531 21.3133C26.3504 21.4204 26.4051 21.5658 26.4051 21.7173V27.2871C26.4037 28.5366 25.9522 29.7344 25.1494 30.6179C24.3467 31.5015 23.2584 31.9985 22.1232 32Z" fill="#F57C00"/>
<path d="M25.886 8.92093C25.8394 8.92645 25.7924 8.92645 25.7458 8.92093L24.2458 8.46963C24.113 8.42948 24.0001 8.33289 23.932 8.20112C23.8638 8.06935 23.846 7.91318 23.8825 7.76697C23.919 7.62077 24.0068 7.4965 24.1265 7.42151C24.2462 7.34651 24.3881 7.32694 24.5209 7.36709L26.0209 7.81839C26.1586 7.83808 26.2835 7.91716 26.3681 8.03822C26.4528 8.15928 26.4904 8.31241 26.4725 8.46391C26.4546 8.61542 26.3827 8.7529 26.2727 8.84611C26.1627 8.93931 26.0236 8.98061 25.886 8.96091V8.92093Z" fill="#666666"/>
<path d="M24.9001 9.52072C24.8554 9.52862 24.8099 9.52862 24.7652 9.52072C24.6994 9.50089 24.6378 9.46698 24.5839 9.42092C24.53 9.37486 24.4849 9.31756 24.4511 9.2523C24.4174 9.18704 24.3957 9.1151 24.3872 9.04059C24.3788 8.96608 24.3837 8.89047 24.4018 8.81807L24.8119 7.16712C24.8483 7.02091 24.9361 6.89665 25.0558 6.82165C25.1755 6.74666 25.3174 6.72709 25.4503 6.76724C25.5831 6.80739 25.696 6.90397 25.7641 7.03574C25.8323 7.16752 25.8501 7.32368 25.8136 7.46989L25.4036 9.12084C25.37 9.23831 25.3029 9.34071 25.2121 9.41277C25.1214 9.48483 25.012 9.5227 24.9001 9.52072Z" fill="#666666"/>
<path d="M9.1629 29.1952C8.65817 29.1949 8.16448 29.0326 7.74227 28.7282C7.32006 28.4238 6.98765 27.9906 6.78577 27.4814L0.225299 11.3375C-0.0548753 10.6465 -0.0745076 9.86145 0.170712 9.15457C0.415931 8.44769 0.905963 7.87678 1.53324 7.56717L12.002 2.4258C12.1171 2.39861 12.2372 2.41531 12.3426 2.47318C12.4479 2.53104 12.5323 2.62662 12.5818 2.74421C12.6313 2.86181 12.643 2.99444 12.615 3.12032C12.5869 3.24621 12.5209 3.35785 12.4276 3.43694L1.95884 8.57831C1.76954 8.66976 1.59868 8.8018 1.45623 8.96671C1.31378 9.13162 1.20259 9.3261 1.12916 9.5388C1.05572 9.75151 1.0215 9.97818 1.0285 10.2056C1.0355 10.433 1.08358 10.6566 1.16992 10.8634L7.72001 27.0415C7.8031 27.2499 7.92306 27.4379 8.07289 27.5947C8.22272 27.7515 8.39942 27.8739 8.59267 27.9547C8.78593 28.0356 8.99187 28.0732 9.19849 28.0655C9.40511 28.0578 9.60826 28.0049 9.79611 27.9099L14.1351 25.779C14.2587 25.7276 14.3955 25.73 14.5175 25.7856C14.6396 25.8413 14.7377 25.9461 14.792 26.0787C14.8463 26.2113 14.8526 26.3616 14.8096 26.4991C14.7666 26.6367 14.6776 26.7509 14.5607 26.8187L10.2217 28.9496C9.88897 29.1144 9.52779 29.1982 9.1629 29.1952Z" fill="#999999"/>
<path d="M6.54744 10.6804C6.44614 10.6808 6.34695 10.6486 6.2621 10.5877C6.17726 10.5268 6.11045 10.4399 6.06994 10.3377C6.04229 10.2691 6.0272 10.1951 6.02554 10.12C6.02389 10.045 6.03569 9.9703 6.06027 9.90026C6.08485 9.83023 6.12174 9.76622 6.16882 9.71189C6.2159 9.65755 6.27224 9.61397 6.33464 9.58362L10.5958 7.48709C10.6582 7.45633 10.7255 7.43939 10.7938 7.43725C10.8621 7.4351 10.9301 7.44778 10.994 7.47457C11.0578 7.50136 11.1163 7.54173 11.1659 7.59337C11.2156 7.64502 11.2556 7.70693 11.2835 7.77558C11.3115 7.84422 11.3269 7.91825 11.3288 7.99344C11.3308 8.06862 11.3192 8.1435 11.2949 8.21379C11.2706 8.28407 11.2339 8.34839 11.187 8.40308C11.14 8.45776 11.0838 8.50174 11.0214 8.5325L6.75505 10.629C6.68981 10.6618 6.61912 10.6793 6.54744 10.6804Z" fill="#666666"/>
<path d="M6.39136 14.5079C6.27167 14.5113 6.15458 14.4691 6.05993 14.3884C5.96528 14.3077 5.89889 14.1935 5.87201 14.065C5.84513 13.9366 5.85942 13.8019 5.91245 13.6838C5.96548 13.5656 6.05399 13.4713 6.16299 13.4168L9.68197 11.703C9.80554 11.6515 9.94229 11.6539 10.0643 11.7096C10.1864 11.7652 10.2845 11.87 10.3388 12.0026C10.3931 12.1352 10.3994 12.2856 10.3564 12.4231C10.3134 12.5606 10.2245 12.6749 10.1076 12.7427L6.58859 14.4565C6.52655 14.4877 6.45953 14.5052 6.39136 14.5079Z" fill="#666666"/>
<path d="M7.66279 17.6327C7.54447 17.6321 7.42988 17.587 7.33802 17.5049C7.24616 17.4228 7.18254 17.3086 7.15771 17.1813C7.13288 17.054 7.14832 16.9211 7.20147 16.8048C7.25463 16.6884 7.34232 16.5956 7.44999 16.5416L8.63856 15.9703C8.76213 15.9189 8.89887 15.9212 9.02092 15.9769C9.14297 16.0326 9.24113 16.1374 9.2954 16.2699C9.34967 16.4025 9.35596 16.5529 9.313 16.6904C9.27003 16.8279 9.18104 16.9422 9.06416 17.01L7.87559 17.5813C7.80876 17.6148 7.73623 17.6323 7.66279 17.6327Z" fill="#666666"/>
<path d="M13.4291 23.8709C13.3845 23.8796 13.3388 23.8796 13.2942 23.8709L9.4534 22.7284C8.7903 22.5292 8.22608 22.0487 7.88454 21.3921C7.54299 20.7356 7.45204 19.9568 7.63162 19.2266L11.8721 2.1058C11.9616 1.74379 12.1151 1.40475 12.3238 1.10805C12.5324 0.811345 12.7921 0.562792 13.088 0.376588C13.384 0.190384 13.7104 0.0701762 14.0485 0.022832C14.3867 -0.0245121 14.73 0.00193479 15.0589 0.100662L27.0847 3.72247C27.4116 3.8191 27.7178 3.98661 27.9851 4.21517C28.2525 4.44373 28.4757 4.72875 28.6417 5.05351C28.8117 5.37918 28.9217 5.73854 28.9653 6.11104C29.0089 6.48353 28.9854 6.86184 28.896 7.22431L27.23 13.9538C27.1837 14.0855 27.0948 14.1938 26.9803 14.2576C26.8659 14.3214 26.734 14.3363 26.6101 14.2994C26.4863 14.2624 26.3792 14.1763 26.3097 14.0577C26.2401 13.939 26.213 13.7962 26.2334 13.6567L27.9099 6.92726C27.9638 6.70992 27.9783 6.48302 27.9525 6.25952C27.9266 6.03603 27.861 5.82033 27.7594 5.62478C27.6587 5.42853 27.5232 5.25659 27.3609 5.11919C27.1987 4.9818 27.0129 4.88175 26.8148 4.82501L14.8045 1.19749C14.4075 1.08398 13.9858 1.14752 13.6311 1.37429C13.2763 1.60106 13.0173 1.97274 12.9101 2.40857L8.63853 19.4836C8.58419 19.7008 8.56928 19.9276 8.59466 20.1512C8.62005 20.3747 8.68522 20.5905 8.78645 20.7863C8.88768 20.9821 9.02299 21.154 9.18463 21.2922C9.34627 21.4303 9.53108 21.5321 9.72848 21.5916L13.5693 22.7341C13.6359 22.7521 13.6986 22.7845 13.7538 22.8294C13.809 22.8743 13.8556 22.9307 13.8908 22.9956C13.9261 23.0604 13.9493 23.1322 13.9591 23.207C13.969 23.2817 13.9652 23.3579 13.9481 23.4311C13.9207 23.5589 13.8542 23.6724 13.7596 23.7525C13.6651 23.8326 13.5484 23.8744 13.4291 23.8709Z" fill="#999999"/>
<path d="M22.4914 7.64135C22.4448 7.64697 22.3978 7.64697 22.3513 7.64135L17.8461 6.29317C17.7803 6.27334 17.7187 6.23943 17.6649 6.19337C17.611 6.14731 17.5659 6.09001 17.5321 6.02475C17.4984 5.95949 17.4767 5.88755 17.4682 5.81304C17.4597 5.73853 17.4647 5.66291 17.4828 5.59052C17.497 5.51692 17.5242 5.44712 17.563 5.38514C17.6017 5.32316 17.6512 5.27021 17.7086 5.22934C17.766 5.18847 17.8302 5.16048 17.8974 5.14697C17.9647 5.13347 18.0337 5.13472 18.1005 5.15065L22.6056 6.51025C22.6738 6.52001 22.7395 6.54444 22.7991 6.58216C22.8587 6.61988 22.9109 6.67014 22.9528 6.73008C22.9948 6.79003 23.0256 6.85847 23.0435 6.93151C23.0614 7.00455 23.066 7.08076 23.0571 7.15578C23.0483 7.2308 23.0261 7.30316 22.9918 7.36874C22.9576 7.43432 22.9119 7.49182 22.8574 7.53797C22.803 7.58412 22.7408 7.61802 22.6744 7.63771C22.608 7.65741 22.5388 7.66253 22.4707 7.65278L22.4914 7.64135Z" fill="#666666"/>
<path d="M23.1715 11.4001C23.1249 11.4058 23.0779 11.4058 23.0314 11.4001L15.5055 9.14936C15.3679 9.10694 15.2511 9.00607 15.1811 8.86894C15.111 8.73181 15.0933 8.56965 15.1318 8.41814C15.1704 8.26664 15.262 8.13819 15.3866 8.06105C15.5112 7.98392 15.6585 7.96441 15.7962 8.00684L23.2909 10.2919C23.4285 10.3116 23.5534 10.3907 23.6381 10.5117C23.7228 10.6328 23.7603 10.7859 23.7424 10.9374C23.7245 11.0889 23.6527 11.2264 23.5427 11.3196C23.4327 11.4128 23.2936 11.4541 23.1559 11.4344L23.1715 11.4001Z" fill="#666666"/>
<path d="M20.9603 14.2909C20.9157 14.2996 20.87 14.2996 20.8254 14.2909L14.7009 12.4457C14.6341 12.4251 14.5717 12.3902 14.5171 12.343C14.4626 12.2958 14.417 12.2373 14.383 12.1707C14.3491 12.1041 14.3273 12.0308 14.3191 11.955C14.3108 11.8792 14.3162 11.8023 14.335 11.7288C14.3537 11.6553 14.3854 11.5866 14.4283 11.5265C14.4712 11.4665 14.5244 11.4164 14.5849 11.379C14.6454 11.3416 14.712 11.3176 14.7808 11.3086C14.8497 11.2995 14.9196 11.3054 14.9864 11.3261L21.0953 13.1484C21.227 13.1885 21.3391 13.2842 21.4071 13.4147C21.4751 13.5452 21.4936 13.6999 21.4586 13.8453C21.433 13.9704 21.3699 14.0823 21.2796 14.1631C21.1892 14.2439 21.0768 14.2889 20.9603 14.2909Z" fill="#666666"/>
</svg>
