<svg width="22" height="22" viewBox="0 0 22 22" fill="none" xmlns="http://www.w3.org/2000/svg">
<path d="M11.2 8.97888C11.2 8.68433 10.9612 8.44555 10.6667 8.44555C10.3721 8.44555 10.1333 8.68433 10.1333 8.97888L10.1333 10.5789H8.53333C8.23878 10.5789 7.99999 10.8177 7.99999 11.1122C7.99999 11.4068 8.23878 11.6456 8.53333 11.6456H10.1333V13.2456C10.1333 13.5401 10.3721 13.7789 10.6667 13.7789C10.9612 13.7789 11.2 13.5401 11.2 13.2456L11.2 11.6456H12.8C13.0945 11.6456 13.3333 11.4068 13.3333 11.1122C13.3333 10.8177 13.0945 10.5789 12.8 10.5789H11.2V8.97888Z" fill="#413B89"/>
<path fill-rule="evenodd" clip-rule="evenodd" d="M10.6667 3.46777C6.44475 3.46777 3.02222 6.89031 3.02222 11.1122C3.02222 15.3341 6.44475 18.7567 10.6667 18.7567C14.8886 18.7567 18.3111 15.3341 18.3111 11.1122C18.3111 6.89031 14.8886 3.46777 10.6667 3.46777ZM4.08888 11.1122C4.08888 7.47941 7.03385 4.53444 10.6667 4.53444C14.2995 4.53444 17.2444 7.47941 17.2444 11.1122C17.2444 14.745 14.2995 17.69 10.6667 17.69C7.03385 17.69 4.08888 14.745 4.08888 11.1122Z" fill="#413B89"/>
</svg>
