<svg width="109" height="126" viewBox="0 0 109 126" fill="none" xmlns="http://www.w3.org/2000/svg">
<path fill-rule="evenodd" clip-rule="evenodd" d="M45.9872 0C43.4689 0 41.4275 2.04391 41.4275 4.56522C41.4275 7.08652 43.4689 9.13043 45.9872 9.13043C75.7021 9.13043 99.7908 33.2487 99.7908 63C99.7908 92.7513 75.7021 116.87 45.9872 116.87C31.8016 116.87 18.4956 111.355 8.51906 101.661C6.712 99.9045 3.82532 99.9478 2.07149 101.757C0.317659 103.566 0.360814 106.457 2.16788 108.212C13.8295 119.544 29.4061 126 45.9872 126C80.7385 126 108.91 97.7939 108.91 63C108.91 28.2061 80.7385 0 45.9872 0Z" fill="#34B53A"/>
</svg>
