<svg width="65" height="70" viewBox="0 0 65 70" fill="none" xmlns="http://www.w3.org/2000/svg">
<path fill-rule="evenodd" clip-rule="evenodd" d="M27.4924 0C25.9934 0 24.7783 1.13551 24.7783 2.53622C24.7783 3.93695 25.9934 5.07246 27.4924 5.07246C45.1798 5.07246 59.5184 18.4715 59.5184 35C59.5184 51.5285 45.1798 64.9275 27.4924 64.9275C19.0486 64.9275 11.1284 61.8639 5.18994 56.4781C4.1143 55.5025 2.39604 55.5265 1.35209 56.5317C0.308146 57.5368 0.333834 59.1425 1.40947 60.1181C8.3509 66.4136 17.6227 70 27.4924 70C48.1777 70 64.9465 54.33 64.9465 35C64.9465 15.67 48.1777 0 27.4924 0Z" fill="#34B53A"/>
</svg>
