<svg width="17" height="17" viewBox="0 0 17 17" fill="none" xmlns="http://www.w3.org/2000/svg">
<g clip-path="url(#clip0_223_38388)">
<path fill-rule="evenodd" clip-rule="evenodd" d="M10.7603 1.7901C10.2196 1.7901 9.70105 2.00649 9.31872 2.39167L3.07807 8.67868C2.44089 9.32059 2.08293 10.1912 2.08293 11.099C2.08293 12.0068 2.44089 12.8774 3.07807 13.5193C3.71525 14.1612 4.57944 14.5219 5.48055 14.5219C6.38165 14.5219 7.24584 14.1612 7.88302 13.5193L14.1237 7.23231C14.3889 6.96515 14.8188 6.96515 15.084 7.23231C15.3492 7.49948 15.3492 7.93263 15.084 8.1998L8.84337 14.4868C7.95149 15.3853 6.74185 15.8901 5.48055 15.8901C4.21924 15.8901 3.0096 15.3853 2.11772 14.4868C1.22584 13.5883 0.724792 12.3697 0.724792 11.099C0.724792 9.82833 1.22584 8.6097 2.11772 7.71119L8.35837 1.42418C8.9954 0.782416 9.85941 0.421875 10.7603 0.421875C11.6612 0.421875 12.5252 0.782416 13.1623 1.42418C13.7993 2.06595 14.1572 2.93637 14.1572 3.84397C14.1572 4.75156 13.7993 5.62199 13.1623 6.26375L6.91481 12.5508C6.53262 12.9358 6.01426 13.1521 5.47375 13.1521C4.93325 13.1521 4.41489 12.9358 4.0327 12.5508C3.6505 12.1657 3.43579 11.6435 3.43579 11.099C3.43579 10.5545 3.6505 10.0323 4.0327 9.64724L9.79828 3.84566C10.0636 3.57866 10.4936 3.57891 10.7586 3.84623C11.0237 4.11355 11.0234 4.54671 10.7581 4.81372L4.99305 10.6147C4.86573 10.7431 4.79393 10.9175 4.79393 11.099C4.79393 11.2806 4.86555 11.4548 4.99305 11.5833C5.12054 11.7117 5.29345 11.7839 5.47375 11.7839C5.65405 11.7839 5.82697 11.7117 5.95446 11.5833L12.2019 5.29627C12.5841 4.91112 12.799 4.38856 12.799 3.84397C12.799 3.29925 12.5842 2.77684 12.2019 2.39167C11.8196 2.00649 11.301 1.7901 10.7603 1.7901Z" fill="#817698"/>
</g>
<defs>
<clipPath id="clip0_223_38388">
<rect width="16.2977" height="16.4187" fill="white" transform="translate(0.0446167 0.15625)"/>
</clipPath>
</defs>
</svg>
