<svg width="40" height="40" viewBox="0 0 40 40" fill="none" xmlns="http://www.w3.org/2000/svg">
<rect opacity="0.1" width="40" height="40" rx="8" fill="#E06767"/>
<path d="M25.53 15.77C25.46 15.76 25.39 15.76 25.32 15.77C23.77 15.72 22.54 14.45 22.54 12.89C22.54 11.3 23.83 10 25.43 10C27.02 10 28.32 11.29 28.32 12.89C28.31 14.45 27.08 15.72 25.53 15.77Z" fill="#E06767"/>
<path d="M28.79 22.6999C27.67 23.4499 26.1 23.7299 24.65 23.5399C25.03 22.7199 25.23 21.8099 25.24 20.8499C25.24 19.8499 25.02 18.8999 24.6 18.0699C26.08 17.8699 27.65 18.1499 28.78 18.8999C30.36 19.9399 30.36 21.6499 28.79 22.6999Z" fill="#E06767"/>
<path d="M14.44 15.77C14.51 15.76 14.58 15.76 14.65 15.77C16.2 15.72 17.43 14.45 17.43 12.89C17.43 11.29 16.14 10 14.54 10C12.95 10 11.66 11.29 11.66 12.89C11.66 14.45 12.89 15.72 14.44 15.77Z" fill="#E06767"/>
<path d="M14.55 20.8501C14.55 21.8201 14.76 22.7401 15.14 23.5701C13.73 23.7201 12.26 23.4201 11.18 22.7101C9.6 21.6601 9.6 19.9501 11.18 18.9001C12.25 18.1801 13.76 17.8901 15.18 18.0501C14.77 18.8901 14.55 19.8401 14.55 20.8501Z" fill="#E06767"/>
<path d="M20.12 23.87C20.04 23.86 19.95 23.86 19.86 23.87C18.02 23.81 16.55 22.3 16.55 20.44C16.56 18.54 18.09 17 20 17C21.9 17 23.44 18.54 23.44 20.44C23.43 22.3 21.97 23.81 20.12 23.87Z" fill="#E06767"/>
<path d="M16.87 25.9399C15.36 26.9499 15.36 28.6099 16.87 29.6099C18.59 30.7599 21.41 30.7599 23.13 29.6099C24.64 28.5999 24.64 26.9399 23.13 25.9399C21.42 24.7899 18.6 24.7899 16.87 25.9399Z" fill="#E06767"/>
</svg>
