<svg width="40" height="40" viewBox="0 0 40 40" fill="none" xmlns="http://www.w3.org/2000/svg">
<rect opacity="0.1" width="40" height="40" rx="8" fill="#DE7548"/>
<path d="M28 14.75C29.5188 14.75 30.75 13.5188 30.75 12C30.75 10.4812 29.5188 9.25 28 9.25C26.4812 9.25 25.25 10.4812 25.25 12C25.25 13.5188 26.4812 14.75 28 14.75Z" fill="#DE7548"/>
<path d="M27.04 16.15C25.47 15.81 24.19 14.53 23.85 12.96C23.72 12.35 23.71 11.76 23.82 11.2C23.95 10.58 23.49 10 22.85 10H15C12.24 10 10 12.24 10 15V21.95C10 24.71 12.24 26.95 15 26.95H16.5C16.78 26.95 17.14 27.13 17.3 27.35L18.8 29.34C19.46 30.22 20.54 30.22 21.2 29.34L22.7 27.35C22.89 27.1 23.18 26.95 23.5 26.95H25.01C27.77 26.95 30 24.72 30 21.96V17.15C30 16.52 29.42 16.06 28.8 16.18C28.24 16.28 27.65 16.28 27.04 16.15ZM16 20C15.44 20 15 19.55 15 19C15 18.45 15.44 18 16 18C16.55 18 17 18.45 17 19C17 19.55 16.56 20 16 20ZM20 20C19.44 20 19 19.55 19 19C19 18.45 19.44 18 20 18C20.55 18 21 18.45 21 19C21 19.55 20.56 20 20 20ZM24 20C23.44 20 23 19.55 23 19C23 18.45 23.44 18 24 18C24.55 18 25 18.45 25 19C25 19.55 24.56 20 24 20Z" fill="#DE7548"/>
</svg>
