<svg width="40" height="40" viewBox="0 0 40 40" fill="none" xmlns="http://www.w3.org/2000/svg">
<rect opacity="0.1" width="40" height="40" rx="8" fill="#39A1EA"/>
<path d="M13 21.5C10.79 21.5 9 23.29 9 25.5C9 26.25 9.21 26.96 9.58 27.56C10.27 28.72 11.54 29.5 13 29.5C14.46 29.5 15.73 28.72 16.42 27.56C16.79 26.96 17 26.25 17 25.5C17 23.29 15.21 21.5 13 21.5ZM14.97 25.17L12.84 27.14C12.7 27.27 12.51 27.34 12.33 27.34C12.14 27.34 11.95 27.27 11.8 27.12L10.81 26.13C10.52 25.84 10.52 25.36 10.81 25.07C11.1 24.78 11.58 24.78 11.87 25.07L12.35 25.55L13.95 24.07C14.25 23.79 14.73 23.81 15.01 24.11C15.29 24.41 15.27 24.89 14.97 25.17Z" fill="#39A1EA"/>
<path d="M25.25 10.4299H15.75C12.9 10.4299 11 12.3299 11 15.1799V19.6399C11 19.9899 11.36 20.2399 11.7 20.1499C12.12 20.0499 12.55 19.9999 13 19.9999C15.86 19.9999 18.22 22.3199 18.48 25.1299C18.5 25.4099 18.73 25.6299 19 25.6299H19.55L23.78 28.4499C24.4 28.8699 25.25 28.4099 25.25 27.6499V25.6299C26.67 25.6299 27.86 25.1499 28.69 24.3299C29.52 23.4899 30 22.2999 30 20.8799V15.1799C30 12.3299 28.1 10.4299 25.25 10.4299ZM23.83 18.8099H17.17C16.78 18.8099 16.46 18.4899 16.46 18.0999C16.46 17.6999 16.78 17.3799 17.17 17.3799H23.83C24.22 17.3799 24.54 17.6999 24.54 18.0999C24.54 18.4899 24.22 18.8099 23.83 18.8099Z" fill="#39A1EA"/>
</svg>
