<svg width="1175" height="128" viewBox="0 0 1175 128" fill="none" xmlns="http://www.w3.org/2000/svg">
<g filter="url(#filter0_d_238_2695)">
<path fill-rule="evenodd" clip-rule="evenodd" d="M1163.21 2.89456H11.7907C11.2962 2.89456 10.8953 3.29507 10.8953 3.78913V107.558C10.8953 108.053 11.2962 108.453 11.7907 108.453H1163.21C1163.7 108.453 1164.1 108.053 1164.1 107.558V3.78913C1164.1 3.29506 1163.7 2.89456 1163.21 2.89456ZM11.7907 2C10.8017 2 10 2.80102 10 3.78913V107.558C10 108.547 10.8017 109.348 11.7907 109.348H1163.21C1164.2 109.348 1165 108.547 1165 107.558V3.78913C1165 2.80102 1164.2 2 1163.21 2H11.7907Z" fill="#E2E8F0"/>
</g>
<defs>
<filter id="filter0_d_238_2695" x="0" y="0" width="1175" height="127.348" filterUnits="userSpaceOnUse" color-interpolation-filters="sRGB">
<feFlood flood-opacity="0" result="BackgroundImageFix"/>
<feColorMatrix in="SourceAlpha" type="matrix" values="0 0 0 0 0 0 0 0 0 0 0 0 0 0 0 0 0 0 127 0" result="hardAlpha"/>
<feMorphology radius="3" operator="erode" in="SourceAlpha" result="effect1_dropShadow_238_2695"/>
<feOffset dy="8"/>
<feGaussianBlur stdDeviation="6.5"/>
<feComposite in2="hardAlpha" operator="out"/>
<feColorMatrix type="matrix" values="0 0 0 0 0 0 0 0 0 0 0 0 0 0 0 0 0 0 0.07 0"/>
<feBlend mode="normal" in2="BackgroundImageFix" result="effect1_dropShadow_238_2695"/>
<feBlend mode="normal" in="SourceGraphic" in2="effect1_dropShadow_238_2695" result="shape"/>
</filter>
</defs>
</svg>
