<svg width="60" height="60" viewBox="0 0 60 60" fill="none" xmlns="http://www.w3.org/2000/svg">
<g clip-path="url(#clip0_229_3275)">
<path d="M13.9233 21.2075L11.8453 14.7188H23.7234L21.1762 21.2075H13.9233ZM4.82039 34.8685C4.82039 29.8545 7.59562 25.5242 11.7649 23.3659H23.6564C27.8257 25.5242 30.6813 29.8545 30.6813 34.8685C30.6813 41.9738 24.8897 47.7655 17.7844 47.7655C10.5984 47.7657 4.82039 41.9741 4.82039 34.8685ZM18.9509 37.9655C18.9509 38.7296 18.2538 39.1184 17.2481 39.1184C16.0819 39.1184 15.0091 38.7296 14.2317 38.3408L13.6955 40.4187C14.3791 40.8076 15.5456 41.1158 16.7789 41.1964V42.8989H18.5487V41.0487C20.64 40.7403 21.7931 39.346 21.7931 37.7239C21.7931 36.1018 20.9351 35.1097 18.7767 34.332C17.235 33.7958 16.6184 33.407 16.6184 32.7903C16.6184 32.3211 17.0072 31.7848 18.1601 31.7848C19.474 31.7848 20.3184 32.1737 20.7877 32.4015L21.3239 30.3905C20.7073 30.0821 19.9296 29.8543 18.6963 29.7739V28.1518H16.9266V29.8409C14.996 30.2298 13.8431 31.463 13.8431 33.0854C13.8431 34.8685 15.157 35.7936 17.0876 36.4102C18.401 36.8797 19.0179 37.2683 18.9509 37.9655ZM46.5488 21.8485C46.1372 21.4201 46.1508 20.739 46.5792 20.3272C47.0077 19.9154 47.6888 19.9292 48.1005 20.3577C48.5123 20.7861 48.4985 21.4672 48.0701 21.879C47.6416 22.2908 46.9603 22.277 46.5488 21.8485ZM53.7335 19.8366C54.162 19.4251 54.1758 18.744 53.764 18.3153C53.3522 17.8866 52.6713 17.873 52.2427 18.2848C51.8142 18.6964 51.8004 19.3775 52.2122 19.8062C52.624 20.2348 53.3048 20.2484 53.7335 19.8366ZM40.2851 13.7752C40.7135 13.3637 40.7273 12.6826 40.3155 12.2539C39.904 11.8255 39.2229 11.8116 38.7942 12.2234C38.3655 12.6352 38.352 13.3161 38.7637 13.7448C39.1755 14.1734 39.8566 14.187 40.2851 13.7752ZM56.0377 14.5564C56.4661 14.1448 56.4799 13.4637 56.0681 13.0351C55.6563 12.6064 54.9755 12.5928 54.5468 13.0046C54.1181 13.4164 54.1045 14.0973 54.5163 14.5259C54.9281 14.9544 55.6092 14.968 56.0377 14.5564ZM47.8767 6.23375C48.3052 5.82219 48.319 5.14109 47.9072 4.71242C47.4956 4.28398 46.8145 4.27016 46.3859 4.68195C45.9572 5.09375 45.9436 5.77461 46.3554 6.20328C46.7672 6.63172 47.448 6.64531 47.8767 6.23375ZM53.8727 8.67922C54.3012 8.26766 54.315 7.58656 53.9032 7.15789C53.4916 6.72945 52.8105 6.71562 52.3819 7.12742C51.9532 7.53922 51.9396 8.22008 52.3514 8.64875C52.7632 9.07719 53.4443 9.09078 53.8727 8.67922ZM42.7584 8.49852C43.1869 8.08695 43.2007 7.40586 42.7889 6.97719C42.3773 6.54875 41.6963 6.53492 41.2676 6.94672C40.8389 7.35852 40.8253 8.03938 41.2371 8.46805C41.6489 8.89672 42.3298 8.91008 42.7584 8.49852ZM44.5732 14.9605L40.737 18.6458L40.3666 20.2447L41.9791 19.9388L45.8154 16.2535C46.9022 16.8671 48.3424 16.727 49.3338 15.7745C50.5409 14.615 50.5781 12.7557 49.4187 11.5487C48.2592 10.3416 46.3999 10.3044 45.1929 11.4638C44.2015 12.4166 43.9624 13.8069 44.5732 14.9605ZM59.5238 13.2936C59.5238 18.373 56.4298 22.7502 52.0312 24.6413V28.3592H48.4613V49.1663C48.4613 53.1711 45.2334 56.3987 41.2287 56.3987H35.1068V59.0192H0.46875V50.8592H35.1562V54.0195L41.4082 54.0078C44.0979 54.0078 46.2497 51.856 46.2497 49.1663V28.3592H42.6562V24.6528C38.2434 22.7682 35.1368 18.3833 35.1368 13.2936C35.1368 6.47961 40.6359 0.980469 47.4499 0.980469C54.2041 0.980469 59.763 6.47938 59.5238 13.2936ZM56.6595 8.46125C53.9934 3.38 47.6988 1.41781 42.6176 4.08383C37.5363 6.74984 35.5741 13.0445 38.2402 18.1257C40.9062 23.207 47.2008 25.1691 52.282 22.5031C57.3633 19.8371 59.3255 13.5425 56.6595 8.46125Z" fill="#512E4E"/>
</g>
<defs>
<clipPath id="clip0_229_3275">
<rect width="60" height="60" fill="white"/>
</clipPath>
</defs>
</svg>
