<svg width="17" height="17" viewBox="0 0 17 17" fill="none" xmlns="http://www.w3.org/2000/svg">
<path fill-rule="evenodd" clip-rule="evenodd" d="M8.04302 3.22956C5.41775 3.22956 3.28954 5.37357 3.28954 8.01836C3.28954 10.6631 5.41775 12.8072 8.04302 12.8072C10.6683 12.8072 12.7965 10.6631 12.7965 8.01836C12.7965 5.37357 10.6683 3.22956 8.04302 3.22956ZM1.9314 8.01836C1.9314 4.61792 4.66767 1.86133 8.04302 1.86133C11.4184 1.86133 14.1547 4.61792 14.1547 8.01836C14.1547 11.4188 11.4184 14.1754 8.04302 14.1754C4.66767 14.1754 1.9314 11.4188 1.9314 8.01836Z" fill="#64748B"/>
<path fill-rule="evenodd" clip-rule="evenodd" d="M11.3996 11.3996C11.6648 11.1324 12.0947 11.1324 12.3599 11.3996L15.3139 14.3755C15.5791 14.6427 15.5791 15.0758 15.3139 15.343C15.0487 15.6101 14.6187 15.6101 14.3535 15.343L11.3996 12.3671C11.1344 12.0999 11.1344 11.6668 11.3996 11.3996Z" fill="#64748B"/>
</svg>
