<svg width="14" height="12" viewBox="0 0 14 12" fill="none" xmlns="http://www.w3.org/2000/svg">
<path fill-rule="evenodd" clip-rule="evenodd" d="M13.2222 8.33334C12.25 8.33334 11.3165 8.19987 10.4612 7.96681C10.1889 7.90006 9.87791 7.93328 9.68352 8.13347L7.9722 9.59997C5.75546 8.63347 3.96674 7.09997 2.83879 5.19987L4.55011 3.73341C4.7445 3.56675 4.82216 3.30016 4.7445 3.06675C4.43326 2.30016 4.27777 1.5 4.27777 0.666656C4.27777 0.300125 3.9278 0 3.5 0H0.777766C0.349964 0 0 0.300125 0 0.666656C0 6.93325 5.91121 12 13.2222 12C13.6499 12 14 11.6999 14 11.3333V9C14 8.63347 13.6499 8.33334 13.2222 8.33334Z" fill="#512E4E"/>
</svg>
