<svg width="14" height="10" viewBox="0 0 14 10" fill="none" xmlns="http://www.w3.org/2000/svg">
<path fill-rule="evenodd" clip-rule="evenodd" d="M13.2222 6.94445C12.25 6.94445 11.3165 6.83323 10.4612 6.63901C10.1889 6.58339 9.87791 6.61107 9.68352 6.77789L7.9722 7.99997C5.75546 7.19456 3.96674 5.91664 2.83879 4.33323L4.55011 3.11117C4.74451 2.97229 4.82216 2.75013 4.7445 2.55562C4.43326 1.9168 4.27777 1.25 4.27777 0.555547C4.27777 0.250104 3.9278 0 3.5 0H0.777766C0.349964 0 0 0.250104 0 0.555547C0 5.77771 5.91121 10 13.2222 10C13.6499 10 14 9.7499 14 9.44445V7.5C14 7.19456 13.6499 6.94445 13.2222 6.94445Z" fill="#512E4E"/>
</svg>
