<svg width="18" height="17" viewBox="0 0 18 17" fill="none" xmlns="http://www.w3.org/2000/svg">
<g clip-path="url(#clip0_223_38390)">
<path fill-rule="evenodd" clip-rule="evenodd" d="M8.90336 2.20807C5.528 2.20807 2.79173 4.96467 2.79173 8.3651C2.79173 11.7655 5.528 14.5221 8.90336 14.5221C12.2787 14.5221 15.015 11.7655 15.015 8.3651C15.015 4.96467 12.2787 2.20807 8.90336 2.20807ZM1.43359 8.3651C1.43359 4.20902 4.77792 0.839844 8.90336 0.839844C13.0288 0.839844 16.3731 4.20902 16.3731 8.3651C16.3731 12.5212 13.0288 15.8904 8.90336 15.8904C4.77792 15.8904 1.43359 12.5212 1.43359 8.3651Z" fill="#817698"/>
<path fill-rule="evenodd" clip-rule="evenodd" d="M6.72823 9.31966C6.50266 9.01987 6.07875 8.95971 5.77966 9.18569C5.47963 9.41239 5.41883 9.84119 5.64385 10.1435L6.18711 9.73298C5.64385 10.1435 5.64401 10.1437 5.64418 10.1439L5.64454 10.1444L5.64532 10.1454L5.64718 10.1479L5.65207 10.1543L5.66654 10.173C5.67825 10.1879 5.69411 10.2076 5.71404 10.2316C5.75386 10.2794 5.81022 10.3441 5.88251 10.4201C6.02652 10.5715 6.23697 10.7709 6.50921 10.9704C7.05106 11.3674 7.86744 11.7853 8.90338 11.7853C9.93933 11.7853 10.7557 11.3674 11.2976 10.9704C11.5698 10.7709 11.7802 10.5715 11.9243 10.4201C11.9965 10.3441 12.0529 10.2794 12.0927 10.2316C12.1127 10.2076 12.1285 10.1879 12.1402 10.173L12.1547 10.1543L12.1596 10.1479L12.1614 10.1454L12.1622 10.1444L12.1626 10.1439C12.1628 10.1437 12.1629 10.1435 11.6197 9.73298L12.1629 10.1435C12.3879 9.84119 12.3271 9.41239 12.0271 9.18569C11.728 8.95971 11.3041 9.01987 11.0785 9.31966L11.0754 9.32372C11.0713 9.32886 11.0637 9.33849 11.0524 9.35198C11.0299 9.379 10.9934 9.42114 10.9437 9.47343C10.8437 9.57858 10.6934 9.72123 10.4987 9.86383C10.1069 10.1509 9.56512 10.4171 8.90338 10.4171C8.24165 10.4171 7.69989 10.1509 7.30803 9.86383C7.1134 9.72123 6.96309 9.57858 6.86307 9.47343C6.81334 9.42114 6.77685 9.379 6.75434 9.35198C6.74311 9.33849 6.73542 9.32886 6.73138 9.32372L6.72823 9.31966Z" fill="#817698"/>
<path fill-rule="evenodd" clip-rule="evenodd" d="M6.18707 6.31302C6.18707 5.93519 6.4911 5.62891 6.86614 5.62891H6.87293C7.24797 5.62891 7.552 5.93519 7.552 6.31302C7.552 6.69085 7.24797 6.99713 6.87293 6.99713H6.86614C6.4911 6.99713 6.18707 6.69085 6.18707 6.31302Z" fill="#817698"/>
<path fill-rule="evenodd" clip-rule="evenodd" d="M10.2615 6.31302C10.2615 5.93519 10.5655 5.62891 10.9405 5.62891H10.9473C11.3224 5.62891 11.6264 5.93519 11.6264 6.31302C11.6264 6.69085 11.3224 6.99713 10.9473 6.99713H10.9405C10.5655 6.99713 10.2615 6.69085 10.2615 6.31302Z" fill="#817698"/>
</g>
<defs>
<clipPath id="clip0_223_38390">
<rect width="16.2977" height="16.4187" fill="white" transform="translate(0.754517 0.15625)"/>
</clipPath>
</defs>
</svg>
