<svg width="48" height="49" viewBox="0 0 48 49" fill="none" xmlns="http://www.w3.org/2000/svg">
<g filter="url(#filter0_d_223_44161)">
<path d="M33.9792 40.5V37.6428C33.9792 37.2676 33.9146 36.8961 33.7891 36.5494C33.6635 36.2029 33.4795 35.8879 33.2476 35.6224C33.0155 35.3571 32.74 35.1467 32.4371 35.0031C32.1339 34.8596 31.809 34.7857 31.4809 34.7857H21.4872C18.1743 34.7857 14.997 33.2806 12.6544 30.6015C10.3118 27.9224 8.99572 24.2889 8.99566 20.5C8.99566 18.624 9.31877 16.7663 9.94653 15.0331C10.5743 13.2998 11.4944 11.725 12.6544 10.3984C13.8143 9.07189 15.1914 8.01963 16.7069 7.30172C18.2224 6.5838 19.8468 6.21433 21.4872 6.21435H31.4802C31.8083 6.21445 32.1333 6.14064 32.4365 5.99711C32.7397 5.85357 33.0153 5.64313 33.2472 5.37781C33.4794 5.11247 33.6634 4.79746 33.7891 4.45076C33.9146 4.10406 33.9792 3.73246 33.9792 3.35717V0.5H21.4877C19.1912 0.5 16.9172 1.01732 14.7954 2.02241C12.6737 3.02751 10.7459 4.50071 9.12198 6.35787C7.49809 8.21505 6.20994 10.4198 5.33112 12.8464C4.45229 15.2729 3.99998 17.8736 4 20.5C4 25.8042 5.84244 30.8914 9.12202 34.6421C12.4016 38.3928 16.8497 40.5 21.4877 40.5H33.9792Z" fill="url(#paint0_linear_223_44161)"/>
<path d="M13.9922 20.5C13.9922 22.7733 14.7818 24.9533 16.1873 26.5606C17.5928 28.1681 19.4991 29.0711 21.4867 29.0711H33.9792C35.3044 29.0711 36.5751 29.6732 37.5121 30.7448C38.4491 31.8164 38.9756 33.2699 38.9756 34.7854V40.4998H43.9722V34.7857C43.9722 31.7547 42.9194 28.8478 41.0454 26.7044C39.1712 24.5612 36.6294 23.3572 33.9792 23.3572H21.4871C20.8245 23.3572 20.1891 23.0561 19.7205 22.5204C19.252 21.9845 18.9888 21.2578 18.9888 20.5C18.9888 19.7422 19.252 19.0155 19.7205 18.4797C20.1891 17.9438 20.8245 17.6428 21.4871 17.6428H33.9792C36.6294 17.6428 39.1712 16.4388 41.0454 14.2955C42.9194 12.1522 43.9722 9.24536 43.9722 6.21435V0.5H38.9748V6.21435C38.9748 7.72967 38.4485 9.18297 37.5117 10.2545C36.5749 11.3261 35.3042 11.9282 33.9792 11.9285H21.4871C20.5028 11.9284 19.5282 12.1501 18.6189 12.5808C17.7095 13.0116 16.8833 13.643 16.1873 14.4389C15.4913 15.2348 14.9393 16.1798 14.5626 17.2198C14.186 18.2597 13.9922 19.3744 13.9922 20.5Z" fill="url(#paint1_linear_223_44161)"/>
</g>
<defs>
<filter id="filter0_d_223_44161" x="0" y="0.5" width="47.9722" height="48" filterUnits="userSpaceOnUse" color-interpolation-filters="sRGB">
<feFlood flood-opacity="0" result="BackgroundImageFix"/>
<feColorMatrix in="SourceAlpha" type="matrix" values="0 0 0 0 0 0 0 0 0 0 0 0 0 0 0 0 0 0 127 0" result="hardAlpha"/>
<feOffset dy="4"/>
<feGaussianBlur stdDeviation="2"/>
<feComposite in2="hardAlpha" operator="out"/>
<feColorMatrix type="matrix" values="0 0 0 0 0 0 0 0 0 0 0 0 0 0 0 0 0 0 0.25 0"/>
<feBlend mode="normal" in2="BackgroundImageFix" result="effect1_dropShadow_223_44161"/>
<feBlend mode="normal" in="SourceGraphic" in2="effect1_dropShadow_223_44161" result="shape"/>
</filter>
<linearGradient id="paint0_linear_223_44161" x1="8.52686" y1="20.5" x2="46.9903" y2="20.5" gradientUnits="userSpaceOnUse">
<stop stop-color="#817696"/>
<stop offset="1" stop-color="#817698"/>
</linearGradient>
<linearGradient id="paint1_linear_223_44161" x1="8.50586" y1="20.4999" x2="47.0001" y2="20.4999" gradientUnits="userSpaceOnUse">
<stop stop-color="#8575D2"/>
<stop offset="1" stop-color="#9083D5"/>
</linearGradient>
</defs>
</svg>
