<svg width="12" height="12" viewBox="0 0 12 12" fill="none" xmlns="http://www.w3.org/2000/svg">
<path d="M9.48497 7.36433C9.34535 7.50095 9.28121 7.69854 9.31301 7.89231L9.79222 10.5703C9.83265 10.7973 9.73777 11.027 9.54965 11.1581C9.3653 11.2942 9.12003 11.3105 8.91897 11.2017L6.53156 9.94433C6.44855 9.8997 6.35638 9.87575 6.26204 9.87303H6.11596C6.06529 9.88065 6.0157 9.89698 5.97042 9.92202L3.58248 11.1853C3.46443 11.2452 3.33074 11.2664 3.19976 11.2452C2.88065 11.1843 2.66772 10.8773 2.72001 10.5534L3.19976 7.87544C3.23156 7.68003 3.16742 7.48136 3.0278 7.34256L1.08133 5.4375C0.91854 5.27802 0.861941 5.03852 0.936328 4.82244C1.00856 4.60689 1.19291 4.44959 1.41553 4.41421L4.09456 4.02177C4.29832 4.00054 4.47728 3.87535 4.56892 3.69028L5.74942 1.24636C5.77745 1.19193 5.81356 1.14185 5.85723 1.0994L5.90574 1.0613C5.93107 1.03299 5.96018 1.00959 5.99252 0.990537L6.05128 0.968765L6.14292 0.930664H6.36985C6.57253 0.951892 6.75095 1.07436 6.84421 1.25725L8.04034 3.69028C8.12658 3.86827 8.29423 3.99183 8.48774 4.02177L11.1668 4.41421C11.3932 4.44687 11.5824 4.60471 11.6573 4.82244C11.7279 5.0407 11.667 5.2802 11.501 5.4375L9.48497 7.36433Z" fill="#E29740"/>
</svg>
