<svg width="10" height="9" viewBox="0 0 10 9" fill="none" xmlns="http://www.w3.org/2000/svg">
<path d="M4.71468 0.378115C4.80449 0.101722 5.19551 0.101722 5.28532 0.378115L6.05522 2.74762C6.09538 2.87123 6.21057 2.95492 6.34053 2.95492H8.83198C9.12259 2.95492 9.24343 3.3268 9.00831 3.49762L6.99269 4.96205C6.88755 5.03845 6.84355 5.17386 6.88371 5.29746L7.65361 7.66697C7.74341 7.94336 7.42707 8.1732 7.19196 8.00238L5.17634 6.53795C5.07119 6.46155 4.92881 6.46155 4.82366 6.53795L2.80804 8.00238C2.57293 8.1732 2.25659 7.94336 2.34639 7.66697L3.11629 5.29746C3.15645 5.17386 3.11245 5.03845 3.00731 4.96205L0.991687 3.49762C0.756573 3.3268 0.877406 2.95492 1.16802 2.95492H3.65947C3.78944 2.95492 3.90462 2.87123 3.94478 2.74762L4.71468 0.378115Z" fill="#F7BE3D"/>
</svg>
