<svg width="1085" height="41" viewBox="0 0 1085 41" fill="none" xmlns="http://www.w3.org/2000/svg">
<mask id="path-1-inside-1_203_6965" fill="white">
<path d="M0 0H1085V41H0V0Z"/>
</mask>
<path d="M1085 40H0V42H1085V40Z" fill="black" fill-opacity="0.14" mask="url(#path-1-inside-1_203_6965)"/>
<path d="M1016.74 17.0744C1016.61 17.0744 1016.52 17.1855 1016.54 17.3075L1018 26H1024L1025.46 17.3075C1025.48 17.1855 1025.39 17.0744 1025.26 17.0744H1016.74ZM1025.8 14.9917C1025.91 14.9917 1026 15.0813 1026 15.1917V15.7835C1026 15.8939 1025.91 15.9835 1025.8 15.9835H1016.2C1016.09 15.9835 1016 15.8939 1016 15.7835V15.1917C1016 15.0813 1016.09 14.9917 1016.2 14.9917H1018.86C1019.31 14.9917 1019.67 14.4468 1019.67 14H1022.33C1022.33 14.4468 1022.69 14.9917 1023.14 14.9917H1025.8Z" fill="#8E8EA9"/>
</svg>
