<svg width="13" height="16" viewBox="0 0 13 16" fill="none" xmlns="http://www.w3.org/2000/svg">
<g clip-path="url(#clip0_234_5690)">
<path d="M9.64528 2.13481H8.12651V1.72234C8.12651 0.994432 7.65312 0.412109 7.06139 0.412109H5.54261C4.95088 0.412109 4.4775 0.994432 4.4775 1.72234V2.13481H2.95872C2.38671 2.13481 1.91333 2.71714 1.91333 3.42078V4.14868C1.91333 4.68248 2.16975 5.11922 2.54451 5.31332L2.8601 13.3445C2.89955 14.3393 3.57018 15.1158 4.37888 15.1158H8.2054C9.0141 15.1158 9.68473 14.3393 9.72418 13.3445L10.0595 5.28906C10.4343 5.09495 10.6907 4.63395 10.6907 4.12442V3.39651C10.6907 2.71714 10.2173 2.13481 9.64528 2.13481ZM5.38482 1.72234C5.38482 1.60102 5.46372 1.50396 5.56234 1.50396H7.08111C7.17974 1.50396 7.25863 1.60102 7.25863 1.72234V2.13481H5.40454V1.72234H5.38482ZM2.82065 3.42078C2.82065 3.32372 2.87982 3.22667 2.97845 3.22667H9.64528C9.72418 3.22667 9.80308 3.29946 9.80308 3.42078V4.14868C9.80308 4.24573 9.7439 4.34279 9.64528 4.34279H2.97845C2.89955 4.34279 2.82065 4.27 2.82065 4.14868V3.42078ZM8.22513 14.0239H4.3986C4.06329 14.0239 3.78715 13.7085 3.76742 13.2717L3.47156 5.41038H9.1719L8.87603 13.2717C8.83658 13.6842 8.56044 14.0239 8.22513 14.0239Z" fill="#64748B"/>
<path d="M6.31181 7.86133C6.07512 7.86133 5.85815 8.10396 5.85815 8.41939V11.5008C5.85815 11.792 6.0554 12.0589 6.31181 12.0589C6.54851 12.0589 6.76548 11.8163 6.76548 11.5008V8.41939C6.76548 8.10396 6.54851 7.86133 6.31181 7.86133Z" fill="#64748B"/>
<path d="M7.88986 8.34559C7.63344 8.32132 7.4362 8.5397 7.41647 8.85512L7.29813 10.9903C7.2784 11.2815 7.45592 11.5484 7.71234 11.5726C7.73206 11.5726 7.73206 11.5726 7.75179 11.5726C7.98848 11.5726 8.18572 11.3543 8.18572 11.0631L8.30407 8.92791C8.30407 8.61249 8.12655 8.36985 7.88986 8.34559Z" fill="#64748B"/>
<path d="M4.71416 8.34559C4.47747 8.36985 4.28022 8.63675 4.29995 8.92791L4.43802 11.0631C4.45774 11.3543 4.65498 11.5726 4.87195 11.5726C4.89168 11.5726 4.89168 11.5726 4.9114 11.5726C5.14809 11.5484 5.34534 11.2815 5.32561 10.9903L5.18754 8.85512C5.18754 8.5397 4.97057 8.32132 4.71416 8.34559Z" fill="#64748B"/>
</g>
<defs>
<clipPath id="clip0_234_5690">
<rect width="12.6236" height="15.5286" fill="white"/>
</clipPath>
</defs>
</svg>
