<svg width="12" height="17" viewBox="0 0 12 17" fill="none" xmlns="http://www.w3.org/2000/svg">
<path d="M8.5649 1.6267C8.69736 1.42801 8.85461 1.2704 9.02767 1.16287C9.20074 1.05534 9.38623 1 9.57355 1C9.76087 1 9.94636 1.05534 10.1194 1.16287C10.2925 1.2704 10.4497 1.42801 10.5822 1.6267C10.7147 1.82538 10.8197 2.06126 10.8914 2.32086C10.9631 2.58045 11 2.85869 11 3.13968C11 3.42066 10.9631 3.6989 10.8914 3.95849C10.8197 4.21809 10.7147 4.45397 10.5822 4.65266L3.7738 14.8653L1 16L1.75649 11.8393L8.5649 1.6267Z" stroke="#515772" stroke-width="2" stroke-linecap="round" stroke-linejoin="round"/>
</svg>
