<svg width="18" height="17" viewBox="0 0 18 17" fill="none" xmlns="http://www.w3.org/2000/svg">
<path d="M15.4083 2.59219C15.0418 2.19981 14.6066 1.88854 14.1276 1.67617C13.6487 1.4638 13.1353 1.35449 12.6169 1.35449C12.0984 1.35449 11.585 1.4638 11.1061 1.67617C10.6271 1.88854 10.1919 2.19981 9.8254 2.59219L9.06475 3.40616L8.3041 2.59219C7.56376 1.79997 6.55964 1.3549 5.51265 1.3549C4.46565 1.3549 3.46154 1.79997 2.7212 2.59219C1.98086 3.38442 1.56494 4.4589 1.56494 5.57928C1.56494 6.69965 1.98086 7.77414 2.7212 8.56636L3.48185 9.38032L9.06475 15.3545L14.6476 9.38032L15.4083 8.56636C15.775 8.17416 16.0659 7.70849 16.2643 7.19596C16.4628 6.68342 16.5649 6.13407 16.5649 5.57928C16.5649 5.02449 16.4628 4.47513 16.2643 3.9626C16.0659 3.45007 15.775 2.9844 15.4083 2.59219Z" stroke="black" stroke-opacity="0.27" stroke-width="2" stroke-linecap="round" stroke-linejoin="round"/>
</svg>
