<svg width="61" height="51" viewBox="0 0 61 51" fill="none" xmlns="http://www.w3.org/2000/svg">
<path d="M58.5687 12.2292C58.5687 10.5625 56.902 5.5625 51.902 5.5625H15.9037C13.6087 5.5625 10.4204 8.5475 8.73368 12.2292L3.56868 20.5625C1.14702 21.5608 0.235352 24.4475 0.235352 27.2292V37.2292C0.235352 38.9973 0.937731 40.693 2.18797 41.9432C3.43822 43.1935 5.13391 43.8958 6.90202 43.8958H53.5687C55.3368 43.8958 57.0325 43.1935 58.2827 41.9432C59.533 40.693 60.2354 38.9973 60.2354 37.2292V23.8958C60.2354 22.1842 58.5687 12.2292 58.5687 12.2292Z" fill="#CCD6DD"/>
<path d="M15.2353 33.8955C12.6245 33.8966 10.1177 34.9192 8.25105 36.7447C6.38444 38.5702 5.30623 41.0536 5.24702 43.6638C5.78035 43.7988 6.32702 43.8955 6.90202 43.8955H25.2353C25.2353 41.2433 24.1818 38.6998 22.3064 36.8244C20.4311 34.9491 17.8875 33.8955 15.2353 33.8955ZM55.2237 43.6622C55.1645 41.0521 54.0862 38.5689 52.2195 36.7436C50.3529 34.9184 47.8461 33.8961 45.2353 33.8955C39.7154 33.8955 35.2353 38.3738 35.2353 43.8955H53.5687C54.1437 43.8955 54.692 43.7988 55.2237 43.6622Z" fill="#E1E8ED"/>
<path d="M15.2354 50.5618C18.9173 50.5618 21.902 47.5771 21.902 43.8952C21.902 40.2133 18.9173 37.2285 15.2354 37.2285C11.5535 37.2285 8.56869 40.2133 8.56869 43.8952C8.56869 47.5771 11.5535 50.5618 15.2354 50.5618Z" fill="#292F33"/>
<path d="M15.2354 47.2292C17.0763 47.2292 18.5687 45.7368 18.5687 43.8958C18.5687 42.0549 17.0763 40.5625 15.2354 40.5625C13.3944 40.5625 11.902 42.0549 11.902 43.8958C11.902 45.7368 13.3944 47.2292 15.2354 47.2292Z" fill="#99AAB5"/>
<path d="M45.2353 50.5618C48.9172 50.5618 51.902 47.5771 51.902 43.8952C51.902 40.2133 48.9172 37.2285 45.2353 37.2285C41.5534 37.2285 38.5687 40.2133 38.5687 43.8952C38.5687 47.5771 41.5534 50.5618 45.2353 50.5618Z" fill="#292F33"/>
<path d="M45.2354 47.2292C47.0763 47.2292 48.5687 45.7368 48.5687 43.8958C48.5687 42.0549 47.0763 40.5625 45.2354 40.5625C43.3944 40.5625 41.902 42.0549 41.902 43.8958C41.902 45.7368 43.3944 47.2292 45.2354 47.2292Z" fill="#99AAB5"/>
<path d="M0.235352 27.2288H60.2354V32.2288H0.235352V27.2288ZM51.902 13.8955H46.902V8.89551H43.5687V13.8955H38.5687V17.2288H43.5687V22.2288H46.902V17.2288H51.902V13.8955Z" fill="#DD2E44"/>
<path d="M13.5687 8.89551H21.902V20.5622H6.90202L13.5687 8.89551Z" fill="#55ACEE"/>
<path d="M25.2354 3.0625C25.2354 3.72554 24.972 4.36143 24.5031 4.83027C24.0343 5.29911 23.3984 5.5625 22.7354 5.5625H19.402C18.739 5.5625 18.1031 5.29911 17.6343 4.83027C17.1654 4.36143 16.902 3.72554 16.902 3.0625C16.902 2.39946 17.1654 1.76357 17.6343 1.29473C18.1031 0.825892 18.739 0.5625 19.402 0.5625H22.7354C23.3984 0.5625 24.0343 0.825892 24.5031 1.29473C24.972 1.76357 25.2354 2.39946 25.2354 3.0625Z" fill="#DD2E44"/>
<path d="M30.2353 3.0625C30.2353 3.72554 29.972 4.36143 29.5031 4.83027C29.0343 5.29911 28.3984 5.5625 27.7353 5.5625H24.402C23.739 5.5625 23.1031 5.29911 22.6342 4.83027C22.1654 4.36143 21.902 3.72554 21.902 3.0625C21.902 2.39946 22.1654 1.76357 22.6342 1.29473C23.1031 0.825892 23.739 0.5625 24.402 0.5625H27.7353C28.3984 0.5625 29.0343 0.825892 29.5031 1.29473C29.972 1.76357 30.2353 2.39946 30.2353 3.0625Z" fill="#55ACEE"/>
</svg>
