<svg width="12" height="13" viewBox="0 0 12 13" fill="none" xmlns="http://www.w3.org/2000/svg">
<path d="M11.3774 0.921553L11.3702 0.907125L11.362 0.893194C11.2542 0.708962 11.0434 0.5 10.7274 0.5C10.4135 0.5 10.2033 0.706317 10.0949 0.889682L4.5137 10.139L1.9211 5.83133C1.81273 5.64788 1.60248 5.44133 1.28837 5.44133C0.97244 5.44133 0.761579 5.65029 0.653761 5.83452C0.542714 6.02427 0.5 6.24093 0.5 6.43407C0.5 6.62721 0.542714 6.84387 0.653761 7.03362L0.653728 7.03364L0.656898 7.03891L3.59606 11.9224C3.78326 12.2405 4.10177 12.5 4.497 12.5C4.91599 12.5 5.21592 12.2317 5.39781 11.9226L11.3212 2.10631C11.4449 1.91562 11.4931 1.69834 11.4993 1.50899C11.5056 1.31566 11.4697 1.10547 11.3774 0.921553Z" fill="white" stroke="white"/>
</svg>
