<svg width="14" height="11" viewBox="0 0 14 11" fill="none" xmlns="http://www.w3.org/2000/svg">
<path d="M10.4515 5.39037C11.893 5.39037 12.6451 6.11675 12.6451 7.20633C12.6451 8.37105 11.8805 9.12249 10.7022 9.12249C9.5615 9.12249 8.83447 8.43367 8.83447 7.25643H7.61859C7.61859 9.13501 8.89715 10.2246 10.6771 10.2246C12.5197 10.2246 13.8986 9.05987 13.8986 7.23138C13.8986 5.60327 12.7328 4.56379 11.191 4.37593L13.6729 2.00892V1.01953H8.04478V2.10911H12.1186L9.54896 4.57632V5.39037H10.4515Z" fill="#64748B"/>
<path d="M6.67715 10.0605V8.92085H2.4905L4.37073 7.29275C5.9752 5.9026 6.61448 4.98835 6.61448 3.69839C6.61448 1.95757 5.44873 0.855469 3.63117 0.855469C1.78855 0.855469 0.560127 2.12038 0.522522 4.06158H1.75094C1.77601 2.77162 2.50303 1.95757 3.61864 1.95757C4.70917 1.95757 5.36099 2.63386 5.36099 3.77354C5.36099 4.73787 4.94734 5.35155 3.48075 6.61646L0.560127 9.13376V10.0731L6.67715 10.0605Z" fill="#64748B"/>
</svg>
