<svg width="13" height="11" viewBox="0 0 13 11" fill="none" xmlns="http://www.w3.org/2000/svg">
<path d="M5.04077 5.55273C5.04077 8.37061 6.43214 10.2367 8.77617 10.2367C11.1077 10.2367 12.499 8.37061 12.499 5.55273C12.499 2.74738 11.045 0.84375 8.77617 0.84375C6.49482 0.84375 5.04077 2.74738 5.04077 5.55273ZM6.25666 5.55273C6.25666 3.29843 7.18424 1.94585 8.77617 1.94585C10.3681 1.94585 11.2831 3.29843 11.2831 5.55273C11.2831 7.78198 10.3681 9.13456 8.77617 9.13456C7.18424 9.13456 6.25666 7.78198 6.25666 5.55273Z" fill="#64748B"/>
<path d="M2.20462 2.12163V10.0743H3.3829V1.01953H0.299316V2.12163H2.20462Z" fill="#64748B"/>
</svg>
