<svg width="16" height="11" viewBox="0 0 16 11" fill="none" xmlns="http://www.w3.org/2000/svg">
<path d="M8.00021 5.55273C8.00021 8.37061 9.39159 10.2367 11.7356 10.2367C14.0671 10.2367 15.4585 8.37061 15.4585 5.55273C15.4585 2.74738 14.0044 0.84375 11.7356 0.84375C9.45426 0.84375 8.00021 2.74738 8.00021 5.55273ZM9.2161 5.55273C9.2161 3.29843 10.1437 1.94585 11.7356 1.94585C13.3275 1.94585 14.2426 3.29843 14.2426 5.55273C14.2426 7.78198 13.3275 9.13456 11.7356 9.13456C10.1437 9.13456 9.2161 7.78198 9.2161 5.55273Z" fill="#64748B"/>
<path d="M3.4707 5.39037C4.91221 5.39037 5.66431 6.11675 5.66431 7.20633C5.66431 8.37105 4.89968 9.12249 3.7214 9.12249C2.58072 9.12249 1.8537 8.43367 1.8537 7.25643H0.637817C0.637817 9.13501 1.91638 10.2246 3.69633 10.2246C5.53896 10.2246 6.91779 9.05987 6.91779 7.23138C6.91779 5.60327 5.75205 4.56379 4.21026 4.37593L6.69217 2.00892V1.01953H1.064V2.10911H5.13784L2.56819 4.57632V5.39037H3.4707Z" fill="#64748B"/>
</svg>
