<svg width="15" height="11" viewBox="0 0 15 11" fill="none" xmlns="http://www.w3.org/2000/svg">
<path d="M14.2886 10.0605V8.92085H10.1019L11.9822 7.29275C13.5866 5.9026 14.2259 4.98835 14.2259 3.69839C14.2259 1.95757 13.0602 0.855469 11.2426 0.855469C9.4 0.855469 8.17158 2.12038 8.13397 4.06158H9.36239C9.38746 2.77162 10.1145 1.95757 11.2301 1.95757C12.3206 1.95757 12.9724 2.63386 12.9724 3.77354C12.9724 4.73787 12.5588 5.35155 11.0922 6.61646L8.17158 9.13376V10.0731L14.2886 10.0605Z" fill="#64748B"/>
<path d="M7.02963 10.0605V8.92085H2.84298L4.72321 7.29275C6.32767 5.9026 6.96695 4.98835 6.96695 3.69839C6.96695 1.95757 5.80121 0.855469 3.98365 0.855469C2.14102 0.855469 0.912605 2.12038 0.875 4.06158H2.10342C2.12849 2.77162 2.85551 1.95757 3.97112 1.95757C5.06165 1.95757 5.71347 2.63386 5.71347 3.77354C5.71347 4.73787 5.29981 5.35155 3.83323 6.61646L0.912605 9.13376V10.0731L7.02963 10.0605Z" fill="#64748B"/>
</svg>
