<svg width="14" height="11" viewBox="0 0 14 11" fill="none" xmlns="http://www.w3.org/2000/svg">
<path d="M12.6773 7.20508C13.6049 5.94017 13.9308 5.17621 13.9308 4.11168C13.9308 2.27067 12.4767 0.855469 10.5965 0.855469C8.72881 0.855469 7.29984 2.22057 7.29984 4.09916C7.29984 5.9026 8.56586 7.25518 10.4461 7.25518C10.7595 7.25518 11.0854 7.19256 11.3987 7.06732L9.12993 10.0731H10.5589L12.6773 7.20508ZM12.6773 4.09916C12.6773 5.33902 11.8249 6.21569 10.5965 6.21569C9.39316 6.21569 8.54079 5.33902 8.54079 4.09916C8.54079 2.85929 9.39316 1.95757 10.5965 1.95757C11.8249 1.95757 12.6773 2.85929 12.6773 4.09916Z" fill="#64748B"/>
<path d="M6.26959 10.0605V8.92085H2.08294L3.96317 7.29275C5.56763 5.9026 6.20691 4.98835 6.20691 3.69839C6.20691 1.95757 5.04117 0.855469 3.22361 0.855469C1.38098 0.855469 0.152564 2.12038 0.11496 4.06158H1.34338C1.36845 2.77162 2.09547 1.95757 3.21108 1.95757C4.30161 1.95757 4.95342 2.63386 4.95342 3.77354C4.95342 4.73787 4.53977 5.35155 3.07319 6.61646L0.152564 9.13376V10.0731L6.26959 10.0605Z" fill="#64748B"/>
</svg>
