<svg width="12" height="11" viewBox="0 0 12 11" fill="none" xmlns="http://www.w3.org/2000/svg">
<path d="M4.90204 7.55575C4.90204 9.15881 6.2182 10.2233 8.23632 10.2233C10.2419 10.2233 11.5706 9.15881 11.5706 7.56827C11.5706 6.45365 10.9188 5.55193 9.90346 5.22631C10.7558 4.88816 11.2322 4.1743 11.2322 3.24753C11.2322 1.81981 10.0288 0.855469 8.24885 0.855469C6.44383 0.855469 5.22795 1.81981 5.22795 3.23501C5.22795 4.14925 5.69174 4.86311 6.54411 5.22631C5.54132 5.5895 4.90204 6.46617 4.90204 7.55575ZM6.35609 3.31015C6.35609 2.47105 7.09564 1.92 8.22378 1.92C9.36446 1.92 10.0789 2.47105 10.0789 3.3352C10.0789 4.21187 9.36446 4.77545 8.22378 4.77545C7.09564 4.77545 6.35609 4.19935 6.35609 3.31015ZM6.10539 7.46808C6.10539 6.46617 6.93269 5.82745 8.22378 5.82745C9.52741 5.82745 10.3547 6.46617 10.3547 7.46808C10.3547 8.48252 9.51488 9.13376 8.23632 9.13376C6.94522 9.13376 6.10539 8.48252 6.10539 7.46808Z" fill="#64748B"/>
<path d="M2.1401 2.12163V10.0743H3.31838V1.01953H0.234802V2.12163H2.1401Z" fill="#64748B"/>
</svg>
