<svg width="15" height="11" viewBox="0 0 15 11" fill="none" xmlns="http://www.w3.org/2000/svg">
<path d="M14.6484 8.24581V7.15624H13.5704V1.01953H11.9784L7.70404 7.15624V8.24581H12.3921V10.0743H13.5704V8.24581H14.6484ZM9.03274 7.15624L12.3921 2.32202V7.15624H9.03274Z" fill="#64748B"/>
<path d="M7.00637 10.0605V8.92085H2.81972L4.69996 7.29275C6.30442 5.9026 6.9437 4.98835 6.9437 3.69839C6.9437 1.95757 5.77796 0.855469 3.9604 0.855469C2.11777 0.855469 0.88935 2.12038 0.851746 4.06158H2.08016C2.10523 2.77162 2.83226 1.95757 3.94786 1.95757C5.0384 1.95757 5.69021 2.63386 5.69021 3.77354C5.69021 4.73787 5.27656 5.35155 3.80998 6.61646L0.88935 9.13376V10.0731L7.00637 10.0605Z" fill="#64748B"/>
</svg>
