<svg width="12" height="10" viewBox="0 0 12 10" fill="none" xmlns="http://www.w3.org/2000/svg">
<path d="M8.64085 9.22459C10.5963 9.22459 11.9375 7.90958 11.9375 6.031C11.9375 4.29018 10.7467 3.00022 8.90408 3.00022C8.2272 3.00022 7.62552 3.18808 7.1492 3.55127L7.75087 1.14668H11.3985V0.0195312H6.86089L5.75782 4.66589L6.79822 4.9289C7.21187 4.41542 7.91382 4.05222 8.67845 4.05222C9.94448 4.05222 10.684 4.91637 10.684 6.08109C10.684 7.30844 9.89434 8.12249 8.66592 8.12249C7.51271 8.12249 6.79822 7.40863 6.79822 6.2439H5.58234C5.58234 8.04734 6.78569 9.22459 8.64085 9.22459Z" fill="#64748B"/>
<path d="M2.80783 1.12163V9.0743H3.98611V0.0195312H0.902527V1.12163H2.80783Z" fill="#64748B"/>
</svg>
