<svg width="15" height="11" viewBox="0 0 15 11" fill="none" xmlns="http://www.w3.org/2000/svg">
<path d="M8.63471 3.89141C7.70713 5.15632 7.38123 5.90775 7.38123 6.98481C7.38123 8.8133 8.83527 10.2285 10.7155 10.2285C12.5832 10.2285 14.0122 8.87592 14.0122 6.98481C14.0122 5.19389 12.7462 3.84131 10.8659 3.84131C10.5526 3.84131 10.2266 3.90393 9.91327 4.02917L12.1821 1.02344H10.7531L8.63471 3.89141ZM8.63471 6.99733C8.63471 5.75747 9.48709 4.8808 10.7155 4.8808C11.9189 4.8808 12.7712 5.75747 12.7712 6.99733C12.7712 8.2372 11.9189 9.12639 10.7155 9.12639C9.48709 9.12639 8.63471 8.2372 8.63471 6.99733Z" fill="#64748B"/>
<path d="M6.35104 10.0644V8.92476H2.16439L4.04462 7.29665C5.64909 5.9065 6.28837 4.99226 6.28837 3.7023C6.28837 1.96148 5.12262 0.859375 3.30506 0.859375C1.46243 0.859375 0.234016 2.12429 0.196411 4.06549H1.42483C1.4499 2.77553 2.17692 1.96148 3.29253 1.96148C4.38306 1.96148 5.03488 2.63777 5.03488 3.77744C5.03488 4.74178 4.62123 5.35545 3.15464 6.62036L0.234016 9.13767V10.077L6.35104 10.0644Z" fill="#64748B"/>
</svg>
