<svg width="14" height="11" viewBox="0 0 14 11" fill="none" xmlns="http://www.w3.org/2000/svg">
<path d="M6.76794 1.01953V2.14668H11.8571L8.38494 10.0743H9.6635L13.0981 2.14668V1.01953H6.76794Z" fill="#64748B"/>
<path d="M6.2247 10.0605V8.92085H2.03805L3.91828 7.29275C5.52274 5.9026 6.16202 4.98835 6.16202 3.69839C6.16202 1.95757 4.99628 0.855469 3.17872 0.855469C1.33609 0.855469 0.107673 2.12038 0.0700684 4.06158H1.29849C1.32356 2.77162 2.05058 1.95757 3.16619 1.95757C4.25672 1.95757 4.90853 2.63386 4.90853 3.77354C4.90853 4.73787 4.49488 5.35155 3.0283 6.61646L0.107673 9.13376V10.0731L6.2247 10.0605Z" fill="#64748B"/>
</svg>
