<svg width="12" height="10" viewBox="0 0 12 10" fill="none" xmlns="http://www.w3.org/2000/svg">
<path d="M6.45802 2.8875C5.53044 4.15241 5.20453 4.90385 5.20453 5.9809C5.20453 7.80939 6.65858 9.22459 8.53881 9.22459C10.4065 9.22459 11.8355 7.87201 11.8355 5.9809C11.8355 4.18999 10.5695 2.83741 8.68923 2.83741C8.37585 2.83741 8.04995 2.90003 7.73658 3.02527L10.0054 0.0195312H8.57641L6.45802 2.8875ZM6.45802 5.99343C6.45802 4.75356 7.31039 3.87689 8.53881 3.87689C9.74216 3.87689 10.5945 4.75356 10.5945 5.99343C10.5945 7.23329 9.74216 8.12249 8.53881 8.12249C7.31039 8.12249 6.45802 7.23329 6.45802 5.99343Z" fill="#64748B"/>
<path d="M2.46872 1.12163V9.0743H3.647V0.0195312H0.563416V1.12163H2.46872Z" fill="#64748B"/>
</svg>
