<svg width="15" height="11" viewBox="0 0 15 11" fill="none" xmlns="http://www.w3.org/2000/svg">
<path d="M7.36853 5.55273C7.36853 8.37061 8.7599 10.2367 11.1039 10.2367C13.4354 10.2367 14.8268 8.37061 14.8268 5.55273C14.8268 2.74738 13.3727 0.84375 11.1039 0.84375C8.82258 0.84375 7.36853 2.74738 7.36853 5.55273ZM8.58441 5.55273C8.58441 3.29843 9.512 1.94585 11.1039 1.94585C12.6959 1.94585 13.6109 3.29843 13.6109 5.55273C13.6109 7.78198 12.6959 9.13456 11.1039 9.13456C9.512 9.13456 8.58441 7.78198 8.58441 5.55273Z" fill="#64748B"/>
<path d="M6.23788 10.0605V8.92085H2.05123L3.93146 7.29275C5.53593 5.9026 6.17521 4.98835 6.17521 3.69839C6.17521 1.95757 5.00946 0.855469 3.1919 0.855469C1.34928 0.855469 0.120857 2.12038 0.083252 4.06158H1.31167C1.33674 2.77162 2.06376 1.95757 3.17937 1.95757C4.2699 1.95757 4.92172 2.63386 4.92172 3.77354C4.92172 4.73787 4.50807 5.35155 3.04148 6.61646L0.120857 9.13376V10.0731L6.23788 10.0605Z" fill="#64748B"/>
</svg>
