<svg width="12" height="11" viewBox="0 0 12 11" fill="none" xmlns="http://www.w3.org/2000/svg">
<path d="M10.1287 7.20899C11.0563 5.94407 11.3822 5.18012 11.3822 4.11559C11.3822 2.27457 9.92813 0.859375 8.0479 0.859375C6.1802 0.859375 4.75122 2.22448 4.75122 4.10306C4.75122 5.9065 6.01724 7.25908 7.89748 7.25908C8.21085 7.25908 8.53676 7.19646 8.85013 7.07122L6.58131 10.077H8.01029L10.1287 7.20899ZM10.1287 4.10306C10.1287 5.34293 9.27631 6.2196 8.0479 6.2196C6.84455 6.2196 5.99217 5.34293 5.99217 4.10306C5.99217 2.8632 6.84455 1.96148 8.0479 1.96148C9.27631 1.96148 10.1287 2.8632 10.1287 4.10306Z" fill="#64748B"/>
<path d="M2.01535 2.12554V10.0782H3.19363V1.02344H0.110046V2.12554H2.01535Z" fill="#64748B"/>
</svg>
