<svg width="15" height="11" viewBox="0 0 15 11" fill="none" xmlns="http://www.w3.org/2000/svg">
<path d="M7.68475 7.55575C7.68475 9.15881 9.00092 10.2233 11.019 10.2233C13.0246 10.2233 14.3533 9.15881 14.3533 7.56827C14.3533 6.45365 13.7015 5.55193 12.6862 5.22631C13.5385 4.88816 14.0149 4.1743 14.0149 3.24753C14.0149 1.81981 12.8115 0.855469 11.0316 0.855469C9.22654 0.855469 8.01066 1.81981 8.01066 3.23501C8.01066 4.14925 8.47445 4.86311 9.32682 5.22631C8.32403 5.5895 7.68475 6.46617 7.68475 7.55575ZM9.1388 3.31015C9.1388 2.47105 9.87836 1.92 11.0065 1.92C12.1472 1.92 12.8617 2.47105 12.8617 3.3352C12.8617 4.21187 12.1472 4.77545 11.0065 4.77545C9.87836 4.77545 9.1388 4.19935 9.1388 3.31015ZM8.8881 7.46808C8.8881 6.46617 9.7154 5.82745 11.0065 5.82745C12.3101 5.82745 13.1374 6.46617 13.1374 7.46808C13.1374 8.48252 12.2976 9.13376 11.019 9.13376C9.72794 9.13376 8.8881 8.48252 8.8881 7.46808Z" fill="#64748B"/>
<path d="M6.57925 10.0605V8.92085H2.3926L4.27283 7.29275C5.8773 5.9026 6.51658 4.98835 6.51658 3.69839C6.51658 1.95757 5.35083 0.855469 3.53327 0.855469C1.69065 0.855469 0.462226 2.12038 0.424622 4.06158H1.65304C1.67811 2.77162 2.40513 1.95757 3.52074 1.95757C4.61127 1.95757 5.26309 2.63386 5.26309 3.77354C5.26309 4.73787 4.84944 5.35155 3.38285 6.61646L0.462226 9.13376V10.0731L6.57925 10.0605Z" fill="#64748B"/>
</svg>
