<svg width="15" height="11" viewBox="0 0 15 11" fill="none" xmlns="http://www.w3.org/2000/svg">
<path d="M11.0085 10.2246C12.964 10.2246 14.3052 8.90958 14.3052 7.031C14.3052 5.29018 13.1144 4.00022 11.2718 4.00022C10.5949 4.00022 9.9932 4.18808 9.51687 4.55127L10.1185 2.14668H13.7662V1.01953H9.22857L8.1255 5.66589L9.1659 5.9289C9.57955 5.41542 10.2815 5.05222 11.0461 5.05222C12.3122 5.05222 13.0517 5.91637 13.0517 7.08109C13.0517 8.30844 12.262 9.12249 11.0336 9.12249C9.88038 9.12249 9.1659 8.40863 9.1659 7.2439H7.95001C7.95001 9.04734 9.15336 10.2246 11.0085 10.2246Z" fill="#64748B"/>
<path d="M6.91763 10.0605V8.92085H2.73098L4.61121 7.29275C6.21567 5.9026 6.85495 4.98835 6.85495 3.69839C6.85495 1.95757 5.68921 0.855469 3.87165 0.855469C2.02902 0.855469 0.800605 2.12038 0.763 4.06158H1.99142C2.01649 2.77162 2.74351 1.95757 3.85912 1.95757C4.94965 1.95757 5.60147 2.63386 5.60147 3.77354C5.60147 4.73787 5.18781 5.35155 3.72123 6.61646L0.800605 9.13376V10.0731L6.91763 10.0605Z" fill="#64748B"/>
</svg>
